<svg width="600" height="500" viewBox="0 0 600 500" fill="none" xmlns="http://www.w3.org/2000/svg">
<path d="M197.373 294.429C194.163 294.429 191.55 291.817 191.55 288.607V222.654C191.55 219.444 194.162 216.831 197.373 216.831H287.944C291.155 216.831 293.767 219.443 293.767 222.654V288.607C293.767 291.817 291.155 294.429 287.944 294.429H197.373Z" fill="white"/>
<path d="M287.944 217.206C290.948 217.206 293.392 219.65 293.392 222.654V288.606C293.392 291.61 290.948 294.054 287.944 294.054H197.373C194.369 294.054 191.925 291.61 191.925 288.606V222.654C191.925 219.65 194.369 217.206 197.373 217.206H287.944ZM287.944 216.456H197.373C193.95 216.456 191.175 219.231 191.175 222.654V288.606C191.175 292.029 193.95 294.804 197.373 294.804H287.944C291.367 294.804 294.142 292.029 294.142 288.606V222.654C294.142 219.231 291.367 216.456 287.944 216.456Z" fill="black"/>
<path opacity="0.4" d="M259.367 280.557H200.131C198.218 280.557 196.666 279.006 196.666 277.092V225.55C196.666 223.637 198.217 222.085 200.131 222.085H259.367C261.28 222.085 262.832 223.636 262.832 225.55V277.092C262.831 279.006 261.28 280.557 259.367 280.557Z" fill="#7ABDE9"/>
<path d="M242.266 250.075L224.139 237.157C222.228 235.795 219.577 237.161 219.577 239.508V265.343C219.577 267.69 222.228 269.056 224.139 267.694L242.266 254.776C243.881 253.626 243.881 251.226 242.266 250.075Z" fill="black"/>
<path opacity="0.4" d="M285.294 280.557H270.838C269.172 280.557 267.821 279.206 267.821 277.54V225.102C267.821 223.436 269.172 222.085 270.838 222.085H285.294C286.96 222.085 288.311 223.436 288.311 225.102V277.54C288.311 279.207 286.96 280.557 285.294 280.557Z" fill="#7ABDE9"/>
<path d="M286.647 287.995H198.33C197.411 287.995 196.667 287.25 196.667 286.332C196.667 285.413 197.412 284.669 198.33 284.669H286.648C287.567 284.669 288.311 285.414 288.311 286.332C288.311 287.25 287.566 287.995 286.647 287.995Z" fill="black"/>
<path d="M233.009 284.664V287.996H198.325C197.413 287.996 196.669 287.251 196.669 286.33C196.669 285.409 197.414 284.664 198.325 284.664H233.009Z" fill="#CC3B3B"/>
<path d="M233.744 290.774C236.198 290.774 238.188 288.784 238.188 286.33C238.188 283.876 236.198 281.886 233.744 281.886C231.29 281.886 229.3 283.876 229.3 286.33C229.3 288.784 231.29 290.774 233.744 290.774Z" fill="#CC3B3B"/>
<path d="M233.744 288.613C235.005 288.613 236.027 287.591 236.027 286.33C236.027 285.069 235.005 284.047 233.744 284.047C232.483 284.047 231.461 285.069 231.461 286.33C231.461 287.591 232.483 288.613 233.744 288.613Z" fill="white"/>
<path d="M272.849 62.114H204.775C200.587 62.114 197.192 65.509 197.192 69.697V104.792L208.645 93.339H272.849C277.037 93.339 280.432 89.944 280.432 85.756V69.698C280.433 65.509 277.038 62.114 272.849 62.114Z" fill="#7ABDE9"/>
<path d="M206.892 69.359H270.733" stroke="black" stroke-width="0.75" stroke-miterlimit="10" stroke-linecap="round" stroke-linejoin="round"/>
<path d="M206.892 77.119H225.565" stroke="black" stroke-width="0.75" stroke-miterlimit="10" stroke-linecap="round" stroke-linejoin="round"/>
<path d="M230.855 77.119H270.733" stroke="black" stroke-width="0.75" stroke-miterlimit="10" stroke-linecap="round" stroke-linejoin="round"/>
<path d="M206.892 84.879H235.088" stroke="black" stroke-width="0.75" stroke-miterlimit="10" stroke-linecap="round" stroke-linejoin="round"/>
<path d="M498.95 129.72C498.95 114.973 510.905 103.018 525.652 103.018C540.399 103.018 552.354 114.973 552.354 129.72C552.354 144.467 540.399 156.422 525.652 156.422C520.612 156.422 515.899 155.024 511.877 152.597L498.95 165.524V129.72Z" stroke="black" stroke-miterlimit="10" stroke-linecap="round" stroke-linejoin="round"/>
<path d="M535.67 129.624C535.67 131.786 537.423 133.539 539.585 133.539C541.747 133.539 543.499 131.786 543.499 129.624C543.499 127.462 541.746 125.709 539.585 125.709C537.423 125.71 535.67 127.462 535.67 129.624Z" fill="#7ABDE9"/>
<path d="M521.737 129.624C521.737 131.786 523.49 133.539 525.651 133.539C527.813 133.539 529.566 131.786 529.566 129.624C529.566 127.462 527.813 125.709 525.651 125.709C523.49 125.71 521.737 127.462 521.737 129.624Z" fill="#7ABDE9"/>
<path d="M507.804 129.624C507.804 131.786 509.557 133.539 511.719 133.539C513.881 133.539 515.633 131.786 515.633 129.624C515.633 127.462 513.88 125.709 511.719 125.709C509.557 125.71 507.804 127.462 507.804 129.624Z" fill="#7ABDE9"/>
<path d="M195.201 427.172C193.763 422.54 195.011 413.802 202.437 409.439C213.701 402.821 226.808 406.309 232.125 412.918C231.432 410.787 232.578 408.223 234.628 407.318C236.678 406.413 239.345 407.293 240.453 409.24C242.465 403.82 248.421 400.741 254.174 400.165C259.188 399.662 264.468 400.757 268.489 403.794C272.51 406.831 275.074 411.936 274.46 416.938C278.102 411.931 285.159 410.468 291.045 412.387C297.659 414.543 300.276 421.471 299.145 427.558" fill="#51AD9B"/>
<path d="M211.133 424.739C211.299 426.36 211.511 427.557 211.511 427.557H266.401C266.401 427.557 266.88 426.332 266.576 424.739C266.355 423.468 265.637 421.967 263.804 420.678C256.786 415.723 228.862 407.803 228.862 407.803L211.465 417.685C210.774 419.425 210.903 422.483 211.133 424.739Z" fill="black"/>
<path d="M211.133 424.739C210.719 425.927 211.133 427.557 211.133 427.557H266.815C266.815 427.557 267.491 425.927 266.575 424.739H211.133Z" fill="#7ABDE9"/>
<path d="M243.75 412.398C243.75 412.398 242.508 414.772 241.45 418.064" stroke="#7ABDE9" stroke-miterlimit="10" stroke-linecap="round" stroke-linejoin="round"/>
<path d="M237.303 410.331C237.303 410.331 236.061 412.888 235.003 416.18" stroke="#7ABDE9" stroke-miterlimit="10" stroke-linecap="round" stroke-linejoin="round"/>
<path d="M228.862 407.802L224.165 384.293L203.619 391.435L211.464 417.685L228.862 407.802Z" fill="#FFB888"/>
<path d="M226.284 394.913L206.824 402.161L203.619 391.432L224.166 384.294L226.284 394.913Z" fill="black"/>
<path d="M103.277 424.739C103.443 426.36 103.655 427.557 103.655 427.557H158.545C158.545 427.557 159.024 426.332 158.72 424.739C158.499 423.468 157.781 421.967 155.948 420.678C148.93 415.723 121.006 407.803 121.006 407.803L103.609 417.685C102.917 419.425 103.046 422.483 103.277 424.739Z" fill="black"/>
<path d="M103.277 424.739C102.863 425.927 103.277 427.557 103.277 427.557H158.959C158.959 427.557 159.635 425.927 158.719 424.739H103.277Z" fill="#7ABDE9"/>
<path d="M135.893 412.398C135.893 412.398 134.651 414.772 133.593 418.064" stroke="#7ABDE9" stroke-miterlimit="10" stroke-linecap="round" stroke-linejoin="round"/>
<path d="M129.447 410.331C129.447 410.331 128.205 412.888 127.147 416.18" stroke="#7ABDE9" stroke-miterlimit="10" stroke-linecap="round" stroke-linejoin="round"/>
<path d="M121.005 407.802L130.956 391.876L108.739 387.114L103.608 417.685L121.005 407.802Z" fill="#FFB888"/>
<path d="M130.954 391.874L124.59 402.069L106.65 399.555L108.74 387.112L130.954 391.874Z" fill="black"/>
<path d="M227.436 392.389L197.937 399.554C189.731 372.155 176.755 335.335 180.125 323.371C179.517 322.146 172.407 311.988 162.792 297.703C161.825 309.602 161.714 311.776 160.922 320.856C160.029 331.106 131.147 402.233 131.147 402.233L104.678 394.644C110.498 370.892 121.559 322.882 126.146 318.654L120.197 278.896C120.197 278.896 114.938 268.13 113.842 260.458C112.682 252.335 113.077 246.238 113.75 242.204C114.404 238.272 115.325 236.291 115.325 236.291L178.559 228.794C178.559 228.794 178.697 229.126 178.964 229.752C182.556 238.299 209.135 301.551 211.834 310.835C214.726 320.793 227.436 392.389 227.436 392.389Z" fill="#7ABDE9"/>
<mask id="mask0_695_3228" style="mask-type:luminance" maskUnits="userSpaceOnUse" x="104" y="228" width="124" height="175">
<path d="M227.436 392.389L197.937 399.554C189.731 372.155 176.755 335.335 180.125 323.371C179.517 322.146 172.407 311.988 162.792 297.703C161.825 309.602 161.714 311.776 160.922 320.856C160.029 331.106 131.147 402.233 131.147 402.233L104.678 394.644C110.498 370.892 121.559 322.882 126.146 318.654L120.197 278.896C120.197 278.896 114.938 268.13 113.842 260.458C112.682 252.335 113.077 246.238 113.75 242.204C114.404 238.272 115.325 236.291 115.325 236.291L178.559 228.794C178.559 228.794 178.697 229.126 178.964 229.752C182.556 238.299 209.135 301.551 211.834 310.835C214.726 320.793 227.436 392.389 227.436 392.389Z" fill="white"/>
</mask>
<g mask="url(#mask0_695_3228)">
<path d="M149.87 246.173L146.231 243.383L133.898 259.465L137.537 262.255L149.87 246.173Z" fill="#7ABDE9"/>
<path d="M168.333 298.231L169.582 293.82L150.08 288.301L148.831 292.712L168.333 298.231Z" fill="#7ABDE9"/>
<path d="M200.241 275.609L200.056 271.028L179.805 271.844L179.989 276.426L200.241 275.609Z" fill="#7ABDE9"/>
<path d="M196.134 295.936L196.366 291.357L176.125 290.331L175.893 294.91L196.134 295.936Z" fill="#7ABDE9"/>
<path d="M205.042 307.605L202.081 304.105L186.606 317.194L189.567 320.694L205.042 307.605Z" fill="#7ABDE9"/>
<path d="M193.764 351.451V346.866H173.496V351.451H193.764Z" fill="#7ABDE9"/>
<path d="M201.421 330.664L198.631 334.303L214.714 346.636L217.503 342.998L201.421 330.664Z" fill="#7ABDE9"/>
<path d="M206.194 321.66L208.287 325.74L226.32 316.485L224.226 312.406L206.194 321.66Z" fill="#7ABDE9"/>
<path d="M191.155 367.69L192.082 372.18L211.93 368.082L211.003 363.592L191.155 367.69Z" fill="#7ABDE9"/>
<path d="M211.345 387.625L214.587 390.867L228.918 376.535L225.676 373.293L211.345 387.625Z" fill="#7ABDE9"/>
<path d="M175.833 253.687L179.075 256.93L193.406 242.598L190.164 239.356L175.833 253.687Z" fill="#7ABDE9"/>
<path d="M150.354 232.868L148.869 237.206L168.044 243.77L169.529 239.433L150.354 232.868Z" fill="#7ABDE9"/>
<path d="M149.621 324.982L149.436 320.4L129.184 321.217L129.369 325.799L149.621 324.982Z" fill="#7ABDE9"/>
<path d="M154.361 358.062L156.437 353.974L138.366 344.797L136.29 348.885L154.361 358.062Z" fill="#7ABDE9"/>
<path d="M138.383 380.123H142.968V359.855H138.383V380.123Z" fill="#7ABDE9"/>
<path d="M121.754 367.978L123.83 363.89L105.759 354.713L103.683 358.801L121.754 367.978Z" fill="#7ABDE9"/>
<path d="M134.512 382.609L133.264 378.197L113.761 383.71L115.008 388.122L134.512 382.609Z" fill="#7ABDE9"/>
<path d="M126.162 257.826L124.915 253.414L105.411 258.927L106.658 263.339L126.162 257.826Z" fill="#7ABDE9"/>
<path d="M149.42 303.478L149.652 298.899L129.41 297.873L129.178 302.452L149.42 303.478Z" fill="#7ABDE9"/>
<path d="M150.953 274.159L149.284 269.889L130.407 277.264L132.075 281.535L150.953 274.159Z" fill="#7ABDE9"/>
</g>
<path d="M162.856 297.633V260.421L167.529 253.927L165.193 261.303L172.769 312.408L162.856 297.633Z" fill="black"/>
<path d="M195.55 147.181C195.55 147.181 169.155 147.529 143.29 145.883C129.2 144.986 113.427 136.007 102.61 139.299C78.428 146.659 90.486 186.045 90.486 186.045L109.475 180.544L115.324 236.294C115.324 236.294 152.327 232.075 178.561 228.801L178.971 173.459L195.844 175.982L195.55 147.181Z" fill="#EEBD56"/>
<path d="M140.199 101.335C140.199 101.335 128.468 103.104 126.51 114.935C124.728 125.706 130.462 138.568 130.462 138.568L166.106 124.233C166.106 124.233 158.745 98.585 140.199 101.335Z" fill="black"/>
<path d="M132.485 115.148C131.116 123.652 135.345 134.241 146.949 134.717C157.678 135.157 163.832 122.395 156.51 110.93C150.671 101.787 134.487 102.714 132.485 115.148Z" fill="#FFB888"/>
<path d="M140.012 118.531C140.151 127.909 140.251 134.075 140.251 134.075C140.251 134.075 129.61 129.768 131.681 115.279C133.462 102.814 151.379 100.899 156.51 110.93C155.258 115.864 146.137 119.29 140.012 118.531Z" fill="black"/>
<path d="M151.449 191.669C149.448 191.669 147.82 190.041 147.82 188.039V143.429C147.82 141.428 149.448 139.8 151.449 139.8H224.125C226.127 139.8 227.754 141.428 227.754 143.429V188.039C227.754 190.04 226.126 191.669 224.125 191.669H151.449Z" fill="white"/>
<path d="M224.124 140.299C225.85 140.299 227.254 141.703 227.254 143.429V188.04C227.254 189.766 225.85 191.17 224.124 191.17H151.449C149.723 191.17 148.319 189.766 148.319 188.04V143.429C148.319 141.703 149.723 140.299 151.449 140.299H224.124ZM224.124 139.299H151.449C149.168 139.299 147.319 141.148 147.319 143.429V188.04C147.319 190.321 149.168 192.17 151.449 192.17H224.124C226.405 192.17 228.254 190.321 228.254 188.04V143.429C228.254 141.148 226.405 139.299 224.124 139.299Z" fill="black"/>
<path d="M174.31 162.076L151.649 176.319L168.758 158.585" fill="black"/>
<path d="M201.261 162.076L223.923 176.319L206.814 158.585" fill="black"/>
<path d="M147.319 145.113L187.786 170.543L228.254 145.113" fill="white"/>
<path d="M147.319 145.113L187.786 170.543L228.254 145.113" stroke="black" stroke-miterlimit="10"/>
<path d="M200 192.17H180.77C180.374 191.111 181.692 190.31 186.233 185.24C189.542 181.545 187.967 177.771 184.646 177.921C182.811 178.004 181.279 180.593 180.413 181.36C177.991 183.524 174.861 184.886 173.535 186.166C172.218 187.446 169.164 189.487 169.164 189.487L125.336 197.929L118.82 177.701L94.969 184.746C101.316 217.808 117.377 219.15 127.946 216.896C143.66 213.545 174.411 201.569 174.411 201.569C174.411 201.569 184.01 199.441 188.495 199.143C193.746 198.794 196.372 197.908 200.252 196.145C202.695 195.035 201.164 192.294 200 192.17Z" fill="#FFB888"/>
<path d="M119.35 179.331L95.8369 188.808C95.5329 187.509 95.2379 186.156 94.9709 184.746L118.824 177.7L119.35 179.331Z" fill="black"/>
<path d="M178.965 229.755L113.751 242.206C114.405 238.274 115.326 236.293 115.326 236.293L178.56 228.796C178.56 228.796 178.698 229.128 178.965 229.755Z" fill="black"/>
<path d="M119.835 153.937C119.835 153.937 118.836 166.972 122.48 176.628" stroke="black" stroke-miterlimit="10" stroke-linecap="round"/>
<path d="M129.381 236.294L139.41 318.478L115.778 394.591" stroke="black" stroke-miterlimit="10" stroke-linecap="round" stroke-linejoin="round"/>
<path d="M166.057 280.384L190.201 318.478L206.191 394.591" stroke="black" stroke-miterlimit="10" stroke-linecap="round" stroke-linejoin="round"/>
<path d="M211.241 136.451C211.254 136.436 211.269 136.413 211.281 136.398C212.551 134.9 215.582 135.266 216.9 136.892C216.929 136.854 216.961 136.808 216.989 136.775C218.885 134.538 224.296 135.948 222.374 140.805C221.54 142.913 218.858 148.147 215.603 145.729C215.082 145.342 214.83 144.729 214.719 144.043C213.877 146.155 210.835 148.139 208.793 146.882C208.063 146.432 208.015 145.29 208.136 144.125C206.89 145.368 205.472 146.047 204.185 144.975C201.909 143.08 204.339 137.477 205.572 136.021C206.907 134.446 210.101 134.729 211.241 136.451Z" fill="#FFB888"/>
<path d="M208.281 143.562C208.281 143.562 209.051 140.407 211.021 136.84" stroke="black" stroke-width="0.4593" stroke-miterlimit="10" stroke-linecap="round"/>
<path d="M214.743 143.605C214.743 143.605 215.387 140.314 216.74 137.184" stroke="black" stroke-width="0.4593" stroke-miterlimit="10" stroke-linecap="round"/>
<path d="M74.5261 427.557H309.822" stroke="black" stroke-width="0.75" stroke-miterlimit="10" stroke-linecap="round" stroke-linejoin="round"/>
<path d="M66.1491 427.557H32.8301" stroke="black" stroke-width="0.75" stroke-miterlimit="10" stroke-linecap="round" stroke-linejoin="round"/>
<path d="M552.204 247.531C545.427 241.91 538.824 248.888 538.824 248.888C538.824 248.888 536.277 239.625 527.652 241.4C521.232 242.721 518.906 250.637 522.186 257.612C526.023 265.77 532.661 273.566 532.661 273.566C532.661 273.566 542.185 269.806 549.406 264.409C555.581 259.796 557.249 251.716 552.204 247.531Z" fill="#CC3B3B"/>
<path d="M97.5221 267.984C89.9411 267.606 88.989 275.833 88.989 275.833C88.989 275.833 82.4461 270.756 77.4111 276.436C73.6621 280.665 76.146 287.329 82.014 290.449C88.876 294.097 97.485 296.049 97.485 296.049C97.485 296.049 102.116 288.534 104.312 281.079C106.189 274.704 103.166 268.266 97.5221 267.984Z" fill="#CC3B3B"/>
<path d="M309.216 344.413C301.176 337.311 292.872 345.558 292.872 345.558C292.872 345.558 290.121 334.182 279.552 336.017C271.684 337.383 268.552 346.934 272.281 355.552C276.644 365.632 284.432 375.376 284.432 375.376C284.432 375.376 296.172 371.158 305.17 364.86C312.863 359.476 315.201 349.7 309.216 344.413Z" fill="#CC3B3B"/>
<path d="M524.062 206.411C517.899 206.066 517.084 212.75 517.084 212.75C517.084 212.75 511.789 208.589 507.666 213.183C504.597 216.603 506.584 222.034 511.339 224.6C516.901 227.601 523.891 229.23 523.891 229.23C523.891 229.23 527.694 223.142 529.516 217.091C531.075 211.919 528.649 206.668 524.062 206.411Z" fill="#CC3B3B"/>
<path d="M315.07 106.77C308.907 106.425 308.092 113.109 308.092 113.109C308.092 113.109 302.797 108.948 298.674 113.542C295.605 116.962 297.592 122.393 302.347 124.959C307.909 127.96 314.899 129.589 314.899 129.589C314.899 129.589 318.702 123.502 320.524 117.451C322.083 112.277 319.657 107.027 315.07 106.77Z" fill="#CC3B3B"/>
<path opacity="0.4" d="M425.49 61.89C408.67 61.89 395.04 75.53 395.04 92.35C395.04 109.16 408.67 122.8 425.49 122.8C442.31 122.8 455.94 109.16 455.94 92.35C455.94 75.53 442.31 61.89 425.49 61.89ZM425.49 115.47C412.72 115.47 402.36 105.12 402.36 92.35C402.36 79.57 412.72 69.22 425.49 69.22C438.26 69.22 448.62 79.57 448.62 92.35C448.62 105.12 438.26 115.47 425.49 115.47Z" fill="#7ABDE9"/>
<path opacity="0.4" d="M62.704 242.206C62.704 251.358 55.285 258.778 46.132 258.778C36.98 258.778 29.561 251.359 29.561 242.206C29.561 233.054 36.98 225.635 46.132 225.635C55.285 225.635 62.704 233.054 62.704 242.206Z" fill="#7ABDE9"/>
<path opacity="0.4" d="M84.3171 122.798C88.0433 122.798 91.0641 119.777 91.0641 116.051C91.0641 112.325 88.0433 109.304 84.3171 109.304C80.5908 109.304 77.5701 112.325 77.5701 116.051C77.5701 119.777 80.5908 122.798 84.3171 122.798Z" fill="#7ABDE9"/>
<path d="M408.002 108.793C409.064 112.771 406.7 116.857 402.722 117.919C398.744 118.981 394.658 116.617 393.596 112.639C392.534 108.661 394.898 104.575 398.876 103.513C402.854 102.451 406.94 104.815 408.002 108.793Z" fill="black"/>
<path d="M84.317 342.879C84.317 345.973 81.809 348.481 78.715 348.481C75.621 348.481 73.113 345.973 73.113 342.879C73.113 339.785 75.621 337.277 78.715 337.277C81.809 337.277 84.317 339.785 84.317 342.879Z" fill="black"/>
<path d="M342.923 79.064C348.882 79.064 353.712 74.2336 353.712 68.275C353.712 62.3164 348.882 57.486 342.923 57.486C336.964 57.486 332.134 62.3164 332.134 68.275C332.134 74.2336 336.964 79.064 342.923 79.064Z" stroke="black" stroke-width="0.75" stroke-miterlimit="10" stroke-linecap="round" stroke-linejoin="round"/>
<path d="M532.885 409.209C532.885 412.631 530.111 415.405 526.689 415.405C523.267 415.405 520.494 412.631 520.494 409.209C520.494 405.787 523.268 403.013 526.689 403.013C530.111 403.013 532.885 405.787 532.885 409.209Z" stroke="black" stroke-width="0.75" stroke-miterlimit="10" stroke-linecap="round" stroke-linejoin="round"/>
<path d="M218.609 454.596L212.644 448.63L218.609 442.665L215.616 439.672L209.651 445.638L203.685 439.672L200.692 442.665L206.658 448.63L200.692 454.596L203.685 457.589L209.651 451.623L215.616 457.589L218.609 454.596Z" fill="black"/>
<path d="M559.42 368.547L548.818 357.945L559.42 347.344L554.101 342.025L543.499 352.626L532.898 342.025L527.579 347.344L538.18 357.945L527.579 368.547L532.898 373.866L543.499 363.264L554.101 373.866L559.42 368.547Z" fill="black"/>
<path d="M284.944 176.599L272.78 164.434L284.944 152.27L278.841 146.167L266.676 158.331L254.512 146.167L248.409 152.27L260.573 164.434L248.409 176.599L254.512 182.702L266.676 170.538L278.841 182.702L284.944 176.599Z" fill="#EEBD56"/>
<path d="M185.729 454.596L179.763 448.63L185.729 442.665L182.736 439.672L176.77 445.638L170.805 439.672L167.812 442.665L173.778 448.63L167.812 454.596L170.805 457.589L176.771 451.623L182.736 457.589L185.729 454.596Z" fill="black"/>
<path d="M152.849 454.596L146.883 448.63L152.849 442.665L149.856 439.672L143.89 445.638L137.925 439.672L134.932 442.665L140.897 448.63L134.932 454.596L137.925 457.589L143.89 451.623L149.856 457.589L152.849 454.596Z" fill="black"/>
<path d="M364.644 447.221C364.478 448.842 364.267 450.039 364.267 450.039H309.377C309.377 450.039 308.898 448.814 309.202 447.221C309.423 445.95 310.141 444.449 311.974 443.16C318.992 438.205 346.916 430.285 346.916 430.285L364.313 440.167C365.004 441.907 364.875 444.965 364.644 447.221Z" fill="black"/>
<path d="M364.644 447.221C365.058 448.409 364.644 450.039 364.644 450.039H308.962C308.962 450.039 308.286 448.409 309.202 447.221H364.644Z" fill="#D390BB"/>
<path d="M332.028 434.88C332.028 434.88 333.27 437.254 334.328 440.546" stroke="#D390BB" stroke-miterlimit="10" stroke-linecap="round"/>
<path d="M338.474 432.814C338.474 432.814 339.716 435.371 340.774 438.663" stroke="#D390BB" stroke-miterlimit="10" stroke-linecap="round"/>
<path d="M346.916 430.285L352.315 410.771L372.619 417.237L364.313 440.167L346.916 430.285Z" fill="#CE623A"/>
<path d="M372.618 417.237L369.91 424.716L350.662 416.74L352.31 410.772L372.618 417.237Z" fill="black"/>
<path d="M374.641 380.048C375.049 381.625 375.267 382.822 375.267 382.822L323.802 401.909C323.802 401.909 322.927 400.927 322.658 399.328C322.423 398.06 322.575 396.402 323.845 394.556C328.702 387.47 352.129 370.334 352.129 370.334L371.877 373.55C373.13 374.941 374.072 377.853 374.641 380.048Z" fill="black"/>
<path d="M374.641 380.048C375.442 381.018 375.621 382.69 375.621 382.69L323.414 402.053C323.414 402.053 322.213 400.759 322.659 399.327L374.641 380.048Z" fill="#D390BB"/>
<path d="M339.768 379.819C339.768 379.819 341.758 381.613 343.895 384.332" stroke="#D390BB" stroke-miterlimit="10" stroke-linecap="round"/>
<path d="M345.094 375.64C345.094 375.64 347.148 377.606 349.285 380.324" stroke="#D390BB" stroke-miterlimit="10" stroke-linecap="round"/>
<path d="M352.129 370.333L350.405 350.16L371.691 349.162L371.877 373.549L352.129 370.333Z" fill="#CE623A"/>
<path d="M371.761 357.945L351.003 357.227L350.404 350.163L371.688 349.159L371.761 357.945Z" fill="black"/>
<path d="M487.891 388.138H393.71V397.485H487.891V388.138Z" fill="#FFB888"/>
<path d="M501.187 450.039H490.656L474.594 326.237H485.126L501.187 450.039Z" fill="#FFB888"/>
<path d="M485.612 330.003H475.085L474.597 326.236H485.124L485.612 330.003Z" fill="black"/>
<path d="M380.413 450.039H390.945L407.006 326.237H396.475L380.413 450.039Z" fill="#FFB888"/>
<path d="M492.542 316.361H389.058V326.237H492.542V316.361Z" fill="#FFB888"/>
<path d="M420.877 312.127L377.122 296.572C379.922 304.391 378.209 329.064 377.325 352.024L348.968 355.597C346.776 333.595 341.637 282.113 339.988 265.434C338.036 245.642 357.247 244.371 364.302 246.526C393.184 255.34 489.297 283.789 489.297 283.789L420.877 312.127Z" fill="#D390BB"/>
<path d="M378.494 323.105C378.236 332.094 377.702 342.215 377.324 352.023L360.129 354.187C363.988 343.43 367.92 332.995 369.265 331.061C371.531 327.792 376.403 324.449 378.494 323.105Z" fill="black"/>
<path d="M430.07 275.97C430.07 275.97 381.824 319.535 373.965 330.293C369.839 335.941 349.981 414.768 349.981 414.768L378.484 423.318C378.484 423.318 409.829 364.859 407.007 350.398L463.555 316.361H484.718C484.718 316.361 495.073 296.06 489.296 283.792L430.07 275.97Z" fill="#D390BB"/>
<path d="M484.719 316.363H463.555L407.007 350.402C409.825 364.861 378.485 423.315 378.485 423.315L349.981 414.768C349.981 414.768 369.837 335.942 373.963 330.296C381.156 320.451 422.112 283.179 429.065 276.88C429.719 276.291 430.069 275.968 430.069 275.968L489.297 283.787C490.421 286.172 490.936 288.871 491.019 291.661C491.433 303.193 484.719 316.363 484.719 316.363Z" fill="#D390BB"/>
<path d="M332.785 213.486C332.785 213.486 368.585 222.304 373.876 223.597C379.448 216.885 384.458 210.479 384.458 210.479L403.601 225.657C403.601 225.657 388.881 244.466 380.196 246.759C371.511 249.052 324.32 224.068 324.32 224.068L332.785 213.486Z" fill="black"/>
<path d="M497.502 207.461C496.591 199.496 492.473 193.966 492.473 193.966C483.282 179.24 457.522 179.184 457.522 179.184L442.252 194.564L435.685 178.419C435.685 178.419 409.935 175.325 400.099 187.758C396.295 192.556 389.158 202.558 383.899 210.036L408.775 229.759L418.317 219.805C422.158 234.292 417.109 274.255 417.109 274.255L492.039 284.155C492.039 284.155 496.057 247.395 495.924 220.35C496.887 217.348 498.068 212.405 497.502 207.461Z" fill="#5463C7"/>
<path d="M370.418 201.026L371.164 217.074L386.385 214.527L389.519 233.256L371.908 236.203L372.632 253.666L352.505 257.034L351.781 239.571L339.327 241.655L340.051 259.118L319.924 262.486L319.2 245.023L303.979 247.57L300.845 228.841L318.456 225.894L317.71 209.846L302.489 212.393L299.355 193.665L316.966 190.718L316.242 173.255L336.369 169.887L337.093 187.35L349.547 185.266L348.823 167.803L368.95 164.435L369.674 181.898L384.895 179.351L388.029 198.079L370.418 201.026ZM350.291 204.394L337.837 206.478L338.583 222.526L351.037 220.442L350.291 204.394Z" fill="#7ABDE9"/>
<path d="M479.073 235.704C479.073 235.704 458.756 253.682 446.535 251.462C423.695 247.318 409.806 244.877 394.132 241.994C391.065 241.432 387.611 241.524 385.456 241.441C381.312 241.266 376.053 240.032 372.01 238.742L371.909 236.2L383.9 234.192C383.9 234.192 385.708 233.899 386.31 233.266C387.143 232.389 386.792 231.537 385.663 231.297C384.134 230.965 380.621 229.201 378.835 227.304C377.26 225.628 378.724 223.768 380.318 223.97C383.182 224.348 385.827 224.591 387.927 225.272C391.187 226.331 396.892 230.607 396.892 230.607C396.892 230.607 439.62 230.362 445.468 231.117C447.549 229.275 458.26 218.776 458.26 218.776L479.073 235.704Z" fill="#CE623A"/>
<path d="M479.073 235.704C479.073 235.704 476.761 237.758 473.216 240.383L456.878 220.131C457.725 219.302 458.26 218.777 458.26 218.777L479.073 235.704Z" fill="black"/>
<path d="M457.599 217.52C457.599 217.52 466.064 208.702 472.06 200.707" stroke="black" stroke-miterlimit="10" stroke-linecap="round"/>
<path d="M482.718 238.176C482.718 238.176 490.83 230.828 494.122 224.714C494.122 224.714 491.418 233.885 485.892 241.174L482.718 238.176Z" fill="black"/>
<path d="M391.019 301.516L428.595 277.306L399.285 304.454L391.019 301.516Z" fill="black"/>
<path d="M413.196 225.15C415.761 220.467 408.646 210.138 412.054 210.488C415.471 210.838 418.317 219.808 418.317 219.808L413.196 225.15Z" fill="black"/>
<path d="M491.018 291.663L429.064 276.881C429.718 276.292 430.068 275.969 430.068 275.969L489.296 283.788C490.42 286.174 490.935 288.872 491.018 291.663Z" fill="black"/>
<path d="M364.265 270.156C373.435 280.032 375.904 294.67 375.904 294.67C375.904 294.67 377.256 281.208 373.259 272.155" stroke="black" stroke-width="0.75" stroke-miterlimit="10" stroke-linecap="round" stroke-linejoin="round"/>
<path d="M394.657 336.113C394.657 336.113 403.122 341.425 406.297 349.644" stroke="black" stroke-width="0.75" stroke-miterlimit="10" stroke-linecap="round" stroke-linejoin="round"/>
<path d="M312.016 219.576C312.004 219.56 311.985 219.541 311.973 219.526C310.782 217.964 311.792 215.082 313.663 214.144C313.633 214.107 313.594 214.066 313.568 214.031C311.791 211.699 314.753 206.74 318.66 209.638C320.481 210.988 324.631 215.199 322.014 217.309C321.509 217.716 320.871 217.849 320.178 217.81C322.067 220.095 323.586 222.887 321.677 224.207C320.972 224.695 319.955 224.624 318.844 224.256C319.79 225.74 320.149 227.271 318.826 228.297C316.486 230.112 311.536 226.536 310.379 225.019C309.128 223.378 310.09 220.319 312.016 219.576Z" fill="#CE623A"/>
<path d="M318.326 223.995C318.326 223.995 315.41 222.565 312.349 219.875" stroke="black" stroke-width="0.4593" stroke-miterlimit="10" stroke-linecap="round"/>
<path d="M319.756 217.692C319.756 217.692 316.68 216.356 313.914 214.362" stroke="black" stroke-width="0.4593" stroke-miterlimit="10" stroke-linecap="round"/>
<path d="M369.85 418.295C369.85 418.295 395.273 345.849 399.962 340.452C404.651 335.055 452.598 306.273 460.041 301.371C477.045 290.172 476.163 284.157 476.163 284.157" stroke="black" stroke-miterlimit="10" stroke-linecap="round" stroke-linejoin="round"/>
<path d="M461.79 282.266C461.79 282.266 447.59 292.467 456.924 303.356" stroke="black" stroke-miterlimit="10" stroke-linecap="round" stroke-linejoin="round"/>
<path d="M369.311 338.646C369.311 322.278 367.263 283.324 366.803 273.223C378.902 272.869 414.712 286.733 414.712 286.733" stroke="black" stroke-miterlimit="10" stroke-linecap="round" stroke-linejoin="round"/>
<path d="M482.625 388.138L483.838 397.485H477.574L480.308 388.138H482.625Z" fill="black"/>
<path d="M398.985 388.138L397.773 397.485H404.036L401.303 388.138H398.985Z" fill="black"/>
<path d="M466.918 151.75C468.426 160.057 464.488 170.517 453.126 171.21C442.62 171.851 436.34 159.464 443.291 148.085C448.835 139.011 464.713 139.603 466.918 151.75Z" fill="#CE623A"/>
<path d="M468.066 151.147L468.068 151.145C470.936 147.118 465.964 137.83 464.671 138.712C464.055 139.132 464.228 140.469 464.575 141.757C462.598 139.781 460.006 138.821 458.352 137.867C457.06 137.122 455.79 135.793 455.045 134.78C453.949 133.288 453.288 132.577 452.496 134.096C451.257 136.473 454.14 139.914 454.154 139.931C451.388 138.725 448.816 137.344 447.189 135.179C445.35 132.731 439.284 142.11 442.949 148.108C450.065 156.582 462.787 156.25 462.787 156.25L464.06 165.526C468.889 164.612 475.32 154.918 468.066 151.147Z" fill="black"/>
<path d="M449.128 450.039C449.128 450.039 449.894 420 472.298 404.297C472.298 404.297 472.346 424.786 461.79 438.765C461.79 438.765 473.638 414.254 502.553 410.425C502.553 410.425 492.402 432.255 474.594 439.723C474.594 439.723 498.531 433.404 515.574 438.383C515.574 438.383 503.127 446.377 482.351 450.039" fill="#51AD9B"/>
<path d="M270.032 450.039H526.689" stroke="black" stroke-width="0.75" stroke-miterlimit="10" stroke-linecap="round" stroke-linejoin="round"/>
<path d="M533.766 450.039H549.851" stroke="black" stroke-width="0.75" stroke-miterlimit="10" stroke-linecap="round" stroke-linejoin="round"/>
</svg>
