<svg width="536" height="358" viewBox="0 0 536 358" fill="none" xmlns="http://www.w3.org/2000/svg">
<path d="M277.122 169.251H116.982C112.646 169.251 109.13 165.729 109.13 161.384V51.7219C109.13 47.3772 112.646 43.8552 116.982 43.8552H277.122C281.459 43.8552 284.974 47.3772 284.974 51.7219V161.384C284.974 165.729 281.459 169.251 277.122 169.251Z" fill="white" stroke="#D8D7E2" stroke-width="0.75" stroke-miterlimit="10" stroke-linecap="round" stroke-linejoin="round"/>
<path d="M278.829 43.8552H115.276C111.882 43.8552 109.13 46.9634 109.13 50.7976V54.2673H284.974V50.7976C284.974 46.9641 282.223 43.8552 278.829 43.8552Z" fill="#D8D7E2" stroke="#D8D7E2" stroke-width="0.75" stroke-miterlimit="10"/>
<path d="M117.914 49.0619C117.914 50.2705 116.942 51.25 115.743 51.25C114.545 51.25 113.573 50.2705 113.573 49.0619C113.573 47.8533 114.545 46.8738 115.743 46.8738C116.942 46.8738 117.914 47.8533 117.914 49.0619Z" stroke="#C4C1D2" stroke-width="0.75" stroke-miterlimit="10"/>
<path d="M123.931 51.25C125.13 51.25 126.102 50.2703 126.102 49.0619C126.102 47.8534 125.13 46.8738 123.931 46.8738C122.732 46.8738 121.761 47.8534 121.761 49.0619C121.761 50.2703 122.732 51.25 123.931 51.25Z" stroke="#C4C1D2" stroke-width="0.75" stroke-miterlimit="10"/>
<path d="M134.289 49.0619C134.289 50.2705 133.318 51.25 132.118 51.25C130.92 51.25 129.948 50.2705 129.948 49.0619C129.948 47.8533 130.92 46.8738 132.118 46.8738C133.318 46.8738 134.289 47.8533 134.289 49.0619Z" stroke="#C4C1D2" stroke-width="0.75" stroke-miterlimit="10"/>
<path d="M123.318 65.0295H206.896C207.774 65.0295 208.486 64.3163 208.486 63.4364C208.486 62.5564 207.774 61.8433 206.896 61.8433H123.318C122.44 61.8433 121.728 62.5564 121.728 63.4364C121.728 64.3163 122.44 65.0295 123.318 65.0295Z" fill="#C4C1D2"/>
<path d="M125.626 69.5545H184.756C185.172 69.5545 185.508 69.2166 185.508 68.8006C185.508 68.3839 185.171 68.0466 184.756 68.0466H125.626C125.21 68.0466 124.873 68.3846 124.873 68.8006C124.873 69.2166 125.21 69.5545 125.626 69.5545Z" fill="#D8D7E2"/>
<path d="M125.626 73.2757H194.785C195.201 73.2757 195.538 72.9378 195.538 72.5218C195.538 72.1051 195.2 71.7678 194.785 71.7678H125.626C125.21 71.7678 124.873 72.1058 124.873 72.5218C124.873 72.9378 125.21 73.2757 125.626 73.2757Z" fill="#D8D7E2"/>
<path d="M125.626 76.9967H164.354C164.77 76.9967 165.107 76.6587 165.107 76.2427C165.107 75.826 164.769 75.4888 164.354 75.4888H125.626C125.21 75.4888 124.873 75.8267 124.873 76.2427C124.873 76.6594 125.21 76.9967 125.626 76.9967Z" fill="#D8D7E2"/>
<path d="M250.406 75.5354H233.705V158.428H250.406V75.5354Z" fill="#D8D7E2"/>
<path d="M204.893 116.024H188.193V158.427H204.893V116.024Z" fill="#D8D7E2"/>
<path d="M227.65 101.233H210.95V158.428H227.65V101.233Z" fill="#F2F2F4"/>
<path d="M159.381 90.446H142.68V158.428H159.381V90.446Z" fill="#D8D7E2"/>
<path d="M136.624 140.955H119.924V158.428H136.624V140.955Z" fill="#F2F2F4"/>
<path d="M182.137 126.392H165.437V158.428H182.137V126.392Z" fill="#F2F2F4"/>
<path d="M111.827 158.428H263.218" stroke="#C4C1D2" stroke-width="0.75" stroke-miterlimit="10" stroke-linecap="round"/>
<path d="M92.921 255.671C83.5938 251.197 69.1097 279.451 69.1097 279.451C69.1097 279.451 85.6271 245.148 76.6144 241.483C67.6017 237.817 57.5149 280.127 57.5149 280.127C57.5149 280.127 67.9927 233.882 60.5816 231.991C53.1705 230.099 50.1038 280.127 50.1038 280.127C50.1038 280.127 47.2923 229.785 37.8366 233.779C28.3808 237.773 42.0724 280.127 42.0724 280.127C42.0724 280.127 25.3142 234.394 19.6919 241.483C16.1936 245.893 26.5763 266.079 32.4309 277.757C26.6485 272.216 17.0598 263.759 14.7086 267.322C10.9751 272.978 31.7448 286.43 31.7448 286.43L40.5066 286.315L74.8928 286.141C74.8928 286.141 102.248 260.144 92.921 255.671Z" fill="#C4C1D2"/>
<path d="M58.8871 244.971L52.7538 285.929" stroke="#A3A1AF" stroke-width="0.75" stroke-miterlimit="10" stroke-linecap="round" stroke-linejoin="round"/>
<path d="M59.9091 285.929L70.4725 257.229" stroke="#A3A1AF" stroke-width="0.75" stroke-miterlimit="10" stroke-linecap="round" stroke-linejoin="round"/>
<path d="M69.1097 286.17C69.7057 285.703 82.569 269.344 82.569 269.344" stroke="#A3A1AF" stroke-width="0.75" stroke-miterlimit="10" stroke-linecap="round" stroke-linejoin="round"/>
<path d="M39.1237 242.261L46.3647 286.338" stroke="#A3A1AF" stroke-width="0.75" stroke-miterlimit="10" stroke-linecap="round" stroke-linejoin="round"/>
<path d="M29.242 260.696L40.5073 286.315" stroke="#A3A1AF" stroke-width="0.75" stroke-miterlimit="10" stroke-linecap="round" stroke-linejoin="round"/>
<path d="M22.6249 274.203L34.8743 286.43" stroke="#A3A1AF" stroke-width="0.75" stroke-miterlimit="10" stroke-linecap="round" stroke-linejoin="round"/>
<path d="M34.5648 290.98L39.5997 323.989H50.0188H57.2419H67.6611L72.6959 290.98H34.5648Z" fill="#D8D7E2"/>
<path d="M75.7732 292.302H31.4875C29.8809 292.302 28.5788 290.998 28.5788 289.388V288.86C28.5788 287.25 29.8809 285.946 31.4875 285.946H75.7725C77.3791 285.946 78.6812 287.25 78.6812 288.86V289.388C78.6819 290.998 77.3791 292.302 75.7732 292.302Z" fill="#D8D7E2"/>
<path d="M32.4316 292.302H74.1838" stroke="#A3A1AF" stroke-width="0.75" stroke-miterlimit="10" stroke-linecap="round" stroke-linejoin="round"/>
<path d="M225.642 121.037C225.642 121.037 208.696 101.711 206.488 98.0492C204.28 94.3868 208.718 86.349 214.43 87.7223C220.141 89.0956 230.035 99.8857 236.207 108.733L225.642 121.037Z" fill="white" stroke="#020046" stroke-width="0.75" stroke-miterlimit="10"/>
<path d="M203.627 95.4544C203.627 95.4544 201.419 94.3862 200.848 92.5174C200.277 90.6479 201.685 89.4142 204.846 90.9851C208.006 92.5553 203.627 95.4544 203.627 95.4544Z" fill="white" stroke="#020046" stroke-width="0.75" stroke-miterlimit="10" stroke-linecap="round" stroke-linejoin="round"/>
<path d="M201.97 90.9853C201.97 90.9853 200.561 89.8941 200.723 88.3261C200.886 86.758 202.371 85.6898 205.417 88.1693C208.463 90.6488 205.645 93.482 205.645 93.482L201.97 90.9853Z" fill="white" stroke="#020046" stroke-width="0.75" stroke-miterlimit="10" stroke-linecap="round" stroke-linejoin="round"/>
<path d="M211.718 80.7664H210.319H201.609L203.973 103.392H210.319H211.718H218.063L220.427 80.7664H211.718Z" fill="white" stroke="#020046" stroke-width="0.75" stroke-miterlimit="10" stroke-linecap="round" stroke-linejoin="round"/>
<path d="M203.311 97.0538H218.725L219.939 85.4453H202.098L203.311 97.0538Z" fill="#5C64FE" stroke="#020046" stroke-width="0.75" stroke-miterlimit="10" stroke-linecap="round" stroke-linejoin="round"/>
<path d="M218.634 78.501H203.574C202.995 78.501 202.525 78.0306 202.525 77.4499V75.4659C202.525 74.8852 202.995 74.4148 203.574 74.4148H218.634C219.214 74.4148 219.684 74.8852 219.684 75.4659V77.4499C219.684 78.0306 219.214 78.501 218.634 78.501Z" fill="#020046"/>
<path d="M221.283 81.1179H200.926C200.168 81.1179 199.554 80.5029 199.554 79.7439V78.3205C199.554 77.5616 200.168 76.9465 200.926 76.9465H221.283C222.04 76.9465 222.654 77.5616 222.654 78.3205V79.7439C222.654 80.5029 222.04 81.1179 221.283 81.1179Z" fill="#020046"/>
<path d="M222.024 104.117C216.199 99.6567 219.199 97.4765 216.37 92.8419C214.607 89.9535 216.084 87.8062 217.683 88.4356C219.283 89.065 225.642 95.9271 225.642 95.9271L222.024 104.117Z" fill="white"/>
<path d="M225.642 95.9271C225.642 95.9271 219.283 89.065 217.683 88.4356C216.084 87.8062 214.607 89.9535 216.37 92.8419C219.199 97.4765 216.198 99.6567 222.024 104.117" stroke="#020046" stroke-width="0.75" stroke-miterlimit="10" stroke-linecap="round" stroke-linejoin="round"/>
<path d="M280.642 95.6826L246.428 115.809L235.226 103.062L216.62 118.305C216.62 118.305 226.401 151.904 249.84 153.804C273.279 155.703 287.749 127.54 287.749 127.54L280.642 95.6826Z" fill="#F089D5"/>
<path d="M239.017 107.376L218.875 123.365" stroke="#020046" stroke-width="0.75" stroke-miterlimit="10" stroke-linecap="round" stroke-linejoin="round"/>
<path d="M253.721 111.228L246.484 115.407" stroke="#020046" stroke-width="0.75" stroke-miterlimit="10" stroke-linecap="round" stroke-linejoin="round"/>
<path d="M249.84 119.692L235.226 103.062L216.62 118.305C216.62 118.305 226.401 151.904 249.84 153.804C273.279 155.704 287.749 127.54 287.749 127.54" stroke="#020046" stroke-width="0.75" stroke-miterlimit="10" stroke-linecap="round" stroke-linejoin="round"/>
<path d="M283.358 119.307C283.358 119.307 281.83 106.467 282.466 102.741C283.103 99.0156 285.141 94.6767 288.389 94.4848C291.638 94.2936 299.79 94.5485 301.318 96.6543C302.847 98.76 305.84 101.631 304.757 109.161C303.675 116.69 299.025 144.235 299.025 144.235L295.697 152.296H289.794L283.358 119.307Z" fill="white"/>
<path d="M292.082 92.8101V141.526" stroke="#020046" stroke-width="0.75" stroke-miterlimit="10" stroke-linecap="round" stroke-linejoin="round"/>
<path d="M292.082 96.5269L286.706 104.741L282.312 95.1708C282.312 95.1708 286.531 90.7968 288.161 90.5054C289.79 90.2139 296.806 90.1323 296.806 90.1323C296.806 90.1323 300.571 93.0808 302.079 94.6739C303.586 96.267 297.254 105.317 297.254 105.317L292.082 96.5269Z" fill="white" stroke="#020046" stroke-width="0.75" stroke-miterlimit="10" stroke-linecap="round" stroke-linejoin="round"/>
<path d="M262.1 291.726L266.771 186.824L291.109 184.887L282.943 292.495L262.1 291.726Z" fill="white" stroke="#020046" stroke-width="0.75" stroke-miterlimit="10" stroke-linecap="round" stroke-linejoin="round"/>
<path d="M283.187 290.56L282.598 324.349L277.567 324.465L277.414 314.402L262.095 324.821L247.009 324.959C245.075 325.106 244.064 322.704 245.519 321.42L259.269 309.283L261.782 290.909L283.187 290.56Z" fill="#020046"/>
<path d="M261.411 294.983L283.115 294.662" stroke="white" stroke-width="0.75" stroke-miterlimit="10" stroke-linecap="round" stroke-linejoin="round"/>
<path d="M256.359 311.881L260.531 313.161" stroke="white" stroke-width="0.75" stroke-miterlimit="10" stroke-linecap="round" stroke-linejoin="round"/>
<path d="M253.659 314.402L258.072 316.029" stroke="white" stroke-width="0.75" stroke-miterlimit="10" stroke-linecap="round" stroke-linejoin="round"/>
<path d="M250.729 316.821L254.586 318.45" stroke="white" stroke-width="0.75" stroke-miterlimit="10" stroke-linecap="round" stroke-linejoin="round"/>
<path d="M291.091 291.409L295.762 186.508L320.1 184.571L311.933 292.177L291.091 291.409Z" fill="white" stroke="#020046" stroke-width="0.75" stroke-miterlimit="10" stroke-linecap="round" stroke-linejoin="round"/>
<path d="M312.177 290.244L311.269 324.68L306.568 324.819L306.409 314.434L290.696 324.514L275.999 324.643C274.065 324.79 273.055 322.388 274.51 321.104L288.259 308.967L290.773 290.593L312.177 290.244Z" fill="#020046"/>
<path d="M290.402 294.666L312.106 294.345" stroke="white" stroke-width="0.75" stroke-miterlimit="10" stroke-linecap="round" stroke-linejoin="round"/>
<path d="M285.35 311.564L289.521 312.845" stroke="white" stroke-width="0.75" stroke-miterlimit="10" stroke-linecap="round" stroke-linejoin="round"/>
<path d="M282.649 314.086L287.062 315.712" stroke="white" stroke-width="0.75" stroke-miterlimit="10" stroke-linecap="round" stroke-linejoin="round"/>
<path d="M279.72 316.504L283.576 318.133" stroke="white" stroke-width="0.75" stroke-miterlimit="10" stroke-linecap="round" stroke-linejoin="round"/>
<path d="M263.986 171.739L262.982 231.296L319.27 232.845L325.539 171.761L263.986 171.739Z" fill="#5C64FE"/>
<path d="M300.91 93.5212L325.022 107.957L325.689 142.713L330.131 199.81C330.131 199.81 324.896 203.02 315.408 201.867C312.349 201.495 309.129 201.173 305.134 199.488C288.745 192.572 291.545 183.408 291.545 183.408L291.585 131.551C291.585 131.551 303.898 103.492 300.91 93.5212Z" fill="#F089D5"/>
<path d="M291.137 147.975L291.585 186.885C291.585 186.885 293.156 196.897 309.379 200.739C325.603 204.582 330.131 199.81 330.131 199.81C330.131 199.81 324.546 133.451 325.153 130.027" stroke="#020046" stroke-width="0.75" stroke-miterlimit="10" stroke-linecap="round" stroke-linejoin="round"/>
<path d="M324.052 176.623C319.668 174.553 315.37 172.341 311.169 169.99" stroke="#020046" stroke-width="0.75" stroke-miterlimit="10" stroke-linecap="round" stroke-linejoin="round"/>
<path d="M308.052 101.901C312.651 110.556 313.436 114.373 313.436 114.373H305.211L309.249 124.428L291.586 147.975" stroke="#020046" stroke-width="0.75" stroke-miterlimit="10" stroke-linecap="round" stroke-linejoin="round"/>
<path d="M283.951 93.5212L261.852 107.957V142.15L257.169 199.81C257.169 199.81 261.461 203.081 270.141 201.939C272.95 201.569 276.407 201.178 280.079 199.488C295.099 192.572 292.533 183.408 292.533 183.408L292.497 131.551C292.497 131.551 281.213 103.492 283.951 93.5212Z" fill="#F089D5"/>
<path d="M289.88 149.168C289.88 149.975 289.272 150.629 288.521 150.629C287.771 150.629 287.162 149.975 287.162 149.168C287.162 148.361 287.77 147.708 288.521 147.708C289.272 147.708 289.88 148.362 289.88 149.168Z" stroke="#020046" stroke-width="0.75" stroke-miterlimit="10" stroke-linecap="round" stroke-linejoin="round"/>
<path d="M289.88 159.919C289.88 160.726 289.272 161.38 288.521 161.38C287.771 161.38 287.162 160.726 287.162 159.919C287.162 159.112 287.77 158.458 288.521 158.458C289.272 158.458 289.88 159.112 289.88 159.919Z" stroke="#020046" stroke-width="0.75" stroke-miterlimit="10" stroke-linecap="round" stroke-linejoin="round"/>
<path d="M289.88 170.669C289.88 171.476 289.272 172.13 288.521 172.13C287.771 172.13 287.162 171.476 287.162 170.669C287.162 169.862 287.77 169.208 288.521 169.208C289.272 169.208 289.88 169.862 289.88 170.669Z" stroke="#020046" stroke-width="0.75" stroke-miterlimit="10" stroke-linecap="round" stroke-linejoin="round"/>
<path d="M261.694 140.125C262.25 143.55 257.17 199.81 257.17 199.81C257.17 199.81 261.32 204.582 276.189 200.739C291.059 196.897 292.497 186.885 292.497 186.885L292.079 130.399" stroke="#020046" stroke-width="0.75" stroke-miterlimit="10" stroke-linecap="round" stroke-linejoin="round"/>
<path d="M262.452 176.623C266.47 174.553 270.409 172.341 274.259 169.99" stroke="#020046" stroke-width="0.75" stroke-miterlimit="10" stroke-linecap="round" stroke-linejoin="round"/>
<path d="M277.406 101.901C273.191 110.556 272.472 114.373 272.472 114.373H280.478L276.309 124.428L292.201 146.881" stroke="#020046" stroke-width="0.75" stroke-miterlimit="10" stroke-linecap="round" stroke-linejoin="round"/>
<path d="M300.91 93.5212C303.544 102.309 294.293 125.143 292.061 130.439C290.015 125.143 281.537 102.309 283.951 93.5212" stroke="#020046" stroke-width="0.75" stroke-miterlimit="10" stroke-linecap="round" stroke-linejoin="round"/>
<path d="M303.208 63.5666C301.135 61.0914 299.538 60.1291 296.839 58.6785L297.069 62.8334C291.514 62.4532 283.442 62.4718 280.353 65.3473C275.445 69.9139 274.249 84.607 277.899 87.307C280.453 89.1965 303.483 91.5651 307.865 85.2342C312.968 77.8594 305.266 65.706 303.208 63.5666Z" fill="white" stroke="#020046" stroke-width="0.75" stroke-miterlimit="10" stroke-linecap="round" stroke-linejoin="round"/>
<path d="M299.112 73.4301C298.202 73.4265 297.363 73.7151 296.676 74.2019C297.14 65.06 292.802 63.9775 285.121 64.4128C277.459 64.6183 278.761 74.3688 278.721 79.7753C278.851 85.6314 283.209 87.6076 288.071 87.0455C288.101 89.7184 287.26 94.7032 291.31 94.7211C293.689 94.9888 296.652 94.4361 296.671 91.4676C296.663 88.7102 296.733 83.729 296.692 80.9739C302.916 84.7458 306.417 73.9657 299.112 73.4301Z" fill="white" stroke="#020046" stroke-width="0.75" stroke-miterlimit="10" stroke-linecap="round" stroke-linejoin="round"/>
<path d="M299.247 59.9809C297.333 58.4565 294.886 57.6259 292.091 57.8751C272.721 51.7017 271.523 78.0992 289.561 68.1511C290.117 70.6936 292.58 73.4531 294.846 74.4032L296.343 77.2844L296.623 74.5586C297.69 73.3572 300.226 72.9899 301.747 74.3732C304.948 68.3552 299.247 59.9809 299.247 59.9809Z" fill="white"/>
<path d="M297.108 78.1342C297.108 78.1342 296.935 75.3132 299.824 75.6375" stroke="#020046" stroke-width="0.75" stroke-miterlimit="10" stroke-linecap="round" stroke-linejoin="round"/>
<path d="M299.742 60.3617C297.827 58.8374 294.886 57.6252 292.091 57.8744C272.721 51.701 271.523 78.0985 289.561 68.1504C290.117 70.6929 292.58 73.4524 294.846 74.4025L296.343 77.2837L296.623 74.5579C297.69 73.3564 300.226 72.9891 301.747 74.3724" stroke="#020046" stroke-width="0.75" stroke-miterlimit="10" stroke-linecap="round" stroke-linejoin="round"/>
<path d="M303.691 58.6777C307.735 58.6777 311.013 55.5416 311.013 51.6731C311.013 47.8045 307.735 44.6685 303.691 44.6685C299.647 44.6685 296.369 47.8045 296.369 51.6731C296.369 55.5416 299.647 58.6777 303.691 58.6777Z" stroke="#020046" stroke-width="0.75" stroke-miterlimit="10" stroke-linecap="round" stroke-linejoin="round"/>
<path d="M284.003 77.8371L281.826 76.4967L283.746 73.2576" stroke="#020046" stroke-width="0.75" stroke-miterlimit="10" stroke-linecap="round" stroke-linejoin="round"/>
<path d="M289.857 72.8059L287.749 71.9524" stroke="#020046" stroke-miterlimit="10" stroke-linecap="round" stroke-linejoin="round"/>
<path d="M280.847 72.0513L278.824 72.342" stroke="#020046" stroke-miterlimit="10" stroke-linecap="round" stroke-linejoin="round"/>
<path d="M288.882 74.651C288.882 75.1894 288.447 75.6255 287.909 75.6255C287.372 75.6255 286.937 75.1894 286.937 74.651C286.937 74.1126 287.372 73.6765 287.909 73.6765C288.446 73.6765 288.882 74.1126 288.882 74.651Z" fill="#020046"/>
<path d="M280.73 74.358C280.73 74.8192 280.357 75.1929 279.896 75.1929C279.436 75.1929 279.063 74.8192 279.063 74.358C279.063 73.8969 279.436 73.5232 279.896 73.5232C280.357 73.5232 280.73 73.8969 280.73 74.358Z" fill="#020046"/>
<path d="M281.656 80.8823C281.652 81.9298 282.496 82.7819 283.542 82.7862C284.587 82.7898 285.438 81.9442 285.442 80.8966L281.656 80.8823Z" stroke="#020046" stroke-width="0.75" stroke-miterlimit="10" stroke-linecap="round" stroke-linejoin="round"/>
<path d="M304.386 95.6018L320.214 128.992L320.299 129.085L310.047 130.355C310.047 130.355 308.737 144.016 310.997 158.458C312.215 166.235 328.692 178.432 339.713 161.47C350.734 144.507 339.684 104.702 304.386 95.6018Z" fill="#F089D5"/>
<path d="M309.707 136.959L332.028 133.701" stroke="#020046" stroke-width="0.75" stroke-miterlimit="10" stroke-linecap="round" stroke-linejoin="round"/>
<path d="M336.228 146.613L330.132 127.867L310.047 130.355C310.047 130.355 308.737 144.016 310.998 158.458C312.216 166.235 328.693 178.432 339.714 161.47C343.687 155.355 344.792 146.272 342.926 136.73" stroke="#020046" stroke-width="0.75" stroke-miterlimit="10" stroke-linecap="round" stroke-linejoin="round"/>
<path d="M307.731 104.706C307.731 104.706 305.599 102.207 304.091 102.714C302.583 103.221 302.653 105.851 305.273 108.547C307.893 111.244 307.731 104.706 307.731 104.706Z" fill="white" stroke="#020046" stroke-width="0.75" stroke-miterlimit="10" stroke-linecap="round" stroke-linejoin="round"/>
<path d="M314.017 99.8669L312.665 99.8125L304.255 99.4731L305.662 121.411L311.788 121.658L313.139 121.713L319.266 121.96L322.427 100.206L314.017 99.8669Z" fill="white" stroke="#020046" stroke-width="0.75" stroke-miterlimit="10" stroke-linecap="round" stroke-linejoin="round"/>
<path d="M305.267 115.267L320.151 115.867L321.773 104.705L304.546 104.01L305.267 115.267Z" fill="#5C64FE" stroke="#020046" stroke-width="0.75" stroke-miterlimit="10" stroke-linecap="round" stroke-linejoin="round"/>
<path d="M320.783 97.9489L306.241 97.3624C305.682 97.3403 305.246 96.867 305.268 96.3063L305.346 94.3903C305.368 93.8297 305.84 93.3937 306.4 93.4159L320.942 94.0023C321.501 94.0245 321.937 94.4977 321.914 95.0584L321.837 96.9744C321.814 97.535 321.343 97.971 320.783 97.9489Z" fill="#020046"/>
<path d="M323.239 100.579L303.583 99.7861C302.851 99.7568 302.282 99.1389 302.311 98.4057L302.366 97.031C302.395 96.2985 303.012 95.7278 303.744 95.7572L323.4 96.5498C324.131 96.5792 324.701 97.1971 324.672 97.9302L324.617 99.305C324.587 100.038 323.97 100.608 323.239 100.579Z" fill="#020046"/>
<path d="M323.254 112.644C323.254 112.644 323.601 105.772 322.279 104.299C320.957 102.826 315.239 101.388 313.99 102.51C312.74 103.631 313.576 105.758 315.758 106.131C317.939 106.502 318.087 106.778 318.087 106.778L318.666 110.906L323.254 112.644Z" fill="white" stroke="#020046" stroke-width="0.75" stroke-miterlimit="10" stroke-linecap="round" stroke-linejoin="round"/>
<path d="M306.826 111.937C307.059 111.195 307.454 110.446 309.83 110.553L309.807 110.487C307.728 109.339 308.145 107.743 308.991 106.994C310.313 105.823 315.313 107.036 317.788 107.615C320.262 108.194 323.521 111.733 323.521 111.733C323.521 111.733 325.359 113.155 325.705 123.96L325.576 128.433L315.589 129.594C315.589 129.594 315.241 126.919 314.514 125.612C313.787 124.305 313.521 122.102 313.491 121.108L313.458 121.013C309.725 119.695 306.994 117.683 307.376 116.114C307.6 115.197 307.994 114.702 309.312 114.783L309.29 114.773C307.098 113.779 306.521 112.91 306.826 111.937Z" fill="white"/>
<path d="M309.807 110.487C307.728 109.338 308.145 107.742 308.991 106.993C310.313 105.822 315.313 107.036 317.788 107.614C320.262 108.193 323.521 111.732 323.521 111.732C323.521 111.732 325.359 113.155 325.705 123.959L325.576 128.432L315.589 129.593C315.589 129.593 315.241 126.918 314.514 125.612C313.787 124.304 313.521 122.102 313.491 121.107" stroke="#020046" stroke-width="0.75" stroke-miterlimit="10" stroke-linecap="round" stroke-linejoin="round"/>
<path d="M319.775 113.71C319.775 113.71 317.617 111.866 312.66 110.921C307.702 109.975 307.131 110.964 306.826 111.937C306.522 112.909 307.098 113.778 309.29 114.771" stroke="#020046" stroke-width="0.75" stroke-miterlimit="10" stroke-linecap="round" stroke-linejoin="round"/>
<path d="M318.131 117.584C318.131 117.584 313.889 115.841 311.583 115.217C308.35 114.341 307.695 114.8 307.375 116.112C306.898 118.069 311.256 120.715 316.365 121.843" stroke="#020046" stroke-width="0.75" stroke-miterlimit="10" stroke-linecap="round" stroke-linejoin="round"/>
<path d="M407.318 295.216H413.939V252.148H407.318V295.216Z" fill="white" stroke="#A3A1AF" stroke-width="0.75" stroke-miterlimit="10"/>
<path d="M408.594 308.966H412.663C414.357 308.966 415.729 307.591 415.729 305.895V275.255C415.729 273.559 414.356 272.183 412.663 272.183H408.594C406.901 272.183 405.528 273.559 405.528 275.255V305.895C405.528 307.591 406.901 308.966 408.594 308.966Z" fill="#A3A1AF"/>
<path d="M384.501 305.886H386.126H435.131H438.984V310.313V315.294H435.131V310.313H386.126V315.294H382.272V310.313V305.886H384.501Z" fill="#A3A1AF"/>
<path d="M378.253 318.554C378.253 321.824 380.899 324.475 384.163 324.475C387.427 324.475 390.072 321.824 390.072 318.554C390.072 315.284 387.427 312.633 384.163 312.633C380.899 312.633 378.253 315.284 378.253 318.554Z" fill="white" stroke="#A3A1AF" stroke-width="0.75" stroke-miterlimit="10"/>
<path d="M381.899 318.554C381.899 319.807 382.913 320.823 384.163 320.823C385.414 320.823 386.428 319.807 386.428 318.554C386.428 317.301 385.414 316.285 384.163 316.285C382.913 316.285 381.899 317.301 381.899 318.554Z" fill="#A3A1AF"/>
<path d="M431.352 318.554C431.352 321.824 433.998 324.475 437.262 324.475C440.526 324.475 443.171 321.824 443.171 318.554C443.171 315.284 440.526 312.633 437.262 312.633C433.998 312.633 431.352 315.284 431.352 318.554Z" fill="white" stroke="#A3A1AF" stroke-width="0.75" stroke-miterlimit="10"/>
<path d="M434.997 318.554C434.997 319.807 436.011 320.823 437.262 320.823C438.512 320.823 439.526 319.807 439.526 318.554C439.526 317.301 438.512 316.285 437.262 316.285C436.011 316.285 434.997 317.301 434.997 318.554Z" fill="#A3A1AF"/>
<path d="M410.379 176.054L446.132 176.241C450.043 176.262 453.118 179.599 452.826 183.506L447.474 255.27C447.206 258.853 444.187 261.602 440.601 261.526L359.002 259.786C355.091 259.703 352.071 256.317 352.425 252.414C352.741 248.932 355.655 246.265 359.146 246.265L392.523 245.458C396.353 245.458 402.77 243.152 402.621 239.318L403.6 183.077C403.45 179.229 406.535 176.034 410.379 176.054Z" fill="white" stroke="#C4C1D2" stroke-width="0.75" stroke-miterlimit="10" stroke-linecap="round"/>
<path d="M442.655 183.907L434.448 244.56" stroke="#C4C1D2" stroke-width="0.75" stroke-miterlimit="10" stroke-linecap="round"/>
<path d="M400.201 244.102C400.297 243.99 423.764 244.102 423.764 244.102" stroke="#C4C1D2" stroke-width="0.75" stroke-miterlimit="10" stroke-linecap="round"/>
<path d="M319.468 279.989L316.99 305.073L334.418 306.802L337.01 281.729L319.468 279.989Z" fill="white" stroke="#020046" stroke-width="0.75" stroke-miterlimit="10" stroke-linecap="round" stroke-linejoin="round"/>
<path d="M321.881 280.229L319.402 305.314" stroke="#020046" stroke-width="0.75" stroke-miterlimit="10" stroke-linecap="round" stroke-linejoin="round"/>
<path d="M324.855 280.523L323.071 305.677" stroke="#020046" stroke-width="0.75" stroke-miterlimit="10" stroke-linecap="round" stroke-linejoin="round"/>
<path d="M327.865 280.822L326.157 305.745" stroke="#020046" stroke-width="0.75" stroke-miterlimit="10" stroke-linecap="round" stroke-linejoin="round"/>
<path d="M330.956 281.128L328.925 306.019" stroke="#020046" stroke-width="0.75" stroke-miterlimit="10" stroke-linecap="round" stroke-linejoin="round"/>
<path d="M334.161 281.446L332.103 307.005" stroke="#020046" stroke-width="0.75" stroke-miterlimit="10" stroke-linecap="round" stroke-linejoin="round"/>
<path d="M286.984 324.458L339.244 324.68L337.944 300.747L313.25 301.75L310.371 310.892L286.984 324.458Z" fill="white" stroke="#020046" stroke-width="0.75" stroke-miterlimit="10" stroke-linecap="round" stroke-linejoin="round"/>
<path d="M301.326 314.015L304.131 319.342" stroke="#020046" stroke-width="0.75" stroke-miterlimit="10" stroke-linecap="round" stroke-linejoin="round"/>
<path d="M305.471 312.043L308.274 317.37" stroke="#020046" stroke-width="0.75" stroke-miterlimit="10" stroke-linecap="round" stroke-linejoin="round"/>
<path d="M294.869 322.411H332.977" stroke="#020046" stroke-width="0.75" stroke-miterlimit="10" stroke-linecap="round" stroke-linejoin="round"/>
<path d="M349.348 280.679V305.885H366.861L366.975 280.679H349.348Z" fill="white" stroke="#020046" stroke-width="0.75" stroke-miterlimit="10" stroke-linecap="round" stroke-linejoin="round"/>
<path d="M351.772 280.679V305.886" stroke="#020046" stroke-width="0.75" stroke-miterlimit="10" stroke-linecap="round" stroke-linejoin="round"/>
<path d="M354.76 280.678L355.459 305.885" stroke="#020046" stroke-width="0.75" stroke-miterlimit="10" stroke-linecap="round" stroke-linejoin="round"/>
<path d="M357.786 280.679L358.537 305.648" stroke="#020046" stroke-width="0.75" stroke-miterlimit="10" stroke-linecap="round" stroke-linejoin="round"/>
<path d="M360.892 280.679L361.318 305.648" stroke="#020046" stroke-width="0.75" stroke-miterlimit="10" stroke-linecap="round" stroke-linejoin="round"/>
<path d="M364.112 280.679L364.578 306.317" stroke="#020046" stroke-width="0.75" stroke-miterlimit="10" stroke-linecap="round" stroke-linejoin="round"/>
<path d="M321.457 324.458L373.718 324.68L371.184 300.798L347.722 301.751L344.844 310.892L321.457 324.458Z" fill="white" stroke="#020046" stroke-width="0.75" stroke-miterlimit="10" stroke-linecap="round" stroke-linejoin="round"/>
<path d="M335.8 314.015L338.603 319.342" stroke="#020046" stroke-width="0.75" stroke-miterlimit="10" stroke-linecap="round" stroke-linejoin="round"/>
<path d="M339.943 312.043L342.748 317.37" stroke="#020046" stroke-width="0.75" stroke-miterlimit="10" stroke-linecap="round" stroke-linejoin="round"/>
<path d="M329.343 322.412H367.449" stroke="#020046" stroke-width="0.75" stroke-miterlimit="10" stroke-linecap="round" stroke-linejoin="round"/>
<path d="M353.826 287.258H310.988C310.988 287.258 315.062 217.752 332.103 216.892C352.663 215.854 362.534 216.892 362.534 216.892L353.826 287.258Z" fill="#020046"/>
<path d="M311.937 279.024L354.961 278.088" stroke="white" stroke-width="0.75" stroke-miterlimit="10" stroke-linecap="round" stroke-linejoin="round"/>
<path d="M420.368 214.338H391.108C355.157 211.772 340.893 220.455 340.893 233.935C340.893 243.051 342.736 291.19 342.736 291.19L374.672 290.247L372.606 246.543C372.606 246.543 395.634 249.659 409.963 245.55C424.293 241.441 420.368 214.338 420.368 214.338Z" fill="#16004D"/>
<path d="M416.684 240.53C415.088 242.885 412.912 244.704 409.964 245.55C395.634 249.658 372.607 246.543 372.607 246.543" stroke="#6FBBEF" stroke-miterlimit="10" stroke-linecap="round"/>
<path d="M374.672 290.247L342.736 291.19C342.736 291.19 340.893 243.05 340.893 233.935C340.893 220.455 355.157 211.772 391.108 214.338" stroke="#6FBBEF" stroke-miterlimit="10" stroke-linecap="round"/>
<path d="M372.323 240.529L373.062 256.169" stroke="#6FBBEF" stroke-miterlimit="10" stroke-linecap="round"/>
<path d="M392.676 212.874L421.187 213.043C421.187 213.043 424.65 240.818 413.939 245.458C403.228 250.098 372.607 246.543 372.607 246.543" fill="#020046"/>
<path d="M372.607 246.543L376.375 290.575L339.277 291.19C339.277 291.19 334.776 238.125 338.501 228.172C342.227 218.22 346.862 211.061 392.676 212.874" fill="#020046"/>
<path d="M338.623 282.612L375.753 281.917" stroke="white" stroke-width="0.75" stroke-miterlimit="10" stroke-linecap="round" stroke-linejoin="round"/>
<path d="M376.375 290.575L372.607 246.543L372.323 240.529" stroke="white" stroke-width="0.75" stroke-miterlimit="10" stroke-linecap="round" stroke-linejoin="round"/>
<path d="M392.676 212.874C346.861 211.06 342.226 218.219 338.5 228.172C334.775 238.125 339.277 291.19 339.277 291.19" stroke="white" stroke-width="0.75" stroke-miterlimit="10" stroke-linecap="round" stroke-linejoin="round"/>
<path d="M338.105 154.928C343.086 159.459 356.238 173.665 356.238 173.665L367.179 163.089C367.179 163.089 352.474 144.852 350.032 142.711C347.85 140.798 346.452 142.175 346.838 144.548C346.177 144.005 341.871 140.465 339.56 139.854C337.125 139.21 336.455 140.966 336.891 141.497L337.309 141.639L337.246 141.653C336.997 141.537 336.764 141.442 336.56 141.375C334.21 140.605 333.344 142.405 334.494 143.331L334.604 143.368C334.281 143.344 334.005 143.392 333.799 143.539C332.749 144.288 333.02 145.527 333.904 146.099C332.911 145.773 332.364 146.003 332.033 146.476C331.277 147.559 331.73 149.132 338.105 154.928ZM334.252 146.208L334.24 146.226C334.128 146.18 334.019 146.138 333.917 146.104L334.252 146.208Z" fill="white"/>
<path d="M340.448 150.788C334.677 145.587 332.883 145.463 332.034 146.476C330.817 147.928 333.336 150.174 338.105 154.928C342.874 159.683 356.238 173.665 356.238 173.665L367.179 163.089C367.179 163.089 352.474 144.852 350.032 142.71C347.59 140.57 346.177 142.918 347.09 145.717C348.003 148.515 348.548 149.78 348.548 149.78C348.548 149.78 347.66 153.226 350.274 156.438" stroke="#020046" stroke-width="0.75" stroke-miterlimit="10" stroke-linecap="round" stroke-linejoin="round"/>
<path d="M343.617 149.132C343.617 149.132 335.738 142.159 333.8 143.54C332.749 144.289 333.022 145.529 333.906 146.1" stroke="#020046" stroke-width="0.75" stroke-miterlimit="10" stroke-linecap="round" stroke-linejoin="round"/>
<path d="M345.13 146.845C345.13 146.845 339.016 142.179 336.561 141.375C334.212 140.605 333.345 142.405 334.495 143.332" stroke="#020046" stroke-width="0.75" stroke-miterlimit="10" stroke-linecap="round" stroke-linejoin="round"/>
<path d="M346.727 144.457C346.727 144.457 342.057 140.356 339.56 139.695C337.126 139.052 336.456 140.966 336.892 141.497" stroke="#020046" stroke-width="0.75" stroke-miterlimit="10" stroke-linecap="round" stroke-linejoin="round"/>
<path d="M398.237 179.945L365.65 155.118L348.435 171.255L372.521 207.436L398.237 179.945Z" fill="#5C64FE"/>
<path d="M398.237 179.945L365.65 155.118L348.435 171.255L372.521 207.436L398.237 179.945Z" stroke="#020046" stroke-width="0.75" stroke-miterlimit="10" stroke-linecap="round" stroke-linejoin="round"/>
<mask id="mask0_265_274" style="mask-type:luminance" maskUnits="userSpaceOnUse" x="351" y="158" width="48" height="50">
<path d="M351.27 175.513L372.521 207.436L398.237 179.945L369.995 158.428L351.27 175.513Z" fill="white"/>
</mask>
<g mask="url(#mask0_265_274)">
<path d="M380.941 165.117C380.158 164.057 378.995 163.386 377.706 163.262C375.199 163.021 372.987 164.929 372.775 167.514C372.564 170.098 374.432 172.397 376.939 172.638C378.361 172.774 379.744 172.221 380.698 171.149C381.48 172.209 382.643 172.88 383.932 173.004C386.44 173.244 388.652 171.337 388.863 168.752C389.074 166.167 387.206 163.868 384.699 163.627C383.278 163.491 381.894 164.045 380.941 165.117Z" stroke="white" stroke-width="0.75" stroke-miterlimit="10" stroke-linecap="round" stroke-linejoin="round"/>
<path d="M362.655 174.76C361.873 173.7 360.709 173.029 359.421 172.905C356.913 172.665 354.701 174.571 354.49 177.157C354.278 179.742 356.147 182.041 358.654 182.281C360.075 182.418 361.459 181.864 362.412 180.792C363.195 181.852 364.358 182.523 365.647 182.647C368.155 182.888 370.367 180.98 370.577 178.396C370.789 175.811 368.921 173.512 366.413 173.27C364.992 173.134 363.609 173.688 362.655 174.76Z" stroke="white" stroke-width="0.75" stroke-miterlimit="10" stroke-linecap="round" stroke-linejoin="round"/>
<path d="M357.945 161.173C357.162 160.112 355.999 159.441 354.71 159.318C352.203 159.077 349.991 160.984 349.779 163.569C349.568 166.154 351.437 168.453 353.944 168.694C355.365 168.83 356.749 168.276 357.702 167.204C358.485 168.265 359.647 168.936 360.937 169.059C363.444 169.3 365.656 167.393 365.867 164.808C366.079 162.223 364.21 159.924 361.703 159.683C360.282 159.547 358.898 160.1 357.945 161.173Z" stroke="white" stroke-width="0.75" stroke-miterlimit="10" stroke-linecap="round" stroke-linejoin="round"/>
</g>
<path d="M366.906 161.286L353.28 173.744" stroke="#020046" stroke-width="0.75" stroke-miterlimit="10" stroke-linecap="round" stroke-linejoin="round"/>
<path d="M375.391 215.576C375.391 215.576 378.077 176.566 391.028 160.25C399.193 149.964 405.828 147.503 411.419 147.932C411.419 147.932 426.239 167.145 429.034 192.391C431.827 217.636 430.896 224.704 406.1 223.911C381.303 223.118 375.391 215.576 375.391 215.576Z" fill="#5C64FE"/>
<mask id="mask1_265_274" style="mask-type:luminance" maskUnits="userSpaceOnUse" x="378" y="153" width="53" height="52">
<path d="M430.065 204.438C429.925 200.982 429.543 196.992 429.034 192.391C427.49 178.442 422.276 166.342 417.917 158.3L397.439 153.428C395.411 155.177 393.278 157.415 391.028 160.25C384.544 168.419 380.633 182.277 378.344 194.079L430.065 204.438Z" fill="white"/>
</mask>
<g mask="url(#mask1_265_274)">
<path d="M393.499 159.078C392.716 158.018 391.554 157.347 390.264 157.223C387.757 156.983 385.545 158.889 385.334 161.475C385.122 164.059 386.991 166.359 389.498 166.599C390.92 166.736 392.303 166.182 393.257 165.11C394.039 166.17 395.202 166.841 396.491 166.965C398.999 167.206 401.211 165.298 401.422 162.713C401.633 160.129 399.765 157.83 397.257 157.589C395.836 157.452 394.452 158.006 393.499 159.078Z" stroke="white" stroke-width="0.75" stroke-miterlimit="10" stroke-linecap="round" stroke-linejoin="round"/>
<path d="M412.165 173.685C411.382 172.625 410.219 171.954 408.93 171.83C406.422 171.59 404.21 173.496 404 176.082C403.788 178.667 405.656 180.966 408.164 181.206C409.585 181.343 410.969 180.79 411.922 179.717C412.705 180.777 413.868 181.448 415.157 181.572C417.665 181.813 419.877 179.905 420.088 177.321C420.299 174.736 418.431 172.437 415.923 172.196C414.502 172.06 413.118 172.613 412.165 173.685Z" stroke="white" stroke-width="0.75" stroke-miterlimit="10" stroke-linecap="round" stroke-linejoin="round"/>
<path d="M384.506 180.891C383.723 179.831 382.56 179.16 381.271 179.036C378.763 178.796 376.551 180.703 376.341 183.288C376.129 185.872 377.997 188.172 380.505 188.412C381.926 188.548 383.31 187.995 384.263 186.923C385.046 187.983 386.209 188.654 387.498 188.778C390.006 189.019 392.218 187.111 392.428 184.526C392.64 181.942 390.772 179.643 388.264 179.401C386.843 179.265 385.459 179.819 384.506 180.891Z" stroke="white" stroke-width="0.75" stroke-miterlimit="10" stroke-linecap="round" stroke-linejoin="round"/>
<path d="M405.093 188.201C404.311 187.14 403.148 186.47 401.858 186.346C399.351 186.105 397.139 188.012 396.928 190.597C396.716 193.182 398.585 195.481 401.092 195.722C402.514 195.858 403.897 195.305 404.851 194.232C405.633 195.293 406.796 195.964 408.085 196.088C410.593 196.328 412.805 194.421 413.016 191.836C413.227 189.251 411.359 186.952 408.851 186.712C407.43 186.575 406.047 187.128 405.093 188.201Z" stroke="white" stroke-width="0.75" stroke-miterlimit="10" stroke-linecap="round" stroke-linejoin="round"/>
</g>
<path d="M375.391 215.576C375.391 215.576 378.077 176.566 391.028 160.25C399.193 149.964 405.828 147.503 411.419 147.932C411.419 147.932 426.239 167.145 429.034 192.391C431.827 217.636 430.896 224.704 406.1 223.911C381.303 223.118 375.391 215.576 375.391 215.576Z" stroke="#020046" stroke-width="0.75" stroke-miterlimit="10" stroke-linecap="round" stroke-linejoin="round"/>
<path d="M373.54 208.356C373.54 208.356 382.506 197.615 383.36 196.681C384.213 195.748 400.9 192.391 400.9 192.391L399.826 210.075L373.54 208.356Z" fill="white" stroke="#020046" stroke-width="0.75" stroke-miterlimit="10" stroke-linecap="round" stroke-linejoin="round"/>
<path d="M409.576 147.9C413.616 147.726 417.127 149.201 420.271 150.675C427.429 154.028 446.949 166.063 454.063 182.297C461.177 198.53 454.761 209.765 432.565 212.593C410.368 215.42 397.635 210.289 397.635 210.289L398.902 189.989L425.584 188.473L419.181 169.7L409.576 147.9Z" fill="#5C64FE"/>
<mask id="mask2_265_274" style="mask-type:luminance" maskUnits="userSpaceOnUse" x="397" y="151" width="60" height="63">
<path d="M454.063 182.296C447.639 167.636 431.098 156.402 422.68 151.892C419.688 153.523 411.611 156.763 409.225 158.036L418.413 168.836L425.584 188.473L398.902 189.989L397.635 210.289C397.635 210.289 410.368 215.42 432.565 212.593C454.762 209.764 461.177 198.53 454.063 182.296Z" fill="white"/>
</mask>
<g mask="url(#mask2_265_274)">
<path d="M423.074 158.694C422.291 157.634 421.129 156.963 419.839 156.839C417.332 156.599 415.12 158.506 414.908 161.091C414.697 163.675 416.565 165.975 419.073 166.215C420.494 166.352 421.878 165.798 422.831 164.726C423.614 165.786 424.777 166.457 426.066 166.581C428.573 166.822 430.785 164.914 430.996 162.329C431.208 159.745 429.34 157.446 426.832 157.205C425.411 157.068 424.027 157.622 423.074 158.694Z" stroke="white" stroke-width="0.75" stroke-miterlimit="10" stroke-linecap="round" stroke-linejoin="round"/>
<path d="M444.906 168.146C444.124 167.086 442.96 166.415 441.672 166.291C439.164 166.05 436.952 167.958 436.741 170.543C436.529 173.127 438.398 175.426 440.905 175.667C442.326 175.804 443.71 175.25 444.663 174.178C445.446 175.238 446.609 175.909 447.898 176.033C450.406 176.273 452.618 174.366 452.828 171.781C453.04 169.197 451.172 166.897 448.664 166.656C447.243 166.52 445.86 167.074 444.906 168.146Z" stroke="white" stroke-width="0.75" stroke-miterlimit="10" stroke-linecap="round" stroke-linejoin="round"/>
<path d="M431.134 183.423C430.351 182.363 429.188 181.692 427.899 181.568C425.392 181.328 423.18 183.235 422.968 185.82C422.757 188.405 424.626 190.704 427.133 190.944C428.554 191.08 429.938 190.528 430.891 189.455C431.674 190.515 432.836 191.186 434.126 191.31C436.633 191.551 438.845 189.643 439.056 187.059C439.268 184.474 437.4 182.175 434.892 181.934C433.471 181.797 432.087 182.351 431.134 183.423Z" stroke="white" stroke-width="0.75" stroke-miterlimit="10" stroke-linecap="round" stroke-linejoin="round"/>
<path d="M457.974 194.267C457.192 193.206 456.028 192.535 454.74 192.411C452.232 192.171 450.02 194.078 449.808 196.663C449.597 199.248 451.466 201.547 453.973 201.787C455.394 201.923 456.778 201.371 457.731 200.298C458.514 201.358 459.677 202.029 460.966 202.153C463.473 202.394 465.685 200.486 465.896 197.902C466.108 195.317 464.24 193.018 461.732 192.777C460.311 192.64 458.927 193.193 457.974 194.267Z" stroke="white" stroke-width="0.75" stroke-miterlimit="10" stroke-linecap="round" stroke-linejoin="round"/>
<path d="M415.464 196.179C414.681 195.119 413.518 194.448 412.229 194.324C409.721 194.083 407.509 195.991 407.298 198.576C407.087 201.16 408.955 203.459 411.463 203.7C412.884 203.837 414.268 203.283 415.221 202.211C416.004 203.271 417.167 203.942 418.456 204.066C420.964 204.306 423.176 202.399 423.386 199.814C423.598 197.229 421.73 194.93 419.222 194.69C417.801 194.553 416.417 195.107 415.464 196.179Z" stroke="white" stroke-width="0.75" stroke-miterlimit="10" stroke-linecap="round" stroke-linejoin="round"/>
<path d="M433.45 211.95C432.668 210.889 431.505 210.218 430.216 210.094C427.708 209.854 425.496 211.761 425.285 214.346C425.074 216.931 426.942 219.23 429.45 219.47C430.871 219.607 432.255 219.053 433.208 217.981C433.991 219.042 435.153 219.712 436.443 219.836C438.95 220.077 441.162 218.17 441.373 215.585C441.585 213 439.716 210.701 437.209 210.46C435.787 210.324 434.404 210.877 433.45 211.95Z" stroke="white" stroke-width="0.75" stroke-miterlimit="10" stroke-linecap="round" stroke-linejoin="round"/>
</g>
<path d="M409.576 147.9C413.616 147.726 417.127 149.201 420.271 150.675C427.429 154.028 447.236 166.74 454.35 182.974C461.464 199.207 454.762 209.765 432.565 212.593C410.368 215.42 397.635 210.289 397.635 210.289L398.902 189.989L425.584 188.473L422.126 178.37" stroke="#020046" stroke-width="0.75" stroke-miterlimit="10" stroke-linecap="round" stroke-linejoin="round"/>
<path d="M404.144 191.217L402.995 210.521" stroke="#020046" stroke-width="0.75" stroke-miterlimit="10" stroke-linecap="round" stroke-linejoin="round"/>
<path d="M423.863 188.57L431.013 188.525" stroke="#020046" stroke-width="0.75" stroke-miterlimit="10" stroke-linecap="round" stroke-linejoin="round"/>
<path d="M414.275 113.118C418.815 115.379 421.489 120.764 420.922 126.487C420.14 134.383 413.277 140.25 413.277 140.25L412.797 127.113L412.042 126.711L414.275 113.118Z" fill="#020046"/>
<path d="M416.049 129.049C415.056 129.046 414.138 129.361 413.387 129.893L413.397 127.148C413.413 122.798 410.305 119.226 406.492 119.213L400.755 119.191C396.941 119.177 393.807 122.725 393.791 127.076L393.758 135.985C393.742 140.335 396.85 143.907 400.664 143.92L403.981 143.933L403.963 148.732C403.956 150.7 405.557 152.316 407.522 152.323L409.798 152.332C411.762 152.339 413.375 150.735 413.383 148.767L413.403 143.343L413.403 143.041L413.423 137.617C413.423 137.509 413.414 137.402 413.405 137.295C414.144 137.814 415.043 138.122 416.016 138.126C418.538 138.135 420.591 136.111 420.6 133.604C420.609 131.098 418.571 129.058 416.049 129.049Z" fill="white" stroke="#020046" stroke-width="0.75" stroke-miterlimit="10" stroke-linecap="round" stroke-linejoin="round"/>
<path d="M413.859 134.192C413.859 134.192 413.67 131.108 416.828 131.462" stroke="#020046" stroke-width="0.75" stroke-miterlimit="10" stroke-linecap="round" stroke-linejoin="round"/>
<path d="M416.197 114.346C414.104 112.68 411.429 111.771 408.373 112.044C393.757 106.898 388.315 120.814 393.505 124.578C395.033 125.687 402.633 126.248 405.608 123.278C405.806 123.883 406.103 124.647 406.556 125.62C407.536 127.728 409.689 129.217 411.385 130.112L410.157 135.908C410.157 135.908 403.071 134.186 398.717 134.219C394.362 134.252 393.757 135.984 393.757 135.984C393.757 135.984 393.794 141.956 398.292 143.431C402.106 144.682 403.98 143.933 403.98 143.933C403.98 143.933 408.796 142.687 411.109 140.152C412.125 139.04 412.581 138.356 413.125 137.27L413.328 130.282C413.498 130.151 413.62 130.061 413.776 129.953C413.776 129.953 414.836 129.048 416.002 129.049C417.084 129.05 418.136 129.465 418.93 130.08C420.209 127.612 416.197 114.346 416.197 114.346Z" fill="#020046"/>
<path d="M403.694 151.544C403.694 151.544 404.78 153.431 408.894 152.876C413.007 152.321 408.638 148.63 406.632 148.065C404.625 147.5 402.103 149.678 403.694 151.544Z" fill="white" stroke="#020046" stroke-width="0.75" stroke-miterlimit="10" stroke-linecap="round" stroke-linejoin="round"/>
<path d="M399.583 153.989C399.583 153.989 402.537 156.38 406.843 156.638C409.46 156.795 412.646 156.341 415.77 153.571" stroke="#020046" stroke-width="0.75" stroke-miterlimit="10" stroke-linecap="round" stroke-linejoin="round"/>
<path d="M413.398 144.155C413.398 144.155 416.409 146.474 418.414 149.835C418.414 149.835 415.396 153.721 408.332 155.82L406.631 148.065L404.447 155.118C404.447 155.118 401.714 154.368 400.035 151.391C400.035 151.391 401.152 148.661 403.862 145.849C403.862 145.849 404.862 147.563 406.569 148.028C408.278 148.492 412.606 145.961 413.398 144.155Z" fill="white" stroke="#020046" stroke-width="0.75" stroke-miterlimit="10" stroke-linecap="round" stroke-linejoin="round"/>
<path d="M399.925 133.528L397.635 132.119L399.654 128.713" stroke="#020046" stroke-width="0.75" stroke-miterlimit="10" stroke-linecap="round" stroke-linejoin="round"/>
<path d="M406.08 128.238L403.864 127.34" stroke="#020046" stroke-miterlimit="10" stroke-linecap="round" stroke-linejoin="round"/>
<path d="M396.606 127.444L394.479 127.75" stroke="#020046" stroke-miterlimit="10" stroke-linecap="round" stroke-linejoin="round"/>
<path d="M405.054 130.178C405.054 130.744 404.596 131.203 404.032 131.203C403.466 131.203 403.009 130.744 403.009 130.178C403.009 129.612 403.467 129.153 404.032 129.153C404.596 129.153 405.054 129.612 405.054 130.178Z" fill="#020046"/>
<path d="M396.483 129.87C396.483 130.355 396.09 130.748 395.607 130.748C395.123 130.748 394.73 130.355 394.73 129.87C394.73 129.386 395.123 128.993 395.607 128.993C396.09 128.993 396.483 129.386 396.483 129.87Z" fill="#020046"/>
<path d="M397.457 136.73C397.453 137.831 398.341 138.727 399.44 138.731C400.539 138.735 401.434 137.845 401.438 136.744L397.457 136.73Z" fill="white"/>
<path d="M195.256 175.403H226.979C229.451 175.403 231.269 177.724 230.681 180.129L223.469 209.636C223.052 211.345 221.523 212.547 219.767 212.547H182.533C179.792 212.547 177.948 209.735 179.034 207.214L191.757 177.707C192.36 176.309 193.735 175.403 195.256 175.403Z" fill="#020046"/>
<path d="M195.862 177.681H225.168C226.842 177.681 228.072 179.253 227.674 180.881L220.974 208.297C220.691 209.454 219.656 210.268 218.467 210.268H184.041C182.186 210.268 180.936 208.364 181.673 206.658L193.493 179.241C193.901 178.295 194.832 177.681 195.862 177.681Z" fill="#5C64FE"/>
<path d="M185.307 210.268H213.397C214.94 210.268 216.29 209.232 216.692 207.74L223.286 183.287C223.872 181.114 222.238 178.977 219.992 178.977H195.85C194.489 178.977 193.257 179.788 192.717 181.041L182.174 205.493C181.202 207.75 182.853 210.268 185.307 210.268Z" fill="white"/>
<path d="M185.729 181.514H220.972L221.114 180.989H186.009L185.729 181.514Z" fill="#020046"/>
<path d="M220.303 183.995H184.72V184.52H220.162L220.303 183.995Z" fill="#020046"/>
<path d="M219.492 187H184.72V187.525H219.35L219.492 187Z" fill="#020046"/>
<path d="M218.682 190.006H183.664V190.531H218.54L218.682 190.006Z" fill="#020046"/>
<path d="M217.871 193.013H182.451V193.537H217.73L217.871 193.013Z" fill="#020046"/>
<path d="M174.494 202.554H198.765V202.029H174.774L174.494 202.554Z" fill="#020046"/>
<path d="M204.494 196.018H177.984L177.704 196.543H204.353L204.494 196.018Z" fill="#020046"/>
<path d="M203.683 199.024H176.379L176.099 199.549H203.541L203.683 199.024Z" fill="#020046"/>
<path d="M46.9286 67.3535H80.6659C84.976 67.3535 88.4707 70.854 88.4707 75.1729V88.9717V93.7975V108.916L80.5358 101.617H46.9286C42.6184 101.617 39.1237 98.1165 39.1237 93.7975V75.1729C39.1237 70.854 42.6177 67.3535 46.9286 67.3535Z" fill="white" stroke="#C4C1D2" stroke-width="0.75" stroke-miterlimit="10" stroke-linecap="round" stroke-linejoin="round"/>
<path d="M77.3713 79.968H53.1548V94.4849H77.3713V79.968Z" fill="#D8D7E2"/>
<path d="M74.8671 74.2551H45.2306V92.022H74.8671V74.2551Z" fill="white" stroke="#C4C1D2" stroke-width="0.75" stroke-miterlimit="10" stroke-linecap="round" stroke-linejoin="round"/>
<path d="M45.2306 74.2551L59.9134 86.9856L74.8671 74.2551" stroke="#C4C1D2" stroke-width="0.75" stroke-miterlimit="10" stroke-linecap="round" stroke-linejoin="round"/>
<path d="M45.2306 92.0213L54.6606 82.4312" stroke="#C4C1D2" stroke-width="0.75" stroke-miterlimit="10" stroke-linecap="round" stroke-linejoin="round"/>
<path d="M65.2627 82.4312L74.8671 92.0213" stroke="#C4C1D2" stroke-width="0.75" stroke-miterlimit="10" stroke-linecap="round" stroke-linejoin="round"/>
<path d="M96.0898 218.999H88.5836V324.68H96.0898V218.999Z" fill="white" stroke="#020046" stroke-width="0.75" stroke-miterlimit="10" stroke-linecap="round" stroke-linejoin="round"/>
<path d="M453.545 218.999H446.039V324.68H453.545V218.999Z" fill="white" stroke="#020046" stroke-width="0.75" stroke-miterlimit="10" stroke-linecap="round" stroke-linejoin="round"/>
<path d="M471.839 220.91H73.4234C71.2087 220.91 69.4127 219.111 69.4127 216.892C69.4127 214.673 71.208 212.874 73.4234 212.874H471.839C474.054 212.874 475.85 214.673 475.85 216.892C475.85 219.111 474.054 220.91 471.839 220.91Z" fill="white" stroke="#020046" stroke-width="0.75" stroke-miterlimit="10" stroke-linecap="round" stroke-linejoin="round"/>
<path d="M220.038 155.408L220.037 155.409C220.365 153.32 219.79 152.983 219.79 152.983L219.401 153.495C219.634 152.695 219.649 152.076 219.3 151.817C217.996 150.848 215.918 152.031 212.716 155.472C209.254 159.194 202.045 161.77 202.045 161.77C202.96 159.282 204.155 152.321 202.106 152.205C198.995 152.031 197.928 159.048 195.911 161.47C193.893 163.893 184.721 174.068 184.721 174.068L198.725 179.001C198.725 179.001 205.089 170.711 211.608 167.783C218.127 164.856 220.358 159.875 220.533 158.063C220.707 156.25 220.038 155.408 220.038 155.408Z" fill="white"/>
<path d="M219.79 152.982C219.79 152.982 220.455 153.368 219.95 155.898C219.446 158.427 215.817 163.141 215.817 163.141" stroke="#020046" stroke-width="0.75" stroke-miterlimit="10" stroke-linecap="round" stroke-linejoin="round"/>
<path d="M220.038 155.408C220.038 155.408 220.707 156.251 220.533 158.062C220.358 159.874 218.127 164.855 211.607 167.783C205.088 170.71 198.724 179 198.724 179L184.72 174.067C184.72 174.067 193.893 163.892 195.91 161.47C197.928 159.047 198.995 152.03 202.106 152.205C204.155 152.32 202.959 159.28 202.044 161.769C202.044 161.769 207.889 159.806 211.568 156.521C215.359 153.135 217.738 150.106 219.299 151.817C220.53 153.166 215.949 160.238 214.476 161.47" stroke="#020046" stroke-width="0.75" stroke-miterlimit="10" stroke-linecap="round" stroke-linejoin="round"/>
<path d="M139.848 134.895L144.206 139.061L141.727 141.464L139.848 134.895Z" fill="white" stroke="#020046" stroke-width="0.75" stroke-miterlimit="10" stroke-linecap="round" stroke-linejoin="round"/>
<path d="M123.189 146.24C123.244 146.487 123.311 146.729 123.384 146.966C123.381 147.239 123.404 147.516 123.466 147.793L123.189 146.24L134.149 152.043L134.139 151.994L137.41 151.268C141.171 150.433 143.472 146.24 142.524 141.949L140.581 133.163C139.633 128.873 135.78 126.046 132.019 126.88L126.362 128.135C122.6 128.969 120.299 133.162 121.247 137.452L123.189 146.24Z" fill="white"/>
<path d="M142.524 141.95L140.582 133.164C139.634 128.874 135.78 126.046 132.019 126.881L126.362 128.136C122.6 128.97 120.299 133.163 121.247 137.454L123.189 146.24C123.244 146.488 123.311 146.729 123.384 146.967C123.381 147.239 123.404 147.516 123.466 147.793L124.036 148.059L124.392 159.908H135.972L135.43 151.708L137.411 151.268C141.17 150.433 143.472 146.24 142.524 141.95Z" fill="white" stroke="#020046" stroke-width="0.75" stroke-miterlimit="10" stroke-linecap="round" stroke-linejoin="round"/>
<path d="M123.693 142.816L124.634 139.765C124.634 139.765 135.694 138.012 140.604 126.259C142.429 121.891 139.339 117.724 134.313 117.686C127.955 117.638 122.284 121.228 122.284 121.228C122.284 121.228 107.557 127.999 112.313 142.928C112.313 142.928 114.838 151.663 124.448 152.043" fill="#020046"/>
<path d="M117.76 145.178C118.059 147.514 120.207 149.163 122.558 148.862C124.909 148.56 126.573 146.421 126.274 144.085C125.976 141.749 123.827 140.1 121.476 140.401C119.125 140.703 117.461 142.841 117.76 145.178Z" fill="white"/>
<path d="M124.391 144.894C124.391 144.894 124.21 141.997 121.306 142.694" stroke="#020046" stroke-width="0.75" stroke-miterlimit="10" stroke-linecap="round" stroke-linejoin="round"/>
<path d="M100.243 125.826C106.325 120.355 103.527 106.904 95.1614 104.911C85.0796 102.51 77.9358 115.22 70.331 103.696C62.7256 92.1709 52.543 94.7807 49.1033 105.172C45.6636 115.563 56.7331 126.306 67.8697 125.574C79.0057 124.842 82.1066 117.477 86.1652 123.082C90.2102 128.669 96.4671 129.223 100.243 125.826Z" stroke="#020046" stroke-width="0.75" stroke-miterlimit="10" stroke-linecap="round" stroke-linejoin="round"/>
<path d="M112.023 128.293C112.023 129.894 110.728 131.192 109.13 131.192C107.532 131.192 106.237 129.893 106.237 128.293C106.237 126.692 107.533 125.395 109.13 125.395C110.728 125.394 112.023 126.692 112.023 128.293Z" stroke="#020046" stroke-width="0.75" stroke-miterlimit="10" stroke-linecap="round" stroke-linejoin="round"/>
<path d="M118.606 162.713L124.208 156.053L138.429 156.533L143.595 162.328C143.595 162.328 133.951 162.713 118.606 162.713Z" fill="#020046"/>
<path d="M149.958 202.877C163.286 210.488 175.672 214.559 180.31 211.595C189.564 205.679 204.205 174.925 204.205 174.925L189.219 165.723L172.161 182.536C172.161 182.536 154.62 166.069 145.781 162.471C141.946 160.911 120.736 161.641 120.736 161.641C120.736 161.641 118.65 162.281 117.668 162.713C105.916 167.884 103.137 185.418 99.3072 209.865L99.2193 212.568L150.184 213.022L149.958 202.877Z" fill="#020046"/>
<path d="M171.75 182.154L175.666 186.116" stroke="white" stroke-width="0.75" stroke-miterlimit="10" stroke-linecap="round"/>
<path d="M186.048 168.847L202.045 179.287" stroke="white" stroke-width="0.75" stroke-miterlimit="10" stroke-linecap="round"/>
<path d="M119.924 162.049C119.924 162.049 128.8 161.734 131.76 161.769C134.722 161.804 143.595 162.328 143.595 162.328" stroke="white" stroke-width="0.75" stroke-miterlimit="10" stroke-linecap="round"/>
<path d="M134.962 138.86C135.001 139.573 135.61 140.119 136.322 140.079C137.034 140.04 137.578 139.43 137.539 138.717C137.5 138.004 136.891 137.458 136.179 137.497C135.466 137.537 134.922 138.147 134.962 138.86Z" fill="#020046"/>
<path d="M142.43 146.333C142.43 146.333 140.741 147.453 138.78 145.601" stroke="#020046" stroke-width="0.75" stroke-miterlimit="10"/>
<path d="M133.402 137.255C133.951 136.608 134.563 136.014 135.226 135.485" stroke="#020046" stroke-width="0.75" stroke-miterlimit="10"/>
<path d="M161.127 294.412L166.149 324.621L177.459 324.68L177.688 317.801L190.259 324.452C190.259 324.452 193.444 324.512 196.165 324.443C198.254 324.39 200.224 324.677 200.21 324.064C200.105 319.451 195.762 315.352 182.872 304.385L181.36 293.354L161.127 294.412Z" fill="#5C64FE" stroke="#020046" stroke-miterlimit="10"/>
<path d="M138.381 246.509L156.704 305.314H207.663L176.275 225.684L126.845 218.999L138.381 246.509Z" fill="white"/>
<path d="M129.875 226.225V222.434H129.16V224.521L129.875 226.225Z" fill="#F089D5"/>
<path d="M199.503 298.966V298.25H176.711V287.52H199.503V286.804H176.711V276.074H196.137L195.854 275.358H176.711V264.628H191.625L191.343 263.912H176.711V253.182H187.113L186.831 252.466H176.711V241.736H182.602L182.319 241.02H176.711V226.792L176.275 225.685L175.996 225.648V241.02H165.001V224.16L164.287 224.064V241.02H153.292V222.577L152.578 222.48V241.02H141.584V222.436H140.869V241.02H136.078L136.378 241.736H140.869V252.466H140.236L140.459 253.182H140.869V254.497L141.584 256.791V253.182H152.578V263.912H143.803L144.026 264.628H152.578V275.358H147.369L147.592 276.074H152.578V286.804H150.936L151.159 287.52H152.578V292.073L153.292 294.366V287.52H164.287V298.25H154.503L154.726 298.966H164.287V305.314H165.001V298.966H175.996V305.314H176.711V298.966H199.503ZM152.578 252.465H141.585V241.735H152.578V252.465ZM164.287 286.804H153.292V276.074H164.287V286.804ZM164.287 275.357H153.292V264.627H164.287V275.357ZM164.287 263.911H153.292V253.181H164.287V263.911ZM164.287 252.465H153.292V241.735H164.287V252.465ZM175.996 298.25H165.001V287.52H175.996V298.25ZM175.996 286.804H165.001V276.074H175.996V286.804ZM175.996 275.357H165.001V264.627H175.996V275.357ZM175.996 263.911H165.001V253.181H175.996V263.911ZM175.996 252.465H165.001V241.735H175.996V252.465Z" fill="#F089D5"/>
<path d="M138.381 246.509L156.704 305.314H207.663L176.275 225.684L126.845 218.999" stroke="#020046" stroke-miterlimit="10"/>
<path d="M186.306 294.992L192.477 324.625L203.079 324.68L203.308 317.801L213.16 324.68C210.985 324.739 219.064 324.512 221.785 324.443C223.874 324.39 225.844 324.678 225.83 324.065C225.725 319.452 221.382 315.352 208.493 304.386L206.98 293.355L186.306 294.992Z" fill="#5C64FE" stroke="#020046" stroke-miterlimit="10"/>
<path d="M167.048 247.675L182.137 305.314H218.682C218.682 305.314 199.616 235.015 191.099 225.684C182.581 216.353 154.963 216.892 154.963 216.892L167.048 247.675Z" fill="white"/>
<path d="M216.042 295.843H208.842V285.113H212.946C212.876 284.875 212.807 284.637 212.736 284.397H208.842V273.667H209.522C209.449 273.428 209.377 273.19 209.304 272.951H208.842V271.448C208.605 270.68 208.367 269.911 208.127 269.137V272.951H197.134V262.221H205.943C205.866 261.982 205.789 261.743 205.712 261.505H197.134V250.775H202.138C202.055 250.536 201.973 250.296 201.89 250.059H197.134V239.329H197.948C197.853 239.087 197.759 238.85 197.664 238.613H197.134V237.296C196.893 236.707 196.655 236.132 196.419 235.574V238.612H185.425V227.881H192.668C192.515 227.629 192.365 227.39 192.217 227.165H185.425V221.783C185.188 221.674 184.953 221.562 184.71 221.457V227.165H173.716V218.382C173.478 218.34 173.239 218.297 173.001 218.257V227.165H162.007V217.073C161.764 217.06 161.526 217.047 161.292 217.035V227.164H158.996L159.277 227.88H161.292V233.012L162.006 234.832V227.88H173.001V238.61H163.49L163.771 239.326H173.001V250.056H167.672L167.859 250.772H173.001V261.502H170.668L170.855 262.218H173.001V270.412L173.852 273.665H184.709V284.395H176.661L176.848 285.111H184.708V295.84H179.656L179.844 296.556H184.708V305.312H185.423V296.556H196.418V305.312H197.132V296.556H208.126V305.312H208.841V296.556H216.243C216.178 296.325 216.109 296.082 216.042 295.843ZM184.71 272.95H173.716V262.22H184.71V272.95ZM184.71 261.503H173.716V250.773H184.71V261.503ZM184.71 250.057H173.716V239.327H184.71V250.057ZM184.71 238.611H173.716V227.881H184.71V238.611ZM196.419 295.843H185.425V285.113H196.419V295.843ZM196.419 284.396H185.425V273.666H196.419V284.396ZM196.419 272.95H185.425V262.22H196.419V272.95ZM196.419 261.503H185.425V250.773H196.419V261.503ZM196.419 250.057H185.425V239.327H196.419V250.057ZM208.127 295.843H197.134V285.113H208.127V295.843ZM208.127 284.396H197.134V273.666H208.127V284.396Z" fill="#F089D5"/>
<path d="M167.048 247.675L182.137 305.314H218.682C218.682 305.314 199.616 235.015 191.099 225.684C182.581 216.353 154.963 216.892 154.963 216.892" stroke="#020046" stroke-miterlimit="10"/>
<path d="M27.7412 324.68H500.603" stroke="#020046" stroke-width="0.75" stroke-miterlimit="10" stroke-linecap="round" stroke-linejoin="round"/>
<path d="M351.097 212.649L385.886 212.713C389.497 212.719 391.364 209.912 390.056 206.442L380.937 182.252C379.629 178.782 375.641 175.964 372.029 175.957L337.24 175.893C333.629 175.887 331.762 178.694 333.07 182.164L342.19 206.354C343.498 209.825 347.486 212.643 351.097 212.649Z" fill="#020046"/>
<path d="M356.349 192.386C356.757 193.921 358.33 195.169 359.862 195.172C361.394 195.175 362.306 193.932 361.898 192.396C361.49 190.86 359.917 189.612 358.385 189.61C356.852 189.606 355.94 190.849 356.349 192.386Z" fill="white"/>
<path d="M417.533 211.88L417.54 208.335C417.54 207.874 417.169 207.5 416.709 207.5L381.659 207.436C381.2 207.435 380.826 207.808 380.825 208.269L380.819 211.814C380.818 212.274 381.19 212.649 381.65 212.649L416.699 212.714C417.159 212.714 417.533 212.341 417.533 211.88Z" fill="#020046"/>
<path d="M439.165 190.259H437.765H429.056L431.421 212.884H437.765H439.165H445.51L447.875 190.259H439.165Z" fill="white" stroke="#020046" stroke-width="0.75" stroke-miterlimit="10" stroke-linecap="round" stroke-linejoin="round"/>
<path d="M430.758 206.546H446.173L447.386 194.938H429.545L430.758 206.546Z" fill="#F089D5" stroke="#020046" stroke-width="0.75" stroke-miterlimit="10" stroke-linecap="round" stroke-linejoin="round"/>
<path d="M446.081 187.994H431.021C430.442 187.994 429.972 187.523 429.972 186.943V184.959C429.972 184.378 430.442 183.907 431.021 183.907H446.081C446.661 183.907 447.13 184.378 447.13 184.959V186.943C447.131 187.523 446.661 187.994 446.081 187.994Z" fill="#020046"/>
<path d="M448.73 190.611H428.373C427.615 190.611 427.001 189.996 427.001 189.237V187.813C427.001 187.054 427.615 186.439 428.373 186.439H448.73C449.487 186.439 450.101 187.054 450.101 187.813V189.237C450.101 189.996 449.487 190.611 448.73 190.611Z" fill="#020046"/>
<path d="M261.792 28.0107H248.076H238.505H232.073C229.098 28.0107 226.686 30.4272 226.686 33.408V46.2637C226.686 46.5129 226.709 46.7556 226.741 46.9962C226.708 47.2361 226.686 47.4795 226.686 47.7287V60.5844C226.686 63.5652 229.098 65.9817 232.073 65.9817H238.505H248.076H261.702L267.179 71.0194V60.583V57.2522V56.6987V47.7279V46.2637V42.9329V33.408C267.178 30.4272 264.767 28.0107 261.792 28.0107Z" fill="white" stroke="#C4C1D2" stroke-miterlimit="10" stroke-linecap="round" stroke-linejoin="round"/>
<path d="M247.438 40.0103H246.284H239.096L241.047 58.6814H246.284H247.438H252.675L254.626 40.0103H247.438Z" fill="white" stroke="#C4C1D2" stroke-width="0.75" stroke-miterlimit="10" stroke-linecap="round" stroke-linejoin="round"/>
<path d="M240.501 53.4517H253.221L254.223 43.8716H239.5L240.501 53.4517Z" fill="#C4C1D2"/>
<path d="M253.146 38.1407H240.718C240.24 38.1407 239.851 37.7519 239.851 37.2729V35.6354C239.851 35.1564 240.239 34.7683 240.718 34.7683H253.146C253.624 34.7683 254.013 35.1564 254.013 35.6354V37.2729C254.013 37.7519 253.624 38.1407 253.146 38.1407Z" fill="#C4C1D2"/>
<path d="M255.332 40.3002H238.532C237.907 40.3002 237.4 39.7925 237.4 39.166V37.9911C237.4 37.3646 237.907 36.8569 238.532 36.8569H255.332C255.957 36.8569 256.464 37.3646 256.464 37.9911V39.166C256.464 39.7925 255.957 40.3002 255.332 40.3002Z" fill="#C4C1D2"/>
<path d="M351.509 91.0474H376.681C379.897 91.0474 382.505 93.6593 382.505 96.8813V107.177V110.778V122.059L376.584 116.613H351.509C348.293 116.613 345.686 114.001 345.686 110.779V96.882C345.686 93.6593 348.293 91.0474 351.509 91.0474Z" fill="white" stroke="#C4C1D2" stroke-width="0.75" stroke-miterlimit="10" stroke-linecap="round" stroke-linejoin="round"/>
<path d="M340.693 81.0212H365.866C369.082 81.0212 371.689 83.6332 371.689 86.8552V97.1513V100.752V112.033L365.769 106.587H340.693C337.477 106.587 334.87 103.975 334.87 100.753V86.8559C334.87 83.6332 337.477 81.0212 340.693 81.0212Z" fill="white" stroke="#C4C1D2" stroke-width="0.75" stroke-miterlimit="10" stroke-linecap="round" stroke-linejoin="round"/>
<path d="M359.04 94.2673C359.04 95.6685 360.173 96.804 361.572 96.804C362.971 96.804 364.104 95.6685 364.104 94.2673C364.104 92.8668 362.971 91.7305 361.572 91.7305C360.173 91.7305 359.04 92.8668 359.04 94.2673Z" fill="#C4C1D2"/>
<path d="M350.232 94.2673C350.232 95.6685 351.366 96.804 352.764 96.804C354.163 96.804 355.296 95.6685 355.296 94.2673C355.296 92.8668 354.163 91.7305 352.764 91.7305C351.366 91.7305 350.232 92.8668 350.232 94.2673Z" fill="#C4C1D2"/>
<path d="M341.424 94.2673C341.424 95.6685 342.558 96.804 343.956 96.804C345.355 96.804 346.488 95.6685 346.488 94.2673C346.488 92.8668 345.355 91.7305 343.956 91.7305C342.558 91.7305 341.424 92.8668 341.424 94.2673Z" fill="#C4C1D2"/>
<path d="M485.495 290.204C491.864 282.673 516.935 231.556 511.2 223.904C504.012 214.312 487.629 240.139 477.801 271.839C477.801 271.839 487.803 228.068 479.387 222.81C471.027 217.588 466.176 258.8 467.007 288.958L485.495 290.204Z" fill="#D8D7E2"/>
<path d="M473.156 287.258C472.387 282.753 464.075 223.91 451.054 228.734C441.527 232.263 460.603 279.687 464.773 288.196L473.156 287.258Z" fill="#D8D7E2"/>
<path d="M473.156 279.379L476.779 233.621" stroke="#C4C1D2" stroke-width="0.75" stroke-miterlimit="10" stroke-linecap="round" stroke-linejoin="round"/>
<path d="M505.552 228.175L479.674 284.145" stroke="#C4C1D2" stroke-width="0.75" stroke-miterlimit="10" stroke-linecap="round" stroke-linejoin="round"/>
<path d="M467.102 284.145L453.088 234.679" stroke="#C4C1D2" stroke-width="0.75" stroke-miterlimit="10" stroke-linecap="round" stroke-linejoin="round"/>
<path d="M492.032 324.68H457.875C456.194 324.68 454.831 323.315 454.831 321.631V290.308C454.831 288.624 456.194 287.259 457.875 287.259H492.032C493.713 287.259 495.076 288.624 495.076 290.308V321.631C495.075 323.315 493.713 324.68 492.032 324.68Z" fill="#D8D7E2"/>
<path d="M471.734 84.0563C480.934 76.4732 482.257 62.854 474.688 53.6368C467.119 44.4196 453.525 43.095 444.325 50.6781C435.125 58.2611 433.802 71.8804 441.371 81.0976C448.94 90.3147 462.534 91.6394 471.734 84.0563Z" stroke="#C4C1D2" stroke-width="0.75" stroke-miterlimit="10"/>
<path d="M475.533 71.732C477.936 62.0504 472.05 52.2504 462.386 49.843C452.723 47.4356 442.941 53.3324 440.538 63.014C438.135 72.6955 444.021 82.4955 453.685 84.903C463.348 87.3104 473.13 81.4135 475.533 71.732Z" fill="white" stroke="#C4C1D2" stroke-width="0.75" stroke-miterlimit="10"/>
<path d="M463.41 52.0527L462.697 54.0547" stroke="#C4C1D2" stroke-width="0.75" stroke-miterlimit="10" stroke-linecap="round" stroke-linejoin="round"/>
<path d="M453.246 80.5967L452.533 82.5986" stroke="#C4C1D2" stroke-width="0.75" stroke-miterlimit="10" stroke-linecap="round" stroke-linejoin="round"/>
<path d="M442.66 62.0044L444.851 62.7877" stroke="#C4C1D2" stroke-width="0.75" stroke-miterlimit="10" stroke-linecap="round" stroke-linejoin="round"/>
<path d="M471.15 72.1865L473.342 72.9698" stroke="#C4C1D2" stroke-width="0.75" stroke-miterlimit="10" stroke-linecap="round" stroke-linejoin="round"/>
<path d="M454.91 51.2715L455.376 53.8405" stroke="#C4C1D2" stroke-width="0.75" stroke-miterlimit="10" stroke-linecap="round" stroke-linejoin="round"/>
<path d="M447.578 55.1301L449.056 56.8965" stroke="#C4C1D2" stroke-width="0.75" stroke-miterlimit="10" stroke-linecap="round" stroke-linejoin="round"/>
<path d="M442.151 70.3707L444.457 69.8123" stroke="#C4C1D2" stroke-width="0.75" stroke-miterlimit="10" stroke-linecap="round" stroke-linejoin="round"/>
<path d="M445.459 77.8135L447.373 76.3142" stroke="#C4C1D2" stroke-width="0.75" stroke-miterlimit="10" stroke-linecap="round" stroke-linejoin="round"/>
<path d="M460.929 83.3425L460.395 80.9675" stroke="#C4C1D2" stroke-width="0.75" stroke-miterlimit="10" stroke-linecap="round" stroke-linejoin="round"/>
<path d="M468.45 79.7704L466.889 77.8293" stroke="#C4C1D2" stroke-width="0.75" stroke-miterlimit="10" stroke-linecap="round" stroke-linejoin="round"/>
<path d="M473.877 64.5295L471.23 64.821" stroke="#C4C1D2" stroke-width="0.75" stroke-miterlimit="10" stroke-linecap="round" stroke-linejoin="round"/>
<path d="M470.22 57.2507L468.396 58.4944" stroke="#C4C1D2" stroke-width="0.75" stroke-miterlimit="10" stroke-linecap="round" stroke-linejoin="round"/>
<path d="M460.465 68.217C459.989 69.5545 458.521 70.2519 457.186 69.775C455.851 69.2982 455.155 67.8268 455.631 66.4893C456.107 65.1518 457.575 64.4544 458.91 64.9313C460.246 65.4089 460.942 66.8795 460.465 68.217Z" fill="#C4C1D2"/>
<path d="M462.226 56.4089L458.226 67.6458L447.987 70.3201" stroke="#C4C1D2" stroke-miterlimit="10" stroke-linecap="round" stroke-linejoin="round"/>
<path d="M148.342 294.993H154.963V251.925H148.342V294.993Z" fill="white" stroke="#A3A1AF" stroke-width="0.75" stroke-miterlimit="10"/>
<path d="M149.618 308.743H153.687C155.38 308.743 156.753 307.367 156.753 305.671V275.031C156.753 273.334 155.38 271.96 153.687 271.96H149.618C147.925 271.96 146.552 273.335 146.552 275.031V305.671C146.552 307.367 147.925 308.743 149.618 308.743Z" fill="#A3A1AF"/>
<path d="M125.525 305.663H127.15H176.155H180.009V310.09V315.07H176.155V310.09H127.15V315.07H123.297V310.09V305.663H125.525Z" fill="#A3A1AF"/>
<path d="M119.277 318.33C119.277 321.6 121.923 324.251 125.187 324.251C128.451 324.251 131.097 321.6 131.097 318.33C131.097 315.06 128.451 312.409 125.187 312.409C121.923 312.409 119.277 315.06 119.277 318.33Z" fill="white" stroke="#A3A1AF" stroke-width="0.75" stroke-miterlimit="10"/>
<path d="M122.923 318.33C122.923 319.583 123.937 320.599 125.187 320.599C126.438 320.599 127.451 319.583 127.451 318.33C127.451 317.077 126.437 316.061 125.187 316.061C123.937 316.062 122.923 317.077 122.923 318.33Z" fill="#A3A1AF"/>
<path d="M172.376 318.33C172.376 321.6 175.022 324.251 178.286 324.251C181.55 324.251 184.195 321.6 184.195 318.33C184.195 315.06 181.55 312.409 178.286 312.409C175.022 312.409 172.376 315.06 172.376 318.33Z" fill="white" stroke="#A3A1AF" stroke-width="0.75" stroke-miterlimit="10"/>
<path d="M176.022 318.33C176.022 319.583 177.036 320.599 178.286 320.599C179.537 320.599 180.551 319.583 180.551 318.33C180.551 317.077 179.537 316.061 178.286 316.061C177.036 316.061 176.022 317.077 176.022 318.33Z" fill="#A3A1AF"/>
<path d="M212.869 257.151H99.0263C96.6801 257.151 94.7341 255.332 94.5725 252.987L89.5849 180.75C89.4062 178.164 91.4516 175.969 94.0387 175.969H154.036C156.226 175.969 158.092 177.559 158.443 179.724L168.936 244.45C169.287 246.615 171.154 248.205 173.343 248.205H212.869C214.796 248.205 216.505 249.443 217.109 251.277C218.062 254.171 215.911 257.151 212.869 257.151Z" fill="white" stroke="#A3A1AF" stroke-width="0.75" stroke-miterlimit="10" stroke-linecap="round"/>
<path d="M94.8598 192.717H146.482" stroke="#A3A1AF" stroke-width="0.75" stroke-miterlimit="10" stroke-linecap="round"/>
<path d="M94.8598 209.201H149.421" stroke="#A3A1AF" stroke-width="0.75" stroke-miterlimit="10" stroke-linecap="round"/>
<path d="M98.1909 225.684H152.752" stroke="#A3A1AF" stroke-width="0.75" stroke-miterlimit="10" stroke-linecap="round"/>
<path d="M98.1909 242.167H152.752" stroke="#A3A1AF" stroke-width="0.75" stroke-miterlimit="10" stroke-linecap="round"/>
<path d="M150.402 179.425L160.902 249.193" stroke="#A3A1AF" stroke-width="0.75" stroke-miterlimit="10" stroke-linecap="round"/>
<path d="M484.337 324.68H427.672C425.694 324.68 424.091 323.074 424.091 321.092V283.973C424.091 281.991 425.694 280.385 427.672 280.385H484.337C486.315 280.385 487.918 281.991 487.918 283.973V321.092C487.918 323.073 486.314 324.68 484.337 324.68Z" fill="#5C64FE" stroke="#020046" stroke-width="0.75" stroke-miterlimit="10" stroke-linecap="round" stroke-linejoin="round"/>
<path d="M434.207 294.731V324.68" stroke="#020046" stroke-width="0.75" stroke-miterlimit="10" stroke-linecap="round" stroke-linejoin="round"/>
<path d="M477.802 294.731V324.68" stroke="#020046" stroke-width="0.75" stroke-miterlimit="10" stroke-linecap="round" stroke-linejoin="round"/>
<path d="M486.188 301.029H425.821C423.607 301.029 421.813 299.231 421.813 297.012V279.38C421.813 277.161 423.607 275.364 425.821 275.364H486.188C488.402 275.364 490.196 277.161 490.196 279.38V297.012C490.196 299.231 488.402 301.029 486.188 301.029Z" fill="#5C64FE"/>
<path d="M490.196 279.38V297.013C490.196 299.231 488.402 301.029 486.188 301.029H425.821C423.607 301.029 421.813 299.231 421.813 297.013V279.38" stroke="#020046" stroke-width="0.75" stroke-miterlimit="10" stroke-linecap="round" stroke-linejoin="round"/>
<path d="M442.039 276.361H435.665C435.063 276.361 434.574 275.871 434.574 275.268C434.574 274.664 435.063 274.174 435.665 274.174H442.039C442.642 274.174 443.131 274.664 443.131 275.268C443.131 275.871 442.642 276.361 442.039 276.361Z" fill="#020046"/>
<path d="M476.343 276.361H469.969C469.367 276.361 468.878 275.871 468.878 275.268C468.878 274.664 469.367 274.174 469.969 274.174H476.343C476.946 274.174 477.435 274.664 477.435 275.268C477.435 275.871 476.946 276.361 476.343 276.361Z" fill="#020046"/>
<path d="M442.068 275.525C441.624 275.525 441.264 275.164 441.264 274.719V271.449C441.264 271.003 441.624 270.642 442.068 270.642C442.513 270.642 442.873 271.003 442.873 271.449V274.719C442.873 275.164 442.513 275.525 442.068 275.525Z" fill="#A3A1AF"/>
<path d="M469.941 275.525C469.496 275.525 469.136 275.164 469.136 274.719V271.449C469.136 271.003 469.496 270.642 469.941 270.642C470.385 270.642 470.745 271.003 470.745 271.449V274.719C470.745 275.164 470.385 275.525 469.941 275.525Z" fill="#A3A1AF"/>
<path d="M441.961 271.644C445.587 269.948 450.541 268.905 456.004 268.905C461.47 268.905 466.427 269.95 470.053 271.646" stroke="#020046" stroke-width="4" stroke-miterlimit="10" stroke-linecap="round" stroke-linejoin="round"/>
<path d="M459.723 294.014C459.864 293.298 459.317 292.631 458.588 292.631H457.136H454.872H453.42C452.691 292.631 452.144 293.298 452.285 294.014L453.061 297.958H458.946L459.723 294.014Z" stroke="#020046" stroke-width="0.75" stroke-miterlimit="10" stroke-linecap="round" stroke-linejoin="round"/>
<path d="M458.294 301.767H453.715C452.963 301.767 452.353 301.156 452.353 300.402V298.647C452.353 297.893 452.963 297.282 453.715 297.282H458.294C459.046 297.282 459.657 297.893 459.657 298.647V300.402C459.657 301.156 459.046 301.767 458.294 301.767Z" fill="#020046"/>
<path d="M456.501 306.899H455.508C453.446 306.899 451.774 305.224 451.774 303.159V300.336C451.774 299.988 452.056 299.706 452.403 299.706H459.605C459.952 299.706 460.234 299.988 460.234 300.336V303.159C460.234 305.224 458.563 306.899 456.501 306.899Z" fill="#020046"/>
<path d="M457.178 302.662H454.83V305.014H457.178V302.662Z" stroke="#C4C1D2" stroke-width="0.75" stroke-miterlimit="10" stroke-linecap="round" stroke-linejoin="round"/>
<path d="M452.15 299.76H459.745" stroke="#C4C1D2" stroke-width="0.75" stroke-miterlimit="10" stroke-linecap="round" stroke-linejoin="round"/>
</svg>
