<svg width="506" height="506" viewBox="0 0 506 506" fill="none" xmlns="http://www.w3.org/2000/svg">
<path d="M263.1 210.357H83.0346C74.8556 210.357 68.225 203.727 68.225 195.548V78.0523C68.225 69.8733 74.8556 63.2417 83.0346 63.2417H263.1C271.279 63.2417 277.909 69.8723 277.909 78.0523V195.547C277.909 203.727 271.279 210.357 263.1 210.357Z" fill="#F5F5F5"/>
<path d="M277.909 83.3835V74.0296C277.909 68.0719 273.08 63.2427 267.122 63.2427H79.0109C73.0532 63.2427 68.224 68.0719 68.224 74.0296V83.3835H277.909Z" fill="#D6D6D6"/>
<path d="M81.0207 74.1693C81.0207 75.7298 79.7557 76.9948 78.1952 76.9948C76.6347 76.9948 75.3697 75.7298 75.3697 74.1693C75.3697 72.6088 76.6347 71.3438 78.1952 71.3438C79.7557 71.3427 81.0207 72.6088 81.0207 74.1693Z" fill="#F5F5F5"/>
<path d="M91.33 74.1693C91.33 75.7298 90.065 76.9948 88.5045 76.9948C86.944 76.9948 85.679 75.7298 85.679 74.1693C85.679 72.6088 86.944 71.3438 88.5045 71.3438C90.065 71.3427 91.33 72.6088 91.33 74.1693Z" fill="#F5F5F5"/>
<path d="M102.147 74.1693C102.147 75.7298 100.882 76.9948 99.3217 76.9948C97.7612 76.9948 96.4962 75.7298 96.4962 74.1693C96.4962 72.6088 97.7612 71.3438 99.3217 71.3438C100.882 71.3427 102.147 72.6088 102.147 74.1693Z" fill="#F5F5F5"/>
<path d="M236.162 76.9948H122.944C121.383 76.9948 120.118 75.7298 120.118 74.1693C120.118 72.6087 121.383 71.3438 122.944 71.3438H236.162C237.723 71.3438 238.988 72.6087 238.988 74.1693C238.988 75.7298 237.723 76.9948 236.162 76.9948Z" fill="#F5F5F5"/>
<path d="M81.0207 63.6333H268.678C273.776 63.6333 277.909 67.7663 277.909 72.8648V199.571" stroke="#262626" stroke-width="0.4147" stroke-miterlimit="10" stroke-linecap="round" stroke-linejoin="round"/>
<path d="M115.257 121.735C114.072 122.187 113.477 123.515 113.929 124.7L135.66 181.655C136.112 182.84 137.44 183.435 138.625 182.982L180.104 167.157C181.289 166.704 181.884 165.377 181.431 164.191L163.28 116.619L146.919 109.655L115.257 121.735Z" fill="#F5F5F5"/>
<path d="M152.722 120.647L163.28 116.618L146.919 109.654L150.782 119.779C151.078 120.554 151.947 120.943 152.722 120.647Z" fill="#D6D6D6"/>
<path d="M146.92 109.654L150.783 119.779C151.078 120.554 151.947 120.943 152.722 120.647L163.28 116.618" stroke="#262626" stroke-width="0.274" stroke-miterlimit="10" stroke-linecap="round" stroke-linejoin="round"/>
<path d="M146.303 151.514C145.749 150.063 145.414 148.853 145.298 147.883C145.182 146.914 145.302 145.937 145.66 144.956C145.861 144.372 146.133 143.831 146.478 143.333C146.823 142.835 147.125 142.334 147.382 141.827C147.639 141.321 147.818 140.793 147.92 140.248C148.021 139.702 147.936 139.073 147.664 138.359C147.205 137.155 146.551 136.439 145.704 136.212C144.857 135.986 143.978 136.046 143.068 136.393C141.765 136.891 141.006 137.596 140.79 138.509C140.575 139.423 140.641 140.518 140.987 141.794L136.228 143.61C135.769 142.404 135.547 141.236 135.565 140.101C135.584 138.968 135.824 137.917 136.287 136.952C136.75 135.986 137.42 135.124 138.301 134.366C139.18 133.608 140.235 132.994 141.465 132.525C144.122 131.512 146.424 131.253 148.374 131.748C150.325 132.244 151.764 133.709 152.693 136.144C152.993 136.931 153.175 137.65 153.241 138.302C153.306 138.953 153.27 139.58 153.134 140.181C152.997 140.783 152.775 141.382 152.467 141.978C152.159 142.575 151.794 143.207 151.373 143.875C150.991 144.5 150.703 145.054 150.507 145.537C150.31 146.02 150.201 146.492 150.18 146.95C150.158 147.41 150.204 147.864 150.319 148.312C150.434 148.762 150.596 149.258 150.802 149.798L146.303 151.514ZM148.872 158.69L147.028 153.858L152.008 151.958L153.852 156.79L148.872 158.69Z" fill="#D6D6D6"/>
<path d="M115.257 121.735C114.072 122.187 113.477 123.515 113.929 124.7L135.66 181.655C136.112 182.84 137.44 183.435 138.625 182.982L180.104 167.157C181.289 166.704 181.884 165.377 181.431 164.191L163.28 116.619L146.919 109.655L115.257 121.735Z" stroke="#262626" stroke-width="0.274" stroke-miterlimit="10" stroke-linecap="round" stroke-linejoin="round"/>
<path d="M183.813 106.226C182.643 105.735 181.296 106.287 180.806 107.458L157.254 163.682C156.764 164.852 157.314 166.199 158.485 166.689L199.433 183.842C200.604 184.331 201.95 183.781 202.439 182.61L222.112 135.647L215.07 119.319L183.813 106.226Z" fill="#F5F5F5"/>
<path d="M211.689 131.281L222.113 135.647L215.071 119.319L210.885 129.315C210.563 130.08 210.924 130.96 211.689 131.281Z" fill="#D6D6D6"/>
<path d="M215.071 119.319L210.885 129.315C210.564 130.08 210.925 130.96 211.69 131.281L222.114 135.647" stroke="#262626" stroke-width="0.274" stroke-miterlimit="10" stroke-linecap="round" stroke-linejoin="round"/>
<path d="M185.751 149.202C186.351 147.77 186.943 146.662 187.528 145.88C188.113 145.097 188.873 144.474 189.809 144.01C190.356 143.726 190.926 143.523 191.52 143.4C192.113 143.278 192.678 143.122 193.214 142.933C193.749 142.743 194.242 142.486 194.693 142.16C195.143 141.836 195.515 141.321 195.811 140.617C196.309 139.428 196.33 138.459 195.873 137.711C195.415 136.963 194.737 136.4 193.839 136.024C192.552 135.484 191.516 135.472 190.731 135.984C189.944 136.497 189.237 137.335 188.607 138.498L183.91 136.53C184.408 135.341 185.054 134.341 185.85 133.532C186.644 132.724 187.543 132.13 188.545 131.75C189.546 131.371 190.626 131.21 191.786 131.267C192.946 131.325 194.133 131.608 195.347 132.117C197.969 133.215 199.815 134.617 200.885 136.321C201.955 138.025 201.986 140.079 200.98 142.482C200.654 143.259 200.291 143.906 199.889 144.422C199.487 144.938 199.029 145.367 198.516 145.709C198.002 146.05 197.427 146.33 196.794 146.549C196.159 146.769 195.46 146.976 194.694 147.168C193.986 147.357 193.395 147.558 192.92 147.773C192.444 147.988 192.04 148.254 191.708 148.571C191.375 148.889 191.096 149.251 190.869 149.654C190.643 150.059 190.417 150.529 190.194 151.062L185.751 149.202ZM182.66 156.17L184.659 151.399L189.575 153.458L187.576 158.229L182.66 156.17Z" fill="#D6D6D6"/>
<path d="M183.813 106.226C182.643 105.735 181.296 106.287 180.806 107.458L157.254 163.682C156.764 164.852 157.314 166.199 158.485 166.689L199.433 183.842C200.604 184.331 201.95 183.781 202.439 182.61L222.112 135.647L215.07 119.319L183.813 106.226Z" stroke="#262626" stroke-width="0.274" stroke-miterlimit="10" stroke-linecap="round" stroke-linejoin="round"/>
<path d="M204.82 270.684H90.5416V400.254H204.82V270.684Z" fill="#F5F5F5"/>
<path d="M207.045 270.684H88.3152C85.2478 270.684 82.7624 268.198 82.7624 265.131C82.7624 262.065 85.2488 259.579 88.3152 259.579H207.045C210.111 259.579 212.598 262.065 212.598 265.131C212.598 268.198 210.111 270.684 207.045 270.684Z" fill="#D6D6D6"/>
<path opacity="0.5" d="M195.464 283.023H99.8965V316.342H195.464V283.023Z" fill="#D6D6D6"/>
<path opacity="0.5" d="M195.464 361.779H99.8965V395.097H195.464V361.779Z" fill="#D6D6D6"/>
<path opacity="0.5" d="M195.464 322.401H99.8965V355.719H195.464V322.401Z" fill="#D6D6D6"/>
<path d="M153.9 296.752H141.459V302.614H153.9V296.752Z" fill="#D6D6D6"/>
<path d="M153.9 336.13H141.459V341.992H153.9V336.13Z" fill="#D6D6D6"/>
<path d="M153.9 375.507H141.459V381.369H153.9V375.507Z" fill="#D6D6D6"/>
<path d="M470.664 400.349H40.905" stroke="#262626" stroke-width="0.733" stroke-miterlimit="10" stroke-linecap="round" stroke-linejoin="round"/>
<path d="M253 481.171C377.313 481.171 478.089 464.839 478.089 444.693C478.089 424.546 377.313 408.214 253 408.214C128.687 408.214 27.9109 424.546 27.9109 444.693C27.9109 464.839 128.687 481.171 253 481.171Z" fill="#F5F5F5"/>
<path d="M424.345 439.651L420.154 440.193L397.604 298.977L410.178 297.349L424.345 439.651Z" fill="#D6D6D6"/>
<path d="M288.099 434.932L292.29 435.475L314.84 294.258L302.266 292.63L288.099 434.932Z" fill="#D6D6D6"/>
<path d="M367.393 438.381L363.203 438.923L340.652 297.707L353.226 296.079L367.393 438.381Z" fill="#D6D6D6"/>
<path d="M412.564 327.254H306.168L309.986 293.968H426.475L423.715 317.16C423.131 322.735 418.139 327.254 412.564 327.254Z" fill="#F5F5F5"/>
<path d="M418.325 317.066H352.775C349.892 317.066 347.84 314.728 348.192 311.845L363.42 187.233C363.773 184.35 366.396 182.012 369.28 182.012H434.83C437.713 182.012 439.766 184.35 439.413 187.233L424.185 311.845C423.832 314.728 421.209 317.066 418.325 317.066Z" fill="#F5F5F5"/>
<path d="M407.844 317.066H342.294C339.411 317.066 337.358 314.728 337.711 311.845L352.939 187.233C353.291 184.35 355.914 182.012 358.799 182.012H424.349C427.232 182.012 429.284 184.35 428.932 187.233L413.704 311.845C413.35 314.728 410.727 317.066 407.844 317.066Z" fill="#D6D6D6"/>
<path d="M318.788 408.765L311.716 391.757L343.039 378.732L362.488 425.504L292.236 456.048L288.699 447.544L318.788 408.765Z" fill="#F7A99C"/>
<path d="M289.733 457.089L288.056 453.057C286.341 448.935 287.027 444.204 289.84 440.738L312.973 412.237C322.931 410.961 329.698 407.746 334.089 404.98C341.377 400.388 347.39 393.708 351.151 395.64C352.227 396.193 352.778 397.275 353.07 398.056L363.355 422.788C364.076 424.524 363.254 426.514 361.52 427.236L289.733 457.089Z" fill="#FFC001"/>
<path d="M288.612 454.396L363.541 423.237" stroke="#3897E9" stroke-width="0.733" stroke-miterlimit="10" stroke-linecap="round" stroke-linejoin="round"/>
<path d="M298.217 430.929L304.721 434.731" stroke="#3897E9" stroke-width="0.733" stroke-miterlimit="10" stroke-linecap="round" stroke-linejoin="round"/>
<path d="M300.57 427.914L307.074 431.716" stroke="#3897E9" stroke-width="0.733" stroke-miterlimit="10" stroke-linecap="round" stroke-linejoin="round"/>
<path d="M303.114 424.969L309.618 428.77" stroke="#3897E9" stroke-width="0.733" stroke-miterlimit="10" stroke-linecap="round" stroke-linejoin="round"/>
<path d="M306.622 420.061C312.511 419.886 321.934 418.884 332.501 414.422C342.695 410.118 349.807 404.344 354.023 400.348" stroke="#3897E9" stroke-width="0.733" stroke-miterlimit="10" stroke-linecap="round" stroke-linejoin="round"/>
<path d="M216.163 422.54L226.186 403.021L251.893 402.711L249.672 455.205L173.067 455.454L173.185 446.245L216.163 422.54Z" fill="#F7A99C"/>
<path d="M170.355 455.42L170.411 451.053C170.467 446.589 172.969 442.516 176.925 440.446L209.449 423.427C219.098 426.195 226.586 425.921 231.712 425.119C240.222 423.786 248.387 420.031 251.077 423.294C251.846 424.227 251.924 425.439 251.884 426.272L251.542 453.056C251.517 454.935 249.975 456.439 248.096 456.415L170.355 455.42Z" fill="#FFC001"/>
<path d="M170.392 452.503L251.535 453.541" stroke="#3897E9" stroke-width="0.733" stroke-miterlimit="10" stroke-linecap="round" stroke-linejoin="round"/>
<path d="M188.501 434.753L192.969 440.818" stroke="#3897E9" stroke-width="0.733" stroke-miterlimit="10" stroke-linecap="round" stroke-linejoin="round"/>
<path d="M191.855 432.915L196.323 438.981" stroke="#3897E9" stroke-width="0.733" stroke-miterlimit="10" stroke-linecap="round" stroke-linejoin="round"/>
<path d="M195.356 431.217L199.825 437.283" stroke="#3897E9" stroke-width="0.733" stroke-miterlimit="10" stroke-linecap="round" stroke-linejoin="round"/>
<path d="M200.521 428.099C205.999 430.269 215.049 433.078 226.518 433.162C237.583 433.243 246.4 430.756 251.852 428.755" stroke="#3897E9" stroke-width="0.733" stroke-miterlimit="10" stroke-linecap="round" stroke-linejoin="round"/>
<path d="M341.18 259.437C341.18 259.437 269.476 280.354 265.763 286.387C262.05 292.42 263.443 305.647 265.763 314.233C268.084 322.819 302.326 408.213 302.326 408.213L351.391 389.881L317.744 301.934L380.861 269.911L341.18 259.437Z" fill="#FF7129"/>
<path d="M292.303 384.635C292.303 384.635 312.057 357.974 315.074 355.654C318.091 353.333 333.638 343.24 333.638 343.24L337.671 354.024L295.753 391.762L292.303 384.635Z" fill="#E05C22"/>
<path d="M401.513 277.968C401.513 277.968 405.226 291.631 403.369 296.202C401.513 300.773 317.974 353.217 316.117 356.466C314.261 359.714 262.746 418.605 262.746 418.605L208.446 407.894C208.446 407.894 261.818 337.437 274.813 326.762C287.808 316.088 346.749 264.778 346.749 264.778L401.513 277.968Z" fill="#FF7129"/>
<path d="M386.636 179.95L414.288 164.599C415.584 163.879 415.775 162.092 414.66 161.114L399.797 148.082L394.911 131.007C399.992 130.643 416.25 130.129 430.454 141.237C434.224 144.185 447.585 154.633 446.07 166.553C445.097 174.216 436.85 180.522 420.355 193.135C415.581 196.786 411.456 199.654 408.496 201.643L386.636 179.95Z" fill="#3897E9"/>
<path d="M395.693 133.744C395.693 133.744 387.409 130.612 386.008 130.358C384.608 130.104 370.378 134.398 370.378 134.398L370.971 137.513C370.971 137.513 381.61 137.991 382.109 138.288C382.608 138.584 388.956 145.15 390.29 145.707C391.624 146.263 399.446 146.855 399.446 146.855L395.693 133.744Z" fill="#F7A99C"/>
<path d="M369.007 178.493L343.482 159.819C342.285 158.944 342.318 157.146 343.546 156.314L359.917 145.234L366.891 128.9C361.895 127.907 345.828 125.372 330.351 134.624C326.243 137.08 311.686 145.783 311.704 157.799C311.716 165.523 319.114 172.808 333.909 187.377C338.192 191.595 341.928 194.954 344.617 197.295L369.007 178.493Z" fill="#3897E9"/>
<path d="M365.773 131.52C365.773 131.52 374.383 129.444 375.804 129.367C377.225 129.29 390.809 135.323 390.809 135.323L389.834 138.339C389.834 138.339 379.218 137.488 378.685 137.721C378.153 137.953 371.037 143.677 369.644 144.064C368.252 144.451 360.417 144.064 360.417 144.064L365.773 131.52Z" fill="#F7A99C"/>
<path d="M369.007 178.494L387.339 179.876C397.159 184.352 402.516 189.927 405.38 193.567C408.606 197.667 416.643 209.447 414.817 265.658C414.551 273.839 414.157 280.47 413.888 284.532L321.377 259.438C322.447 255.756 332.827 220.389 343.654 199.137C346.502 193.546 350.429 186.875 358.042 182.429C362.331 179.924 366.404 178.936 369.007 178.494Z" fill="#3897E9"/>
<path d="M377.331 187.641C382.382 188.116 386.86 184.406 387.335 179.355L389.184 159.675L370.894 157.957L369.045 177.636C368.571 182.687 372.28 187.166 377.331 187.641Z" fill="#F7A99C"/>
<path d="M369.563 172.128L382.03 167.08C381.816 168.101 380.703 172.873 376.153 175.828C373.248 177.714 370.351 177.944 369.022 177.963L369.563 172.128Z" fill="#FF7769"/>
<path d="M390.178 153.617C390.262 153.324 391.086 152.946 391.341 152.813C391.771 152.59 392.23 152.422 392.704 152.315C393.622 152.109 394.609 152.13 395.507 152.423C397.293 153.005 398.773 154.683 398.907 156.588C398.985 157.694 398.632 158.799 398.074 159.759C397.236 161.2 395.931 162.357 394.417 163.057C393.162 163.637 391.77 163.903 390.391 163.861C390.115 163.853 387.31 163.534 387.34 163.429C388.285 160.157 389.231 156.887 390.178 153.617Z" fill="#F7A99C"/>
<path d="M392.668 154.033C392.319 155.483 390.33 163.114 382.854 167.958C381.476 168.851 372.321 174.783 364.791 170.807C355.115 165.698 357.7 149.282 357.851 148.393C358.363 145.391 359.871 136.55 367.675 132.463C374.043 129.127 380.437 131.141 381.342 131.441C382.296 131.758 388.364 133.884 391.615 140.315C394.566 146.15 393.239 151.661 392.668 154.033Z" fill="#F7A99C"/>
<path d="M363.557 148.919C363.279 150.194 362.2 151.041 361.148 150.811C360.096 150.582 359.468 149.362 359.747 148.088C360.025 146.814 361.104 145.966 362.155 146.196C363.208 146.425 363.835 147.644 363.557 148.919Z" fill="#262626"/>
<path d="M375.043 151.424C374.765 152.7 373.686 153.547 372.635 153.317C371.582 153.087 370.955 151.868 371.233 150.593C371.511 149.318 372.59 148.47 373.642 148.7C374.694 148.931 375.321 150.15 375.043 151.424Z" fill="#262626"/>
<path d="M366.891 151.165L364.893 153.41C364.525 153.823 364.592 154.462 365.036 154.791L366.581 155.934" stroke="#262626" stroke-width="0.733" stroke-miterlimit="10" stroke-linecap="round" stroke-linejoin="round"/>
<path d="M378.394 157.849C378.082 159.279 376.669 160.185 375.239 159.874C373.81 159.562 372.903 158.149 373.214 156.718C373.526 155.288 374.939 154.381 376.369 154.693C377.799 155.005 378.706 156.419 378.394 157.849Z" fill="#FF7769"/>
<path d="M390.809 160.343C390.826 160.053 390.979 158.087 392.683 156.81C394.018 155.812 395.461 155.868 395.854 155.897" stroke="#262626" stroke-width="0.733" stroke-miterlimit="10" stroke-linecap="round" stroke-linejoin="round"/>
<path d="M392.495 157.184C392.584 157.178 393.654 157.127 394.32 157.992C394.867 158.703 394.739 159.511 394.715 159.644" stroke="#262626" stroke-width="0.733" stroke-miterlimit="10" stroke-linecap="round" stroke-linejoin="round"/>
<path d="M393.062 152.25C393.062 152.25 391.75 152.248 390.684 153.133C389.617 154.016 389.119 155.652 389.119 155.652C387.587 155.601 385.366 155.278 383.532 153.778C380.679 151.443 381.746 148.697 379.391 146.847C377.178 145.109 375.318 146.812 367.169 146.383C360.764 146.046 358.946 144.839 358.844 143.993C358.811 143.716 358.936 143.212 359.22 142.213C359.328 141.831 359.456 141.261 359.695 140.728C360.163 139.681 360.737 138.684 361.399 137.749C362.727 135.88 364.414 134.266 366.341 133.024C367.593 132.218 368.947 131.568 370.366 131.111C374.869 129.658 380.892 130.198 385.825 133.429C385.825 133.429 391.334 137.037 393.34 143.307C394.029 145.463 394.063 147.558 394.054 148.282C394.035 149.717 393.79 150.635 393.509 151.331C393.351 151.725 393.184 152.038 393.062 152.25Z" fill="#262626"/>
<path d="M358.918 151.885C358.423 151.777 357.933 151.823 357.488 151.978C357.411 153.4 357.393 155.132 357.54 156.984C357.623 157.011 357.702 157.045 357.789 157.065C359.218 157.376 360.631 156.471 360.943 155.04C361.255 153.61 360.348 152.197 358.918 151.885Z" fill="#FF7769"/>
<path d="M368.136 142.637C366.532 145.704 362.149 146.577 358.346 144.588C354.543 142.599 352.759 138.5 354.363 135.434C355.967 132.368 360.35 131.494 364.153 133.484C367.957 135.473 369.74 139.571 368.136 142.637Z" fill="#262626"/>
<path d="M364.655 160.77C365.05 160.399 365.959 159.643 367.362 159.301C368.728 158.967 369.856 159.198 370.379 159.339" stroke="#262626" stroke-width="0.733" stroke-miterlimit="10" stroke-linecap="round" stroke-linejoin="round"/>
<path d="M271.451 329.916L346.749 264.781" stroke="#262626" stroke-width="0.733" stroke-miterlimit="10" stroke-linecap="round" stroke-linejoin="round"/>
<path d="M292.723 384.15C292.723 384.15 313.58 358.595 316.118 356.467C318.656 354.339 333.819 343.955 333.819 343.955" stroke="#262626" stroke-width="0.733" stroke-miterlimit="10" stroke-linecap="round" stroke-linejoin="round"/>
<path d="M403.368 286.781C403.368 286.781 317.694 343.471 313.271 346.566C308.847 349.66 255.138 417.107 255.138 417.107" stroke="white" stroke-width="0.733" stroke-miterlimit="10" stroke-linecap="round" stroke-linejoin="round"/>
<path d="M345.012 392.265L326.077 349.153" stroke="white" stroke-width="0.733" stroke-miterlimit="10" stroke-linecap="round" stroke-linejoin="round"/>
<path d="M400.659 172.165L419.922 161.698" stroke="#262626" stroke-width="0.733" stroke-miterlimit="10" stroke-linecap="round" stroke-linejoin="round"/>
<path d="M353.203 166.931L337.776 155.65" stroke="#262626" stroke-width="0.733" stroke-miterlimit="10" stroke-linecap="round" stroke-linejoin="round"/>
<path d="M345.49 194.65L336.444 215.281" stroke="#262626" stroke-width="0.733" stroke-miterlimit="10" stroke-linecap="round" stroke-linejoin="round"/>
<path d="M407.801 197.297C407.801 197.297 409.663 200.607 410.748 204.964C411.833 209.322 414.15 225.561 414.15 225.561" stroke="#262626" stroke-width="0.733" stroke-miterlimit="10" stroke-linecap="round" stroke-linejoin="round"/>
<path d="M414.487 230L413.889 284.531L340.355 264.584C347.918 265.396 372.094 267.003 394.319 251.347C404.328 244.297 410.678 236.043 414.487 230Z" fill="#1775AF"/>
<path d="M329.689 139.616C326.527 142.223 323.055 144.597 320.105 147.443C316.971 150.467 314.638 154.813 316.158 159.201C316.759 160.939 317.681 162.32 319.806 164.999C321.799 167.511 323.741 169.358 325.169 170.593" stroke="white" stroke-width="0.733" stroke-miterlimit="10" stroke-linecap="round" stroke-linejoin="round"/>
<path d="M376.76 193.123C377.789 193.123 378.624 192.289 378.624 191.26C378.624 190.231 377.789 189.396 376.76 189.396C375.732 189.396 374.897 190.231 374.897 191.26C374.897 192.289 375.732 193.123 376.76 193.123Z" fill="white"/>
<path d="M376.299 200.49C377.328 200.49 378.162 199.656 378.162 198.627C378.162 197.598 377.328 196.764 376.299 196.764C375.27 196.764 374.436 197.598 374.436 198.627C374.436 199.656 375.27 200.49 376.299 200.49Z" fill="white"/>
<path d="M375.526 208.723C376.555 208.723 377.389 207.889 377.389 206.86C377.389 205.831 376.555 204.997 375.526 204.997C374.497 204.997 373.663 205.831 373.663 206.86C373.663 207.889 374.497 208.723 375.526 208.723Z" fill="white"/>
<path d="M412.251 297.348H87.5744C80.8952 297.348 75.48 291.934 75.48 285.254C75.48 278.575 80.8942 273.16 87.5744 273.16H412.25C418.93 273.16 424.344 278.574 424.344 285.254C424.345 291.933 418.931 297.348 412.251 297.348Z" fill="#FFC001"/>
<path d="M417.636 454.981L412.692 455.621L386.088 289.019L400.922 287.098L417.636 454.981Z" fill="#FFC001"/>
<path d="M86.0463 454.981L90.9909 455.621L117.594 289.019L102.76 287.098L86.0463 454.981Z" fill="#FFC001"/>
<path d="M428.439 191.26L418.616 271.645" stroke="#262626" stroke-width="0.733" stroke-miterlimit="10" stroke-linecap="round" stroke-linejoin="round"/>
<path d="M438.693 193.123L423.527 318.303" stroke="#262626" stroke-width="0.733" stroke-miterlimit="10" stroke-linecap="round" stroke-linejoin="round"/>
<path d="M246.657 278.807H398.917" stroke="white" stroke-width="0.733" stroke-miterlimit="10" stroke-linecap="round" stroke-linejoin="round"/>
<path d="M240.469 278.807H223.143" stroke="white" stroke-width="0.733" stroke-miterlimit="10" stroke-linecap="round" stroke-linejoin="round"/>
<path d="M101.739 297.349L91.7044 398.149" stroke="#262626" stroke-width="0.733" stroke-miterlimit="10" stroke-linecap="round" stroke-linejoin="round"/>
<path d="M387.418 297.349L403.058 395.298" stroke="#262626" stroke-width="0.733" stroke-miterlimit="10" stroke-linecap="round" stroke-linejoin="round"/>
<path d="M326.378 253.745H238.186C235.044 253.745 232.053 251.198 231.504 248.056L221.349 189.888C220.8 186.746 222.902 184.199 226.044 184.199H314.236C317.378 184.199 320.37 186.746 320.918 189.888L331.074 248.056C331.622 251.198 329.52 253.745 326.378 253.745Z" fill="#3849C6"/>
<path d="M320.759 253.745H232.568C229.425 253.745 226.434 251.198 225.885 248.056L215.73 189.888C215.182 186.746 217.283 184.199 220.426 184.199H308.617C311.76 184.199 314.751 186.746 315.3 189.888L325.455 248.056C326.005 251.198 323.902 253.745 320.759 253.745Z" fill="#4450E4"/>
<path d="M278.221 273.161H248.975L260.363 222.983C260.695 221.518 262.153 220.331 263.618 220.331H287.558C289.023 220.331 289.941 221.519 289.608 222.983L278.221 273.161Z" fill="#3849C6"/>
<path d="M274.628 273.161H245.383L256.771 222.983C257.104 221.518 258.56 220.331 260.025 220.331H283.965C285.431 220.331 286.348 221.519 286.015 222.983L274.628 273.161Z" fill="#4450E4"/>
<path d="M245.383 273.161L256.771 222.983C257.104 221.518 258.56 220.331 260.025 220.331H283.965" stroke="#262626" stroke-width="0.733" stroke-miterlimit="10" stroke-linecap="round" stroke-linejoin="round"/>
<path d="M364.58 273.161H281.413V270.355C281.413 269.384 282.2 268.597 283.171 268.597H362.822C363.793 268.597 364.58 269.384 364.58 270.355V273.161Z" fill="#4450E4"/>
<path d="M387.238 120.495L384.512 119.066L395.043 94.7212L401.98 98.3573L387.238 120.495Z" fill="#FDB6D6"/>
<path d="M392.247 123.934L390.748 121.248L412.884 106.632L416.699 113.471L392.247 123.934Z" fill="#FDB6D6"/>
<path d="M380.851 116.714L377.865 117.457L369.556 92.2659L377.156 90.3745L380.851 116.714Z" fill="#FDB6D6"/>
<path d="M184.125 260.224C184.57 257.151 185.582 252.619 188.119 247.691C189.521 244.967 191.822 240.497 196.094 237.174C204.313 230.783 214.873 232.488 217.541 232.998C214.552 233.642 208.28 235.443 202.781 240.853C201.295 242.316 198.328 245.295 196.481 250.014C194.758 254.417 193.933 260.535 193.928 260.534L184.125 260.224Z" fill="#94E261"/>
<path d="M193.135 256.137C193.726 253.089 194.261 248.476 193.487 242.987C193.059 239.953 192.357 234.975 189.415 230.432C183.757 221.693 173.224 219.828 170.536 219.433C173.146 221.023 178.477 224.788 181.89 231.705C182.813 233.576 184.634 237.366 184.826 242.43C185.004 247.154 183.771 253.204 183.775 253.204L193.135 256.137Z" fill="#94E261"/>
<path d="M189.483 259.535C189.417 256.924 189.022 253.038 187.393 248.669C186.492 246.253 185.015 242.292 181.776 239.093C175.548 232.938 166.557 233.312 164.278 233.473C166.711 234.308 171.771 236.435 175.826 241.5C176.923 242.87 179.105 245.653 180.178 249.779C181.18 253.628 181.261 258.82 181.265 258.819L189.483 259.535Z" fill="#94E261"/>
<path d="M191.594 260.534C191.634 258.918 191.879 256.513 192.887 253.809C193.445 252.314 194.359 249.862 196.363 247.883C200.218 244.074 205.782 244.305 207.193 244.406C205.688 244.923 202.556 246.238 200.046 249.373C199.367 250.222 198.017 251.944 197.352 254.497C196.732 256.878 196.681 260.093 196.679 260.093L191.594 260.534Z" fill="#94E261"/>
<path d="M164.277 233.474C174.19 235.476 178.359 239.414 180.307 242.766C183.48 248.227 184.125 257.923 184.125 257.923" stroke="#262626" stroke-width="0.274" stroke-miterlimit="10" stroke-linecap="round" stroke-linejoin="round"/>
<path d="M170.853 219.481C174.35 220.924 181.59 224.545 185.937 232.319C188.749 237.348 189.394 242.406 189.804 245.623C190.411 250.381 190.161 254.407 189.804 257.226" stroke="#262626" stroke-width="0.274" stroke-miterlimit="10" stroke-linecap="round" stroke-linejoin="round"/>
<path d="M217.541 232.997C216.596 232.837 206.361 231.282 198.778 238.971C191.913 245.932 192.695 254.918 192.822 256.137" stroke="#262626" stroke-width="0.274" stroke-miterlimit="10" stroke-linecap="round" stroke-linejoin="round"/>
<path d="M207.193 244.405C206.497 244.421 200.952 244.64 197.462 249.336C194.759 252.973 195.043 256.936 195.142 257.922" stroke="#262626" stroke-width="0.274" stroke-miterlimit="10" stroke-linecap="round" stroke-linejoin="round"/>
<path d="M191.547 274.057H187.023C182.843 274.057 179.456 270.669 179.456 266.491V255.03H199.115V266.491C199.114 270.669 195.726 274.057 191.547 274.057Z" fill="#FDB6D6"/>
<path d="M196.942 259.535V265.104C196.942 268.437 194.241 271.138 190.909 271.138H189.284" stroke="white" stroke-width="0.733" stroke-miterlimit="10" stroke-linecap="round" stroke-linejoin="round"/>
<path d="M66.1018 192.785C65.3418 189.2 65.0028 186.255 65.0858 183.952C65.1687 181.649 65.8063 179.418 66.9995 177.261C67.6795 175.973 68.5114 174.814 69.4991 173.777C70.4848 172.744 71.3713 171.682 72.1576 170.595C72.9419 169.509 73.5522 168.346 73.9893 167.11C74.4255 165.875 74.4579 164.377 74.0835 162.614C73.452 159.638 72.19 157.73 70.2986 156.893C68.4071 156.056 66.3356 155.876 64.0889 156.353C60.8677 157.036 58.8407 158.404 58.0058 160.452C57.1699 162.504 56.923 165.079 57.264 168.182L45.5076 170.675C44.8761 167.699 44.7881 164.892 45.2445 162.255C45.7009 159.619 46.6451 157.259 48.0771 155.178C49.508 153.097 51.3883 151.333 53.717 149.886C56.0435 148.44 58.7274 147.394 61.7664 146.75C68.3282 145.358 73.791 145.597 78.1568 147.464C82.5205 149.333 85.342 153.274 86.6171 159.289C87.03 161.235 87.1919 162.977 87.1069 164.519C87.0209 166.062 86.7082 167.509 86.1708 168.861C85.6314 170.213 84.8946 171.529 83.9596 172.806C83.0235 174.085 81.9426 175.424 80.7171 176.826C79.5989 178.144 78.7235 179.329 78.09 180.384C77.4565 181.439 77.0294 182.499 76.8118 183.559C76.5922 184.622 76.5345 185.699 76.6388 186.787C76.742 187.876 76.9373 189.09 77.2207 190.426L66.1018 192.785ZM69.4687 210.452L66.9357 198.513L79.2396 195.903L81.7716 207.842L69.4687 210.452Z" fill="#FDB6D6"/>
</svg>
