<svg width="100" height="100" viewBox="0 0 100 100" fill="none" xmlns="http://www.w3.org/2000/svg">
<g clip-path="url(#clip0_911_32)">
<path d="M100 49.9999C99.9853 61.6689 95.8954 72.9662 88.4368 81.9403C80.9782 90.9143 70.6194 97.0014 59.15 99.1499C56.1336 99.7212 53.07 100.006 50 99.9999C39.0046 100.003 28.3153 96.3788 19.5889 89.6893C10.8625 82.9999 4.58636 73.6187 1.73332 62.9999C1.56655 62.4333 1.43332 61.8666 1.29999 61.2833L14.5833 52.0833L20 48.3333L50 66.6666L92.6833 23.9833C92.9834 24.4666 93.2667 24.9666 93.5667 25.4666C97.5173 32.4473 99.7136 40.2829 99.9667 48.2999C99.9833 48.8666 100 49.4333 100 49.9999Z" fill="#30B470"/>
<path d="M92.6833 23.9834L50 66.6667L20 48.3334L1.29997 61.2834C1.16664 60.7 1.0333 60.1167 0.916636 59.5167C-1.29156 48.1497 0.5153 36.3686 6.02858 26.1858C11.5419 16.0031 20.4195 8.05036 31.1451 3.68613C41.8707 -0.678092 53.7789 -1.18307 64.8354 2.25746C75.892 5.69799 85.4111 12.8706 91.7666 22.55C92.0833 23.0167 92.3832 23.5 92.6833 23.9834Z" fill="#EFF1F4"/>
<path d="M93.5667 25.4667L50.25 68.7667L20.05 50.3167L1.73335 63.0001C1.56659 62.4334 1.43335 61.8667 1.30002 61.2834C1.16669 60.7001 1.03335 60.1167 0.916687 59.5167L19.95 46.35L49.75 64.5667L91.7668 22.55C92.0834 23.0167 92.3832 23.5 92.6833 23.9834C92.9834 24.4667 93.2667 24.9667 93.5667 25.4667Z" fill="#4F5564"/>
<path d="M20 9.99998V45H21.6667V8.81665L20 9.99998Z" fill="#CFD1D7"/>
<path d="M78.3333 8.81662V31.6666H76.6666V7.69995L78.3333 8.81662Z" fill="#CFD1D7"/>
<path d="M50 0V60H48.3333V0.05L50 0Z" fill="#CFD1D7"/>
<path opacity="0.2" d="M100 50C100.01 56.2356 98.8395 62.4167 96.5499 68.2167L72.5 44.1667L84.1667 32.5L99.9667 48.3C99.9833 48.8667 100 49.4333 100 50Z" fill="black"/>
<path opacity="0.2" d="M82.75 87.75C76.0538 93.6064 67.8999 97.5451 59.15 99.15L13.3333 53.3333L25 41.6666L49.1666 65.8333L55 60L55.8333 60.8333L82.75 87.75Z" fill="black"/>
<path d="M78.3333 46.6667C82.9357 46.6667 86.6667 42.9357 86.6667 38.3333C86.6667 33.731 82.9357 30 78.3333 30C73.731 30 70 33.731 70 38.3333C70 42.9357 73.731 46.6667 78.3333 46.6667Z" fill="#FDD303"/>
<path d="M78.3334 43.3334C81.0948 43.3334 83.3334 41.0948 83.3334 38.3334C83.3334 35.572 81.0948 33.3334 78.3334 33.3334C75.572 33.3334 73.3334 35.572 73.3334 38.3334C73.3334 41.0948 75.572 43.3334 78.3334 43.3334Z" fill="#FCB115"/>
<path d="M78.3333 40C79.2538 40 80 39.2538 80 38.3333C80 37.4128 79.2538 36.6666 78.3333 36.6666C77.4128 36.6666 76.6666 37.4128 76.6666 38.3333C76.6666 39.2538 77.4128 40 78.3333 40Z" fill="white"/>
<path d="M50 75C54.6024 75 58.3334 71.2691 58.3334 66.6667C58.3334 62.0643 54.6024 58.3334 50 58.3334C45.3976 58.3334 41.6667 62.0643 41.6667 66.6667C41.6667 71.2691 45.3976 75 50 75Z" fill="#FDD303"/>
<path d="M50 71.6666C52.7614 71.6666 55 69.428 55 66.6666C55 63.9052 52.7614 61.6666 50 61.6666C47.2386 61.6666 45 63.9052 45 66.6666C45 69.428 47.2386 71.6666 50 71.6666Z" fill="#FCB115"/>
<path d="M50 68.3333C50.9205 68.3333 51.6666 67.5871 51.6666 66.6667C51.6666 65.7462 50.9205 65 50 65C49.0795 65 48.3333 65.7462 48.3333 66.6667C48.3333 67.5871 49.0795 68.3333 50 68.3333Z" fill="white"/>
<path d="M20 56.6667C24.6024 56.6667 28.3334 52.9357 28.3334 48.3333C28.3334 43.731 24.6024 40 20 40C15.3976 40 11.6667 43.731 11.6667 48.3333C11.6667 52.9357 15.3976 56.6667 20 56.6667Z" fill="#FDD303"/>
<path d="M20 53.3334C22.7614 53.3334 25 51.0948 25 48.3334C25 45.572 22.7614 43.3334 20 43.3334C17.2386 43.3334 15 45.572 15 48.3334C15 51.0948 17.2386 53.3334 20 53.3334Z" fill="#FCB115"/>
<path d="M20 50C20.9205 50 21.6666 49.2538 21.6666 48.3333C21.6666 47.4128 20.9205 46.6666 20 46.6666C19.0795 46.6666 18.3333 47.4128 18.3333 48.3333C18.3333 49.2538 19.0795 50 20 50Z" fill="white"/>
<g clip-path="url(#clip1_911_32)">
<path d="M100 50.5C100 60.3891 97.0676 70.0561 91.5735 78.2786C86.0794 86.501 78.2705 92.9096 69.1342 96.694C59.9979 100.478 49.9446 101.469 40.2455 99.5393C30.5465 97.61 21.6373 92.848 14.6447 85.8554C7.65206 78.8628 2.89002 69.9536 0.960759 60.2546C-0.968503 50.5555 0.0216643 40.5022 3.80605 31.3659C7.59043 22.2296 13.9991 14.4206 22.2215 8.92657C30.444 3.4325 40.111 0.500051 50 0.500051C56.5687 0.490677 63.0748 1.77757 69.1453 4.28698C75.2158 6.7964 80.7315 10.479 85.3763 15.1238C90.0211 19.7686 93.7037 25.2843 96.2131 31.3548C98.7225 37.4253 100.009 43.9313 100 50.5Z" fill="#219EBC"/>
<path d="M68.3334 51.8333V68.5167C66.4308 63.6452 62.7745 59.6618 58.0834 57.35C57.9667 57.3 57.85 57.2333 57.7334 57.1833C55.3095 56.0639 52.6698 55.4893 50 55.5C47.4613 55.4973 44.9488 56.0134 42.6167 57.0167C42.4969 57.0654 42.38 57.121 42.2667 57.1833C37.412 59.4637 33.6177 63.5205 31.6667 68.5167V51.8333C33.1495 48.0885 35.6705 44.8448 38.9334 42.4833C39.0541 42.3797 39.1822 42.285 39.3167 42.2C42.5142 39.9613 46.3344 38.7841 50.2374 38.835C54.1403 38.8858 57.9286 40.1621 61.0667 42.4833C61.2 42.5667 61.3334 42.6667 61.4667 42.7667C64.5314 45.1143 66.9041 48.2471 68.3334 51.8333Z" fill="#EAE9F0"/>
<path d="M30.5139 73.8333C30.1824 73.8332 29.8645 73.7015 29.6301 73.4671C29.3957 73.2327 29.2639 72.9148 29.2639 72.5833V50.9166C29.2639 50.5851 29.3956 50.2672 29.63 50.0327C29.8644 49.7983 30.1823 49.6666 30.5139 49.6666C30.8454 49.6666 31.1633 49.7983 31.3977 50.0327C31.6322 50.2672 31.7639 50.5851 31.7639 50.9166V72.5833C31.7638 72.9148 31.632 73.2327 31.3976 73.4671C31.1632 73.7015 30.8453 73.8332 30.5139 73.8333Z" fill="#FDD303"/>
<path d="M69.4722 73.8333C69.1407 73.8332 68.8228 73.7015 68.5884 73.4671C68.354 73.2327 68.2223 72.9148 68.2222 72.5833V50.9166C68.2222 50.5851 68.3539 50.2672 68.5883 50.0327C68.8227 49.7983 69.1406 49.6666 69.4722 49.6666C69.8037 49.6666 70.1216 49.7983 70.3561 50.0327C70.5905 50.2672 70.7222 50.5851 70.7222 50.9166V72.5833C70.7221 72.9148 70.5904 73.2327 70.356 73.4671C70.1216 73.7015 69.8037 73.8332 69.4722 73.8333Z" fill="#FDD303"/>
<path d="M61.0667 42.4833C60.6779 47.5196 59.5549 52.472 57.7333 57.1833C55.3095 56.0639 52.6698 55.4893 50 55.5C47.4613 55.4973 44.9488 56.0134 42.6167 57.0167C42.4969 57.0654 42.38 57.121 42.2667 57.1833C40.4451 52.472 39.3221 47.5196 38.9333 42.4833C39.054 42.3797 39.1822 42.285 39.3167 42.2C42.5142 39.9613 46.3344 38.7841 50.2374 38.835C54.1403 38.8858 57.9286 40.1621 61.0667 42.4833Z" fill="#E0DFE6"/>
<path d="M54.993 58.8333C54.993 58.8333 59.993 52.1667 59.993 30.5C59.993 8.83333 49.993 0.5 49.993 0.5C49.993 0.5 39.993 8.83333 39.993 30.5C39.993 52.1667 44.993 58.8333 44.993 58.8333H54.993Z" fill="#F9553F"/>
<path d="M80 90.5C71.3452 96.9911 60.8185 100.5 50 100.5C39.1815 100.5 28.6548 96.9911 20 90.5H21.6667C21.6667 90.5 25 90.5 26.6667 85.5C28.3333 80.5 31.6667 80.5 38.3333 80.5C45 80.5 50 62.1666 50 62.1666C50 62.1666 55 80.5 61.6667 80.5C68.3333 80.5 71.6667 80.5 73.3333 85.5C75 90.5 78.3333 90.5 78.3333 90.5H80Z" fill="#ECF1F2"/>
<path d="M57.843 14.5167C52.6493 13.6056 47.3367 13.6056 42.143 14.5167C45.0763 4.6 49.993 0.5 49.993 0.5C49.993 0.5 54.9098 4.6 57.843 14.5167Z" fill="#3A4946"/>
<path d="M49.993 27.1666C52.7545 27.1666 54.993 24.928 54.993 22.1666C54.993 19.4052 52.7545 17.1666 49.993 17.1666C47.2316 17.1666 44.993 19.4052 44.993 22.1666C44.993 24.928 47.2316 27.1666 49.993 27.1666Z" fill="#FDD303"/>
<path d="M49.9931 39.6667C51.834 39.6667 53.3264 38.1743 53.3264 36.3333C53.3264 34.4924 51.834 33 49.9931 33C48.1521 33 46.6597 34.4924 46.6597 36.3333C46.6597 38.1743 48.1521 39.6667 49.9931 39.6667Z" fill="#FDD303"/>
<path d="M49.993 50.5C51.3738 50.5 52.493 49.3807 52.493 48C52.493 46.6193 51.3738 45.5 49.993 45.5C48.6123 45.5 47.493 46.6193 47.493 48C47.493 49.3807 48.6123 50.5 49.993 50.5Z" fill="#FDD303"/>
<path d="M44.993 58.8334H54.993V62.1667C54.993 62.6087 54.8174 63.0327 54.5049 63.3452C54.1923 63.6578 53.7684 63.8334 53.3264 63.8334H46.6597C46.2177 63.8334 45.7938 63.6578 45.4812 63.3452C45.1686 63.0327 44.993 62.6087 44.993 62.1667V58.8334Z" fill="#3A4946"/>
<path d="M16.6667 20.5C17.5871 20.5 18.3333 19.7538 18.3333 18.8333C18.3333 17.9128 17.5871 17.1666 16.6667 17.1666C15.7462 17.1666 15 17.9128 15 18.8333C15 19.7538 15.7462 20.5 16.6667 20.5Z" fill="#BFC1EF"/>
<path d="M26.6667 37.1667C27.5871 37.1667 28.3333 36.4205 28.3333 35.5C28.3333 34.5796 27.5871 33.8334 26.6667 33.8334C25.7462 33.8334 25 34.5796 25 35.5C25 36.4205 25.7462 37.1667 26.6667 37.1667Z" fill="#BFC1EF"/>
<path d="M33.3334 13.8333C34.2538 13.8333 35 13.0871 35 12.1667C35 11.2462 34.2538 10.5 33.3334 10.5C32.4129 10.5 31.6667 11.2462 31.6667 12.1667C31.6667 13.0871 32.4129 13.8333 33.3334 13.8333Z" fill="#BFC1EF"/>
<path d="M70 20.5C70.9205 20.5 71.6667 19.7538 71.6667 18.8333C71.6667 17.9128 70.9205 17.1666 70 17.1666C69.0796 17.1666 68.3334 17.9128 68.3334 18.8333C68.3334 19.7538 69.0796 20.5 70 20.5Z" fill="#BFC1EF"/>
<path d="M73.3333 40.5C74.2538 40.5 75 39.7538 75 38.8333C75 37.9128 74.2538 37.1666 73.3333 37.1666C72.4128 37.1666 71.6666 37.9128 71.6666 38.8333C71.6666 39.7538 72.4128 40.5 73.3333 40.5Z" fill="#BFC1EF"/>
<path d="M83.3333 57.1667C84.2538 57.1667 85 56.4205 85 55.5C85 54.5796 84.2538 53.8334 83.3333 53.8334C82.4128 53.8334 81.6666 54.5796 81.6666 55.5C81.6666 56.4205 82.4128 57.1667 83.3333 57.1667Z" fill="#BFC1EF"/>
<path d="M16.6667 53.8333C17.5871 53.8333 18.3333 53.0871 18.3333 52.1667C18.3333 51.2462 17.5871 50.5 16.6667 50.5C15.7462 50.5 15 51.2462 15 52.1667C15 53.0871 15.7462 53.8333 16.6667 53.8333Z" fill="#BFC1EF"/>
<path opacity="0.3" d="M50.3833 0.866724C48.924 5.0992 47.9129 9.47316 47.3667 13.9167C46.6676 18.8578 46.3278 23.8431 46.35 28.8334C46.2131 38.9037 47.1461 48.9601 49.1333 58.8334H46.35C46.35 58.8334 42.1833 52.1667 42.1833 30.5001C42.1274 25.1177 42.7376 19.7492 44 14.5167H43.9833C43.9978 14.4369 44.0201 14.3588 44.05 14.2834C44.05 14.2667 44.0667 14.2334 44.0667 14.2167C44.1333 13.9167 44.2 13.6501 44.2833 13.3667C44.4167 12.9001 44.5333 12.4501 44.6667 12.0001C44.75 11.7501 44.8333 11.4834 44.9167 11.2334C45.1 10.6167 45.3167 10.0167 45.5167 9.45006C45.6 9.25006 45.6833 9.06672 45.7667 8.86672C45.9167 8.46672 46.0667 8.08339 46.2167 7.70006C46.3 7.50006 46.3833 7.31672 46.4667 7.11672C46.6833 6.68339 46.8667 6.25006 47.0667 5.85006C47.1167 5.73339 47.1833 5.61672 47.25 5.48339C47.4333 5.13339 47.6167 4.78339 47.7833 4.46672C47.8667 4.33339 47.95 4.20006 48.0167 4.06672C48.1833 3.78339 48.3333 3.51672 48.4833 3.28339L48.6333 3.03339C48.8167 2.73339 49 2.46672 49.1667 2.21672C49.2333 2.13339 49.2833 2.06672 49.3333 2.00006C49.4667 1.81672 49.5667 1.66672 49.6833 1.51672C49.7167 1.46672 49.7667 1.40006 49.8 1.35006C49.9333 1.18339 50.05 1.03339 50.15 0.916724C50.1771 0.893267 50.1997 0.86502 50.2167 0.83339L50.2833 0.766724L50.3833 0.866724Z" fill="white"/>
</g>
</g>
<defs>
<clipPath id="clip0_911_32">
<rect width="100" height="100" fill="white"/>
</clipPath>
<clipPath id="clip1_911_32">
<rect width="100" height="100" fill="white" transform="translate(0 0.5)"/>
</clipPath>
</defs>
</svg>
