<svg width="456" height="291" viewBox="0 0 456 291" fill="none" xmlns="http://www.w3.org/2000/svg">
<path d="M75.4822 289.649C75.4822 289.649 9.07866 275.62 5.69324 226.054C1.7966 169.005 55.3866 168.376 47.1661 127.025C35.6918 69.3074 58.1306 34.9289 108.407 37.2998C150.8 39.2991 186.562 74.7655 209.242 44.2768C233.702 11.3952 279.457 -12.9 324.735 7.46589C370.013 27.8318 363.342 94.0124 394.656 108.075C425.97 122.137 459.881 159.227 454.419 210.534C449.296 258.67 407.739 290.652 369.231 290.167C350.36 289.93 277.117 290.433 211.296 290.167C142.801 289.89 75.4822 289.649 75.4822 289.649Z" fill="#E4F2FF"/>
<path d="M405.594 98.0943C405.594 98.0943 393.321 72.8241 414.267 60.6575C436.816 47.5597 454.102 71.8916 448.78 91.9254C443.457 111.96 412.127 111.071 405.594 98.0943Z" fill="#E4F2FF"/>
<path d="M17.7958 116.747C17.7958 116.747 7.40546 108.42 14.8952 97.3687C22.3849 86.3176 40.3907 91.9636 37.5138 105.287C36.2024 111.359 28.8601 124.676 17.7958 116.747Z" fill="#E4F2FF"/>
<path d="M362.842 289.86C357.385 290.269 335.351 290.646 339.252 270.71C341.245 260.528 336.174 259.404 331.273 254.272C326.372 249.14 326.959 246.606 328.458 240.986C329.956 235.365 323.207 237.286 321.902 228.827C320.598 220.368 325.536 213.292 334.085 213.337C342.633 213.383 340.716 222.856 343.501 226.355C346.285 229.853 350.6 226.631 353.453 234.968C356.306 243.305 352.148 248.286 357.617 251.544C358.595 252.127 359.633 252.944 360.684 253.931" stroke="#2E4ECC" stroke-miterlimit="10"/>
<path d="M353.671 267.185C349.445 258 344.971 248.946 340.275 240.025C338.687 237.009 337.072 234.008 335.434 231.022C335.111 230.434 334.254 230.967 334.578 231.557C339.849 241.163 344.865 250.928 349.596 260.85C350.685 263.132 351.757 265.422 352.815 267.72C353.096 268.332 353.952 267.796 353.671 267.185Z" fill="#2E4ECC"/>
<path d="M331.846 248.09C335.477 248.493 339.108 248.895 342.739 249.298C343.262 249.356 343.785 249.413 344.307 249.471C344.942 249.542 344.937 248.482 344.307 248.412C340.676 248.01 337.045 247.607 333.414 247.205C332.891 247.147 332.368 247.089 331.846 247.031C331.211 246.96 331.216 248.02 331.846 248.09Z" fill="#2E4ECC"/>
<path d="M336.2 241.343C336.2 242.306 335.356 243.087 334.316 243.087C333.276 243.087 332.432 242.306 332.432 241.343C332.432 240.38 333.276 239.599 334.316 239.599C335.357 239.599 336.2 240.38 336.2 241.343Z" stroke="#2E4ECC" stroke-miterlimit="10"/>
<path d="M340.398 225.664C339.878 226.626 338.726 226.956 337.824 226.4C336.923 225.844 336.615 224.614 337.135 223.651C337.655 222.688 338.807 222.358 339.708 222.914C340.609 223.47 340.918 224.701 340.398 225.664Z" stroke="#2E4ECC" stroke-miterlimit="10"/>
<path d="M347.985 271.333C347.985 272.533 346.933 273.507 345.636 273.507C344.339 273.507 343.288 272.533 343.288 271.333C343.288 270.132 344.339 269.159 345.636 269.159C346.933 269.158 347.985 270.132 347.985 271.333Z" stroke="#2E4ECC" stroke-miterlimit="10"/>
<path d="M337.036 220.509C337.036 221.003 336.661 221.404 336.199 221.404C335.736 221.404 335.361 221.003 335.361 220.509C335.361 220.015 335.736 219.615 336.199 219.615C336.661 219.615 337.036 220.015 337.036 220.509Z" stroke="#2E4ECC" stroke-miterlimit="10"/>
<path d="M394.943 287.925C390.426 284.484 389.981 262.659 408.497 258.241C417.953 255.985 416.438 250.929 418.349 244.424C420.26 237.92 422.658 237.441 428.071 236.559C433.484 235.676 429.419 227.794 435.845 223.23C442.27 218.665 450.894 218.315 454.107 228.291C456.827 236.737 449.122 240.458 447.551 244.386C445.979 248.314 450.55 253.617 444.976 259.541C439.401 265.464 433.438 261.005 433.365 267.278C433.293 273.55 430.683 284.98 425.023 287.331C418.021 290.239 398.509 290.641 394.943 287.925Z" stroke="#2E4ECC" stroke-miterlimit="10"/>
<path d="M401.24 290.414C403.751 287.213 406.359 284.096 408.876 280.898C415.096 272.995 421.171 264.961 427.104 256.81C431.401 250.907 435.621 244.94 439.753 238.905C440.131 238.354 439.271 237.825 438.897 238.37C431.933 248.54 424.723 258.516 417.307 268.314C412.668 274.443 407.953 280.507 403.134 286.476C402.273 287.542 401.385 288.586 400.539 289.665C400.131 290.184 400.829 290.938 401.24 290.414Z" fill="#2E4ECC"/>
<path d="M407.528 258.494C407.111 254.841 406.572 251.263 406.263 247.936C405.012 234.408 422.464 240.455 429.416 223.096C436.368 205.737 419.349 199.429 427.353 192.165C435.357 184.901 437.591 159.941 425.867 155.649C410.669 150.084 397.009 160.263 395.152 173.67C393.72 184.012 400.211 191.234 383.318 198.815C366.425 206.396 369.035 215.81 372.505 233.815C375.975 251.82 364.559 245.218 355.687 260.417C348.657 272.46 358.537 284.744 362.942 289.325L397.134 289.952" stroke="#2E4ECC" stroke-miterlimit="10"/>
<path d="M369.914 289.328C371.308 285.892 372.708 282.457 374.108 279.024C377.546 270.597 380.996 262.175 384.459 253.76C388.871 243.036 393.305 232.322 397.773 221.625C402.087 211.297 406.428 200.981 410.857 190.709C413.986 183.45 417.102 176.168 420.535 169.065C420.796 168.525 421.06 167.987 421.328 167.452C421.63 166.851 420.773 166.315 420.472 166.917C417.198 173.444 414.319 180.21 411.405 186.925C407.05 196.963 402.793 207.05 398.565 217.149C394.046 227.939 389.567 238.747 385.11 249.566C381.47 258.399 377.846 267.238 374.234 276.085C372.53 280.257 370.725 284.402 369.128 288.622C369.106 288.68 369.081 288.737 369.058 288.794C368.806 289.412 369.661 289.952 369.914 289.328Z" fill="#2E4ECC"/>
<path d="M401.064 213.285C407.758 212.889 414.452 212.494 421.146 212.098C422.093 212.042 423.041 211.986 423.988 211.93C424.623 211.893 424.627 210.833 423.988 210.87C417.294 211.266 410.601 211.662 403.906 212.057C402.959 212.113 402.011 212.169 401.064 212.225C400.429 212.263 400.425 213.322 401.064 213.285Z" fill="#2E4ECC"/>
<path d="M377.918 269.059C383.198 268.425 388.479 267.791 393.759 267.156C394.505 267.067 395.251 266.977 395.997 266.887C396.624 266.812 396.632 265.751 395.997 265.827C390.717 266.462 385.436 267.096 380.156 267.731C379.41 267.82 378.664 267.91 377.918 268C377.29 268.075 377.283 269.136 377.918 269.059Z" fill="#2E4ECC"/>
<path d="M375.764 207.814C377.282 211.455 378.8 215.096 380.319 218.737C382.737 224.536 385.156 230.335 387.575 236.135C388.127 237.461 388.68 238.787 389.233 240.112C389.492 240.734 390.348 240.196 390.09 239.577C388.571 235.936 387.053 232.296 385.534 228.655C383.116 222.855 380.697 217.056 378.279 211.257C377.726 209.931 377.173 208.605 376.62 207.279C376.361 206.658 375.506 207.196 375.764 207.814Z" fill="#2E4ECC"/>
<path d="M408.845 170.707C407.724 172.466 405.772 173.134 404.486 172.198C403.199 171.263 403.065 169.077 404.185 167.318C405.306 165.559 407.259 164.891 408.545 165.827C409.832 166.763 409.966 168.947 408.845 170.707Z" stroke="#2E4ECC" stroke-miterlimit="10"/>
<path d="M409.668 180.218C409.668 181.148 408.962 181.902 408.092 181.902C407.222 181.902 406.516 181.148 406.516 180.218C406.516 179.289 407.222 178.535 408.092 178.535C408.962 178.535 409.668 179.289 409.668 180.218Z" stroke="#2E4ECC" stroke-miterlimit="10"/>
<path d="M421.095 223.643C421.095 225.449 419.724 226.915 418.033 226.915C416.341 226.915 414.97 225.45 414.97 223.643C414.97 221.837 416.341 220.371 418.033 220.371C419.724 220.371 421.095 221.837 421.095 223.643Z" stroke="#2E4ECC" stroke-miterlimit="10"/>
<path d="M196.929 289.949C197.799 286.599 197.824 282.869 198.213 279.702C199.056 272.85 208.338 278.493 214.314 271.007C220.289 263.522 211.286 257.816 216.7 255.461C222.113 253.107 225.793 242.35 220.059 237.254C212.97 230.953 203.028 235.118 200.421 241.437C198.41 246.31 201.289 250.858 190.757 252.01C180.225 253.163 180.633 258.198 180.541 267.593C180.449 276.988 174.683 271.994 167.859 278.123C163.991 281.596 165.055 286.45 166.702 290.005" stroke="#2E4ECC" stroke-miterlimit="10"/>
<path d="M176.101 290.621C181.266 284.246 186.448 277.885 191.653 271.546C197.582 264.325 203.525 257.114 209.594 250.028C211.764 247.495 213.93 244.94 216.239 242.55C216.698 242.074 215.997 241.325 215.538 241.8C210.623 246.889 206.134 252.489 201.583 257.941C195.406 265.341 189.292 272.8 183.197 280.277C180.593 283.471 177.994 286.669 175.4 289.873C174.984 290.386 175.683 291.139 176.101 290.621Z" fill="#2E4ECC"/>
<path d="M199.164 262.095C203.026 262.92 206.889 263.746 210.752 264.571C211.31 264.691 211.868 264.81 212.426 264.929C213.05 265.062 213.316 264.041 212.69 263.907C208.827 263.082 204.964 262.256 201.101 261.431C200.543 261.312 199.986 261.193 199.427 261.074C198.804 260.94 198.537 261.962 199.164 262.095Z" fill="#2E4ECC"/>
<path d="M185.197 255.362C186.355 260.589 187.512 265.816 188.67 271.043C188.838 271.803 189.007 272.562 189.175 273.322C189.321 273.986 190.278 273.705 190.131 273.04C188.973 267.813 187.816 262.586 186.658 257.36C186.49 256.6 186.321 255.84 186.153 255.08C186.006 254.417 185.05 254.698 185.197 255.362Z" fill="#2E4ECC"/>
<path d="M208.591 242.068C207.747 242.764 206.554 242.794 205.926 242.137C205.299 241.48 205.473 240.384 206.317 239.688C207.161 238.993 208.354 238.963 208.982 239.62C209.609 240.278 209.434 241.373 208.591 242.068Z" stroke="#2E4ECC" stroke-miterlimit="10"/>
<path d="M209.492 270.005C209.284 270.895 208.332 271.407 207.364 271.148C206.397 270.89 205.782 269.96 205.991 269.07C206.199 268.181 207.151 267.668 208.119 267.927C209.086 268.185 209.701 269.115 209.492 270.005Z" stroke="#2E4ECC" stroke-miterlimit="10"/>
<path d="M36.5106 289.286C32.8712 290.304 16.4123 293.223 16.6755 279.216C16.8098 272.063 14.8582 272.323 10.9337 269.52C7.00998 266.717 7.10521 264.924 7.44911 260.921C7.79301 256.918 4.05774 258.857 1.57043 253.593C-1.40562 247.296 2.17754 242.598 7.96099 241.467C13.7444 240.337 13.5765 247 15.8753 248.987C18.1741 250.973 21.3519 246.702 25.769 252.493C28.6525 256.274 24.1758 264.9 28.417 264.096" stroke="#2E4ECC" stroke-miterlimit="10"/>
<path d="M28.925 276.817C23.2744 268.661 17.3065 260.758 11.072 253.103C10.652 252.588 9.95298 253.34 10.3703 253.853C16.5499 261.439 22.4683 269.268 28.0685 277.353C28.4442 277.894 29.3052 277.367 28.925 276.817Z" fill="#2E4ECC"/>
<path d="M19.3282 252.734C19.1199 256.067 18.9109 259.4 18.7026 262.733C18.6728 263.204 18.6437 263.675 18.6139 264.145C18.7793 263.969 18.9446 263.792 19.1099 263.615C16.2476 263.869 13.3847 264.122 10.5217 264.376C9.89015 264.431 9.88419 265.492 10.5217 265.435C13.3847 265.182 16.247 264.929 19.1099 264.675C19.391 264.65 19.5868 264.452 19.606 264.145C19.8143 260.812 20.0233 257.479 20.2316 254.146C20.2607 253.676 20.2904 253.204 20.3202 252.734C20.3625 252.053 19.3705 252.056 19.3282 252.734Z" fill="#2E4ECC"/>
<path d="M10.8067 206.457C3.62786 200.21 1.91167 180.915 12.1394 175.056C24.7856 167.812 38.0244 179.024 39.6896 190.552C40.9746 199.445 35.1522 205.656 50.3042 212.174C65.4563 218.694 63.1151 226.789 60.0028 242.271C56.8899 257.754 67.1301 252.077 75.0881 265.146C81.394 275.502 72.532 286.065 68.5811 290.005L37.5885 289.843C36.5846 289.211 35.6224 288.506 34.7176 287.716C24.7082 278.977 28.6849 265.168 29.7232 254.414C30.8461 242.783 15.1915 247.982 8.95631 233.055C2.72049 218.128 17.9856 212.704 10.8067 206.457Z" stroke="#2E4ECC" stroke-miterlimit="10"/>
<path d="M63.1403 289.511C61.8943 286.566 60.6437 283.624 59.3918 280.683C56.3092 273.439 53.2161 266.2 50.1111 258.967C46.1516 249.743 42.175 240.528 38.1666 231.327C34.2838 222.415 30.3766 213.514 26.3913 204.653C23.5912 198.427 20.8017 192.179 17.735 186.096C17.5009 185.631 17.2641 185.168 17.0227 184.708C16.7112 184.112 15.8541 184.646 16.1663 185.243C19.0908 190.833 21.6693 196.641 24.2783 202.403C28.1842 211.033 32.0028 219.707 35.797 228.393C39.851 237.674 43.8707 246.973 47.8711 256.28C51.1461 263.899 54.4079 271.526 57.6584 279.157C58.6934 281.588 59.7277 284.019 60.7601 286.452C61.2409 287.585 61.6516 288.811 62.221 289.897C62.2455 289.944 62.2633 289.997 62.2838 290.046C62.5464 290.666 63.4015 290.128 63.1403 289.511Z" fill="#2E4ECC"/>
<path d="M34.387 223.632C28.3767 223.292 22.3671 222.951 16.3568 222.611C15.5129 222.563 14.669 222.515 13.8251 222.467C13.1869 222.431 13.1889 223.491 13.8251 223.527C19.8354 223.868 25.8451 224.208 31.8554 224.549C32.6992 224.597 33.5431 224.644 34.387 224.692C35.0252 224.728 35.0232 223.668 34.387 223.632Z" fill="#2E4ECC"/>
<path d="M55.1492 271.594C48.4101 270.818 41.6704 270.041 34.9313 269.265C33.9624 269.153 32.9942 269.042 32.0253 268.93C31.3911 268.857 31.3964 269.917 32.0253 269.99C38.7644 270.766 45.5042 271.542 52.2433 272.319C53.2121 272.43 54.1804 272.542 55.1492 272.654C55.7828 272.727 55.7782 271.667 55.1492 271.594Z" fill="#2E4ECC"/>
<path d="M56.2689 219.416C54.9045 222.553 53.5402 225.69 52.1752 228.826C50.0126 233.798 47.85 238.768 45.6874 243.74C45.1867 244.89 44.6868 246.04 44.1868 247.19C43.9196 247.805 44.7741 248.344 45.0432 247.725C46.4076 244.588 47.7719 241.451 49.1369 238.315C51.2995 233.343 53.4621 228.373 55.6247 223.401C56.1254 222.251 56.6253 221.101 57.126 219.951C57.3925 219.336 56.538 218.798 56.2689 219.416Z" fill="#2E4ECC"/>
<path d="M33.3017 205.484C34.3076 206.997 36.0582 207.571 37.2122 206.767C38.3663 205.962 38.4866 204.084 37.4814 202.571C36.4762 201.059 34.7249 200.485 33.5709 201.289C32.4162 202.092 32.2958 203.972 33.3017 205.484Z" stroke="#2E4ECC" stroke-miterlimit="10"/>
<path d="M26.6697 196.184C26.6697 196.983 27.3026 197.631 28.0837 197.631C28.8647 197.631 29.4976 196.983 29.4976 196.184C29.4976 195.384 28.8647 194.736 28.0837 194.736C27.3026 194.736 26.6697 195.385 26.6697 196.184Z" stroke="#2E4ECC" stroke-miterlimit="10"/>
<path d="M31.606 191.167C31.606 192.507 32.6662 193.592 33.9743 193.592C35.2824 193.592 36.3426 192.507 36.3426 191.167C36.3426 189.828 35.2824 188.742 33.9743 188.742C32.6668 188.742 31.606 189.828 31.606 191.167Z" stroke="#2E4ECC" stroke-miterlimit="10"/>
<path d="M16.4196 233.526C16.4196 235.079 17.6497 236.339 19.1668 236.339C20.6839 236.339 21.914 235.079 21.914 233.526C21.914 231.972 20.6839 230.713 19.1668 230.713C17.6497 230.713 16.4196 231.972 16.4196 233.526Z" stroke="#2E4ECC" stroke-miterlimit="10"/>
<path d="M81.232 289.897C81.8523 289.506 82.4469 289.07 83.0064 288.582C89.1926 283.181 86.735 274.647 86.0929 268C85.3984 260.811 95.0739 264.025 98.9276 254.799C102.781 245.574 93.3471 242.222 97.7841 238.361C102.221 234.501 103.282 222.575 96.9607 218.954C89.145 214.477 80.9628 221.406 79.9338 228.531C79.1395 234.027 82.7379 237.866 73.3739 241.895C70.1584 243.278 68.2174 244.776 67.1328 246.535" stroke="#2E4ECC" stroke-miterlimit="10"/>
<path d="M76.1773 266.614C81.2935 254.734 86.3885 242.831 91.8386 231.12C92.7407 229.182 93.6474 227.243 94.6348 225.353C94.9463 224.756 94.0898 224.222 93.7783 224.818C91.7209 228.758 89.9181 232.859 88.0888 236.922C85.3574 242.99 82.6856 249.089 80.0303 255.195C78.4537 258.82 76.885 262.448 75.3216 266.079C75.0557 266.694 75.9108 267.233 76.1773 266.614Z" fill="#2E4ECC"/>
<path d="M83.2107 249.834C86.9136 249.624 90.6164 249.414 94.3193 249.204C94.8524 249.174 95.3854 249.143 95.9184 249.114C96.5533 249.078 96.5573 248.018 95.9184 248.054C92.2156 248.264 88.5127 248.474 84.8092 248.684C84.2761 248.714 83.7431 248.744 83.21 248.774C82.5758 248.81 82.5719 249.87 83.2107 249.834Z" fill="#2E4ECC"/>
<path d="M76.346 278.788C78.7718 278.508 81.1969 278.229 83.6227 277.95C83.9719 277.91 84.3211 277.87 84.6703 277.829C85.2986 277.757 85.3052 276.696 84.6703 276.77C82.2445 277.049 79.8194 277.328 77.3935 277.608C77.0444 277.648 76.6952 277.688 76.346 277.728C75.7184 277.8 75.7111 278.861 76.346 278.788Z" fill="#2E4ECC"/>
<path d="M68.9945 246.803C71.1756 251.816 73.356 256.83 75.5371 261.843C75.8453 262.551 76.1535 263.259 76.4617 263.968C76.7302 264.586 77.586 264.048 77.3182 263.433C75.137 258.42 72.9566 253.406 70.7755 248.393C70.4673 247.685 70.1591 246.977 69.8509 246.268C69.5824 245.651 68.7266 246.188 68.9945 246.803Z" fill="#2E4ECC"/>
<path d="M87.524 226.957C86.9023 227.892 85.8204 228.247 85.1075 227.75C84.3945 227.253 84.3198 226.092 84.9415 225.156C85.5631 224.222 86.6451 223.866 87.358 224.364C88.071 224.862 88.1457 226.023 87.524 226.957Z" stroke="#2E4ECC" stroke-miterlimit="10"/>
<path d="M94.3147 255.091C94.3147 256.051 93.5548 256.829 92.617 256.829C91.6792 256.829 90.9193 256.051 90.9193 255.091C90.9193 254.13 91.6792 253.352 92.617 253.352C93.5548 253.352 94.3147 254.13 94.3147 255.091Z" stroke="#2E4ECC" stroke-miterlimit="10"/>
<path d="M193.797 99.1033H175.338V155.056H193.797V99.1033Z" fill="#2E4ECC"/>
<path d="M219.971 74.683H201.512V155.056H219.971V74.683Z" fill="#2E4ECC"/>
<path d="M246.145 91.1676H227.686V155.056H246.145V91.1676Z" fill="#2E4ECC"/>
<path d="M272.319 105.336H253.86V155.056H272.319V105.336Z" fill="#2E4ECC"/>
<path d="M298.493 73.3414H280.034V155.056H298.493V73.3414Z" fill="#2E4ECC"/>
<path d="M324.667 96.6116H306.208V155.056H324.667V96.6116Z" fill="#2E4ECC"/>
<path d="M228.337 63.706C228.337 63.706 279.449 66.6103 313.565 32.3292" stroke="#2E4ECC" stroke-width="8" stroke-miterlimit="10" stroke-linecap="round"/>
<path d="M303.706 31.5379L313.068 42.0621L320.926 25.8933L303.706 31.5379Z" fill="#2E4ECC"/>
<path d="M167.35 37.5223H232.964" stroke="#2E4ECC" stroke-miterlimit="10" stroke-linecap="round"/>
<path d="M167.35 44.1023H232.964" stroke="#2E4ECC" stroke-miterlimit="10" stroke-linecap="round"/>
<path d="M167.35 50.683H212.153" stroke="#2E4ECC" stroke-miterlimit="10" stroke-linecap="round"/>
<path d="M345.015 15.4016H147.001V172.42H345.015V15.4016Z" stroke="#2E4ECC" stroke-miterlimit="10"/>
<path d="M130.592 69.9779H108.53C105.711 69.9779 103.426 72.2979 103.426 75.1598V84.3049V87.5031V97.5228L108.615 92.6857H130.591C133.41 92.6857 135.695 90.3657 135.695 87.5038V75.1605C135.696 72.2979 133.411 69.9779 130.592 69.9779Z" fill="white" stroke="#2E4ECC" stroke-miterlimit="10"/>
<path d="M120.128 86.7492L120.478 87.107L120.483 87.102L120.488 87.0969L120.128 86.7492ZM123.91 85.8269L124.076 86.299L124.089 86.2943L123.91 85.8269ZM125.601 84.525L125.197 84.2295L125.19 84.2394L125.601 84.525ZM125.743 80.206L125.314 80.463L125.322 80.4746L125.743 80.206ZM124.306 78.8668L124.066 79.3048L124.072 79.3082L124.306 78.8668ZM120.536 78.6608L120.355 78.1943L120.348 78.197L120.536 78.6608ZM119.108 79.5144L118.788 79.1296L118.783 79.1342L119.108 79.5144ZM117.844 80.1765L117.97 80.6604L117.977 80.6585L117.984 80.6565L117.844 80.1765ZM116.397 79.8046L116.092 80.201L116.095 80.2031L116.397 79.8046ZM115.573 78.4083L116.072 78.3743L115.573 78.4083ZM116.201 76.9325L116.551 77.2902L116.556 77.2854L116.201 76.9325ZM118.929 75.127L119.116 75.5908L119.121 75.5889L118.929 75.127ZM126.276 75.5691L126.02 75.9984L126.029 76.0036L126.276 75.5691ZM129.116 78.3114L128.689 78.5706L129.116 78.3114ZM129.626 85.0566L130.089 85.2457L130.09 85.2416L129.626 85.0566ZM128.217 87.1679L128.567 87.5257L128.217 87.1679ZM126.139 88.562L126.337 89.0213L126.343 89.0187L126.139 88.562ZM123.584 89.2732L123.509 88.7788L123.433 88.7901L123.365 88.8233L123.584 89.2732ZM123.454 89.3361L123.235 88.8863L123.162 88.9217L123.104 88.9784L123.454 89.3361ZM122.845 92.0374L123.195 92.3951L123.2 92.3901L123.205 92.385L122.845 92.0374ZM120.073 92.0044L119.706 92.3434L119.711 92.3486L119.716 92.3537L120.073 92.0044ZM119.786 97.8372L119.417 98.1748L119.428 98.1867L119.44 98.1979L119.786 97.8372ZM119.822 94.4198L119.472 94.062L119.822 94.4198ZM123.11 94.4589L122.742 94.7965L122.753 94.8084L122.764 94.8195L123.11 94.4589ZM123.074 97.8764L122.724 97.5186L122.724 97.5186L123.074 97.8764ZM119.565 88.1291L120.065 88.135C120.07 87.6969 120.212 87.3674 120.478 87.107L120.128 86.7492L119.778 86.3915C119.306 86.8532 119.073 87.4436 119.066 88.1231L119.565 88.1291ZM120.128 86.7492L120.488 87.0969C120.757 86.8186 121.086 86.6803 121.515 86.6854L121.521 86.1854L121.526 85.6855C120.837 85.6773 120.239 85.9148 119.768 86.4016L120.128 86.7492ZM121.521 86.1854L121.515 86.6854C122.445 86.6964 123.301 86.5705 124.076 86.2988L123.91 85.8269L123.745 85.355C123.096 85.5823 122.358 85.6954 121.526 85.6855L121.521 86.1854ZM123.91 85.8269L124.089 86.2943C124.89 85.9893 125.537 85.4943 126.012 84.8107L125.601 84.525L125.19 84.2394C124.836 84.7496 124.355 85.1225 123.732 85.3596L123.91 85.8269ZM125.601 84.525L126.005 84.8204C126.52 84.1155 126.76 83.2111 126.771 82.1529L126.271 82.1469L125.771 82.141C125.761 83.0601 125.554 83.7411 125.197 84.2296L125.601 84.525ZM126.271 82.1469L126.771 82.1529C126.779 81.3344 126.581 80.5902 126.164 79.9373L125.743 80.206L125.322 80.4746C125.624 80.9481 125.778 81.4978 125.771 82.141L126.271 82.1469ZM125.743 80.206L126.172 79.949C125.784 79.3027 125.235 78.7949 124.541 78.4255L124.306 78.8668L124.072 79.3082C124.617 79.5984 125.027 79.9834 125.315 80.4629L125.743 80.206ZM124.306 78.8668L124.547 78.429C123.867 78.0546 123.098 77.8688 122.253 77.8587L122.248 78.3587L122.243 78.8586C122.945 78.867 123.548 79.02 124.066 79.3047L124.306 78.8668ZM122.248 78.3587L122.253 77.8587C121.59 77.8509 120.956 77.962 120.355 78.1944L120.536 78.6608L120.717 79.1272C121.195 78.9425 121.702 78.8522 122.243 78.8586L122.248 78.3587ZM120.536 78.6608L120.348 78.197C119.782 78.4253 119.261 78.7366 118.788 79.1296L119.108 79.5144L119.428 79.8992C119.822 79.5716 120.254 79.3138 120.723 79.1246L120.536 78.6608ZM119.108 79.5144L118.783 79.1342C118.496 79.3794 118.14 79.5691 117.703 79.6964L117.844 80.1765L117.984 80.6565C118.539 80.4947 119.026 80.243 119.433 79.8945L119.108 79.5144ZM117.844 80.1765L117.717 79.6926C117.428 79.7678 117.1 79.7107 116.698 79.406L116.397 79.8046L116.095 80.2031C116.674 80.641 117.311 80.8318 117.97 80.6604L117.844 80.1765ZM116.397 79.8046L116.701 79.4082C116.278 79.0838 116.097 78.741 116.072 78.3743L115.573 78.4083L115.074 78.4422C115.123 79.1512 115.491 79.7393 116.092 80.201L116.397 79.8046ZM115.573 78.4083L116.072 78.3743C116.047 78.0099 116.178 77.6547 116.551 77.2902L116.201 76.9325L115.851 76.5748C115.312 77.1023 115.025 77.7309 115.074 78.4422L115.573 78.4083ZM116.201 76.9325L116.556 77.2854C117.29 76.5476 118.142 75.9833 119.116 75.5908L118.929 75.127L118.741 74.6632C117.643 75.1059 116.677 75.7453 115.847 76.5796L116.201 76.9325ZM118.929 75.127L119.121 75.5889C120.114 75.1768 121.167 74.9765 122.284 74.9898L122.289 74.4899L122.294 73.9899C121.046 73.9751 119.859 74.1995 118.737 74.6651L118.929 75.127ZM122.289 74.4899L122.284 74.9898C123.686 75.0065 124.927 75.3455 126.02 75.9983L126.276 75.5691L126.532 75.14C125.275 74.389 123.858 74.0085 122.294 73.9899L122.289 74.4899ZM126.276 75.5691L126.029 76.0036C127.153 76.6432 128.037 77.4978 128.689 78.5706L129.116 78.3114L129.544 78.0522C128.801 76.8299 127.791 75.8562 126.522 75.1346L126.276 75.5691ZM129.116 78.3114L128.689 78.5706C129.334 79.6325 129.654 80.8332 129.64 82.187L130.14 82.1929L130.64 82.1989C130.656 80.6725 130.293 79.2856 129.544 78.0522L129.116 78.3114ZM130.14 82.1929L129.64 82.187C129.629 83.2121 129.466 84.1041 129.161 84.8715L129.626 85.0566L130.09 85.2416C130.448 84.3402 130.628 83.3231 130.64 82.1989L130.14 82.1929ZM129.626 85.0566L129.163 84.8675C128.857 85.6191 128.425 86.2649 127.867 86.8102L128.217 87.1679L128.567 87.5257C129.225 86.8816 129.733 86.1199 130.089 85.2457L129.626 85.0566ZM128.217 87.1679L127.867 86.8102C127.326 87.3395 126.683 87.7717 125.935 88.1052L126.139 88.562L126.343 89.0187C127.192 88.6403 127.935 88.1432 128.567 87.5257L128.217 87.1679ZM126.139 88.562L125.94 88.1027C125.206 88.4187 124.397 88.645 123.509 88.7788L123.584 89.2732L123.659 89.7676C124.623 89.6224 125.516 89.3745 126.337 89.0212L126.139 88.562ZM123.584 89.2732L123.365 88.8233C123.322 88.8443 123.279 88.8653 123.235 88.8863L123.454 89.3361L123.673 89.786C123.716 89.765 123.76 89.744 123.803 89.723L123.584 89.2732ZM123.454 89.3361L123.104 88.9784C122.955 89.125 122.922 89.3065 122.921 89.4265L123.421 89.4325L123.921 89.4384C123.921 89.4725 123.91 89.5898 123.804 89.6939L123.454 89.3361ZM123.421 89.4325L122.921 89.4265L122.908 90.6194L123.408 90.6254L123.908 90.6313L123.921 89.4384L123.421 89.4325ZM123.408 90.6254L122.908 90.6194C122.904 91.0576 122.762 91.404 122.486 91.6898L122.845 92.0374L123.205 92.385C123.668 91.9058 123.901 91.3107 123.908 90.6313L123.408 90.6254ZM122.845 92.0374L122.496 91.6797C122.229 91.9401 121.897 92.0743 121.459 92.069L121.453 92.569L121.448 93.069C122.128 93.077 122.723 92.8568 123.195 92.3951L122.845 92.0374ZM121.453 92.569L121.459 92.069C121.02 92.0638 120.691 91.9218 120.43 91.6551L120.073 92.0044L119.716 92.3537C120.178 92.8265 120.769 93.0609 121.448 93.069L121.453 92.569ZM120.073 92.0044L120.44 91.6655C120.17 91.3731 120.035 91.0235 120.04 90.5853L119.54 90.5793L119.04 90.5734C119.033 91.2528 119.253 91.8532 119.706 92.3434L120.073 92.0044ZM119.54 90.5793L120.04 90.5853L120.065 88.135L119.565 88.1291L119.066 88.1231L119.04 90.5734L119.54 90.5793ZM121.231 98.3381L121.237 97.8381C120.698 97.8317 120.354 97.6898 120.131 97.4766L119.786 97.8372L119.44 98.1979C119.898 98.6377 120.518 98.8296 121.226 98.838L121.231 98.3381ZM119.786 97.8372L120.154 97.4996C119.946 97.2726 119.812 96.9249 119.817 96.3866L119.317 96.3807L118.817 96.3747C118.81 97.083 118.988 97.7064 119.417 98.1748L119.786 97.8372ZM119.317 96.3807L119.817 96.3866L119.823 95.8385L119.323 95.8326L118.823 95.8266L118.817 96.3747L119.317 96.3807ZM119.323 95.8326L119.823 95.8385C119.829 95.298 119.971 94.9736 120.171 94.7775L119.822 94.4198L119.472 94.062C119.021 94.5031 118.831 95.1206 118.823 95.8266L119.323 95.8326ZM119.822 94.4198L120.171 94.7775C120.399 94.5545 120.743 94.4148 121.273 94.4211L121.278 93.9212L121.283 93.4212C120.566 93.4127 119.939 93.6054 119.472 94.062L119.822 94.4198ZM121.278 93.9212L121.273 94.4211L121.692 94.4261L121.697 93.9262L121.702 93.4262L121.283 93.4212L121.278 93.9212ZM121.697 93.9262L121.692 94.4261C122.223 94.4324 122.544 94.5806 122.742 94.7965L123.11 94.4589L123.478 94.1213C123.039 93.6417 122.417 93.4347 121.702 93.4262L121.697 93.9262ZM123.11 94.4589L122.764 94.8195C122.976 95.0222 123.117 95.3459 123.111 95.8776L123.611 95.8836L124.111 95.8895C124.118 95.1747 123.925 94.5485 123.456 94.0982L123.11 94.4589ZM123.611 95.8836L123.111 95.8776L123.105 96.4257L123.605 96.4317L124.105 96.4376L124.111 95.8895L123.611 95.8836ZM123.605 96.4317L123.105 96.4257C123.1 96.9556 122.952 97.2956 122.724 97.5186L123.074 97.8764L123.424 98.2341C123.891 97.7775 124.098 97.1544 124.105 96.4376L123.605 96.4317ZM123.074 97.8764L122.724 97.5186C122.524 97.7147 122.196 97.8496 121.656 97.8431L121.65 98.3431L121.645 98.843C122.351 98.8514 122.973 98.6751 123.424 98.2341L123.074 97.8764ZM121.65 98.3431L121.656 97.8431L121.237 97.8381L121.231 98.3381L121.226 98.838L121.645 98.843L121.65 98.3431Z" fill="#2E4ECC"/>
<path d="M264.121 78.0259H243.394C240.746 78.0259 238.598 80.2053 238.598 82.8948V91.4868V94.4921V103.906L243.474 99.361H264.121C266.769 99.361 268.917 97.1816 268.917 94.4921V82.8948C268.916 80.2053 266.769 78.0259 264.121 78.0259Z" fill="white" stroke="#2E4ECC" stroke-miterlimit="10"/>
<path d="M261.737 90.5289C262.705 90.5289 263.49 89.6904 263.49 88.656C263.49 87.6217 262.705 86.7832 261.737 86.7832C260.768 86.7832 259.983 87.6217 259.983 88.656C259.983 89.6904 260.768 90.5289 261.737 90.5289Z" fill="#2E4ECC"/>
<path d="M254.666 90.5289C255.634 90.5289 256.419 89.6904 256.419 88.656C256.419 87.6217 255.634 86.7832 254.666 86.7832C253.698 86.7832 252.913 87.6217 252.913 88.656C252.913 89.6904 253.698 90.5289 254.666 90.5289Z" fill="#2E4ECC"/>
<path d="M247.596 90.5289C248.565 90.5289 249.35 89.6904 249.35 88.656C249.35 87.6217 248.565 86.7832 247.596 86.7832C246.628 86.7832 245.843 87.6217 245.843 88.656C245.843 89.6904 246.628 90.5289 247.596 90.5289Z" fill="#2E4ECC"/>
<path fill-rule="evenodd" clip-rule="evenodd" d="M439.158 98.1989C440.042 98.6913 440.85 99.3031 441.566 100.011L444.139 99.0325L446.557 103.11L444.63 105.177C444.923 106.17 445.097 107.211 445.135 108.277L447.601 109.528L446.612 114.237L443.883 114.243C443.422 115.189 442.848 116.051 442.186 116.816L443.102 119.564L439.286 122.147L437.351 120.089C436.421 120.402 435.446 120.587 434.449 120.628L433.278 123.262L428.869 122.206L428.863 119.29C427.977 118.797 427.171 118.185 426.455 117.478L423.882 118.456L421.464 114.379L423.391 112.312C423.097 111.319 422.925 110.278 422.886 109.213L420.42 107.962L421.409 103.252L424.138 103.246C424.599 102.3 425.172 101.437 425.835 100.674L424.919 97.9255L428.735 95.3427L430.67 97.4013C431.6 97.0877 432.574 96.9033 433.572 96.8616L434.742 94.2279L439.151 95.2841L439.158 98.1989ZM435.271 103.74C432.66 103.114 430.067 104.869 429.481 107.659C428.895 110.449 430.538 113.218 433.15 113.844C435.762 114.47 438.354 112.715 438.94 109.925C439.526 107.135 437.884 104.366 435.271 103.74Z" fill="#2E4ECC"/>
<path fill-rule="evenodd" clip-rule="evenodd" d="M29.29 117.506C30.1002 117.958 30.8402 118.518 31.4956 119.166L33.8526 118.269L36.0675 122.005L34.3023 123.899C34.5708 124.808 34.7302 125.762 34.7653 126.739L37.0244 127.884L36.1184 132.199L33.6179 132.204C33.1959 133.071 32.6708 133.861 32.0637 134.561L32.9029 137.079L29.4071 139.445L27.634 137.559C26.7822 137.846 25.8894 138.016 24.9754 138.053L23.9027 140.466L19.8639 139.499L19.8586 136.828C19.0478 136.377 18.3084 135.816 17.653 135.167L15.296 136.064L13.0811 132.329L14.8469 130.435C14.5784 129.525 14.4197 128.571 14.384 127.595L12.1255 126.449L13.0315 122.135L15.5321 122.129C15.954 121.263 16.4791 120.472 17.0862 119.772L16.247 117.254L19.7429 114.888L21.5159 116.774C22.3677 116.487 23.2605 116.318 24.1745 116.279L25.2472 113.866L29.286 114.834L29.29 117.506ZM25.7293 122.583C23.3366 122.01 20.9617 123.617 20.4247 126.173C19.8877 128.729 21.3929 131.266 23.7856 131.84C26.1784 132.413 28.5533 130.806 29.0903 128.25C29.6266 125.693 28.1221 123.156 25.7293 122.583Z" fill="#2E4ECC"/>
<path fill-rule="evenodd" clip-rule="evenodd" d="M60.1761 50.1461C61.2984 50.7707 62.3228 51.5471 63.2302 52.4443L66.4933 51.203L69.5606 56.3743L67.1169 58.9967C67.4893 60.2563 67.7088 61.5774 67.7578 62.9289L70.8859 64.5156L69.6314 70.4887L66.1692 70.4972C65.5853 71.6968 64.8578 72.7904 64.0172 73.7596L65.1792 77.246L60.3388 80.5226L57.8839 77.9122C56.7047 78.3099 55.468 78.5438 54.2029 78.5961L52.7175 81.9376L47.1251 80.5982L47.1179 76.8991C45.9949 76.2753 44.9712 75.4982 44.0638 74.601L40.8001 75.8423L37.7327 70.671L40.1777 68.0486C39.8054 66.789 39.5865 65.4679 39.5369 64.1164L36.4094 62.5297L37.6633 56.5559L41.1254 56.5481C41.7094 55.3485 42.4369 54.2542 43.2775 53.285L42.1155 49.7986L46.9558 46.522L49.4108 49.1331C50.5899 48.7353 51.826 48.5008 53.0918 48.4485L54.5772 45.1077L60.1688 46.4478L60.1761 50.1461ZM55.2458 57.1754C51.9331 56.3821 48.6443 58.6067 47.9016 62.1461C47.1582 65.6855 49.2421 69.1973 52.5548 69.9914C55.8681 70.7854 59.1563 68.5594 59.899 65.0207C60.6417 61.4813 58.5591 57.9688 55.2458 57.1754Z" stroke="#2E4ECC" stroke-miterlimit="10"/>
<path fill-rule="evenodd" clip-rule="evenodd" d="M135.592 112.396C136.206 112.738 136.766 113.162 137.262 113.653L139.047 112.974L140.724 115.802L139.387 117.236C139.591 117.925 139.711 118.647 139.738 119.386L141.449 120.255L140.762 123.521L138.869 123.526C138.549 124.182 138.151 124.78 137.692 125.31L138.327 127.217L135.68 129.008L134.337 127.581C133.692 127.798 133.016 127.926 132.324 127.955L131.512 129.783L128.453 129.05L128.449 127.027C127.835 126.686 127.275 126.261 126.779 125.77L124.994 126.449L123.317 123.621L124.654 122.187C124.45 121.498 124.33 120.775 124.303 120.036L122.593 119.169L123.279 115.902L125.172 115.898C125.492 115.242 125.89 114.643 126.35 114.113L125.714 112.207L128.361 110.415L129.704 111.843C130.349 111.625 131.025 111.497 131.717 111.468L132.529 109.641L135.587 110.373L135.592 112.396ZM132.896 116.241C131.083 115.807 129.285 117.023 128.879 118.959C128.472 120.895 129.612 122.816 131.423 123.25C133.235 123.684 135.034 122.467 135.44 120.532C135.846 118.595 134.707 116.674 132.896 116.241Z" stroke="#2E4ECC" stroke-miterlimit="10"/>
<path fill-rule="evenodd" clip-rule="evenodd" d="M400.044 27.2419C400.786 27.6552 401.464 28.1688 402.065 28.7629L404.225 27.942L406.254 31.3648L404.637 33.0999C404.883 33.9335 405.028 34.8081 405.061 35.7025L407.131 36.753L406.301 40.7063L404.009 40.712C403.622 41.5061 403.141 42.2295 402.584 42.8717L403.354 45.179L400.15 47.3471L398.525 45.6191C397.745 45.8819 396.927 46.0373 396.089 46.0719L395.106 48.2831L391.404 47.3965L391.4 44.9487C390.656 44.5354 389.979 44.0218 389.379 43.4276L387.219 44.2493L385.189 40.8264L386.807 39.0907C386.561 38.2571 386.416 37.3832 386.383 36.4888L384.313 35.4383L385.143 31.4849L387.434 31.48C387.821 30.6859 388.303 29.9618 388.859 29.3203L388.09 27.013L391.293 24.8449L392.918 26.5729C393.699 26.3101 394.517 26.1547 395.355 26.12L396.337 23.9088L400.038 24.7954L400.044 27.2419ZM396.78 31.8939C394.588 31.3683 392.412 32.8413 391.92 35.1839C391.428 37.5259 392.807 39.8508 395 40.3764C397.193 40.902 399.368 39.4291 399.86 37.0864C400.352 34.7438 398.974 32.4188 396.78 31.8939Z" stroke="#2E4ECC" stroke-miterlimit="10"/>
<path d="M231.9 265.563H237.072V229.698H231.9V265.563Z" fill="white" stroke="#16004D" stroke-miterlimit="10"/>
<path d="M233.34 277.014H235.632C237.199 277.014 238.469 275.657 238.469 273.984V249.413C238.469 247.739 237.199 246.382 235.632 246.382H233.34C231.772 246.382 230.503 247.739 230.503 249.413V273.984C230.503 275.657 231.772 277.014 233.34 277.014Z" fill="#6FBBEF"/>
<path d="M214.079 274.449H215.348H253.624H256.634V278.136V282.284H253.624V278.136H215.348V282.284H212.339V278.136V274.449H214.079Z" fill="#6FBBEF"/>
<path d="M213.815 289.334C216.364 289.334 218.431 287.126 218.431 284.402C218.431 281.679 216.364 279.471 213.815 279.471C211.266 279.471 209.199 281.679 209.199 284.402C209.199 287.126 211.266 289.334 213.815 289.334Z" fill="white" stroke="#16004D" stroke-miterlimit="10"/>
<path d="M212.047 284.402C212.047 285.446 212.838 286.291 213.815 286.291C214.792 286.291 215.583 285.446 215.583 284.402C215.583 283.359 214.792 282.513 213.815 282.513C212.838 282.513 212.047 283.359 212.047 284.402Z" fill="#16004D"/>
<path d="M255.288 289.334C257.837 289.334 259.904 287.126 259.904 284.402C259.904 281.679 257.837 279.471 255.288 279.471C252.738 279.471 250.672 281.679 250.672 284.402C250.672 287.126 252.738 289.334 255.288 289.334Z" fill="white" stroke="#16004D" stroke-miterlimit="10"/>
<path d="M253.519 284.402C253.519 285.446 254.311 286.291 255.288 286.291C256.265 286.291 257.056 285.446 257.056 284.402C257.056 283.359 256.265 282.513 255.288 282.513C254.311 282.513 253.519 283.359 253.519 284.402Z" fill="#16004D"/>
<path d="M206.997 129.721C206.997 129.721 187.127 129.313 178.055 151.367C168.982 173.42 175.502 204.564 191.274 219.942C208.047 236.294 248.959 231.898 256.117 230.049C263.274 228.198 231.639 156.12 230.771 153.86C229.903 151.601 206.997 129.721 206.997 129.721Z" fill="#6FBBEF"/>
<path d="M181.504 206.289C181.504 206.289 188.535 227.269 216.114 230.827C243.693 234.386 258.749 229.241 258.749 229.241" stroke="#16004D" stroke-miterlimit="10" stroke-linecap="round"/>
<path d="M281.233 253.166L283.457 274.327L270.698 275.811L268.926 253.166H281.233Z" fill="#A66957"/>
<path d="M308.795 289.493L268.062 289.295L266.547 264.785L286.133 265.735L288.731 275.589L308.795 289.493Z" fill="#160047"/>
<path d="M296.534 278.733C295.795 280.41 295.056 282.087 294.317 283.764C294.213 284.001 294.108 284.238 294.004 284.475C293.778 284.986 294.491 285.435 294.717 284.921C295.456 283.244 296.195 281.566 296.934 279.889C297.039 279.653 297.143 279.415 297.248 279.179C297.473 278.667 296.761 278.218 296.534 278.733Z" fill="white"/>
<path d="M292.795 276.607C292.057 278.284 291.317 279.961 290.579 281.639C290.474 281.875 290.37 282.113 290.265 282.349C290.04 282.861 290.752 283.309 290.979 282.795C291.717 281.118 292.457 279.441 293.195 277.764C293.3 277.527 293.404 277.29 293.509 277.053C293.734 276.541 293.022 276.092 292.795 276.607Z" fill="white"/>
<path d="M276.031 289.333C276.633 288.186 276.959 286.867 276.901 285.471C276.729 281.355 273.34 278.15 269.345 278.327C269.06 278.34 267.793 278.48 267.519 278.525L267.626 279.056C267.914 279.003 269.067 278.843 269.367 278.83C273.093 278.664 276.254 281.654 276.415 285.493C276.473 286.89 276.122 288.209 275.477 289.33L276.031 289.333Z" fill="#F0F0F0"/>
<path d="M290.721 198.194C287.36 181.622 275.916 181.566 275.916 181.566L219.516 178.052C219.516 178.052 219.897 196.829 230.946 205.739C237.978 211.411 259.909 209.265 259.909 209.265L259.264 200.722L263.76 260.277H290.721C290.721 260.277 294.082 214.765 290.721 198.194Z" fill="#16004D"/>
<path d="M290.721 260.278H263.76L259.264 200.722" stroke="#2E4ECC" stroke-miterlimit="10" stroke-linecap="round"/>
<path d="M219.516 178.052C219.516 178.052 219.897 196.829 230.946 205.739C237.978 211.411 259.909 209.265 259.909 209.265" stroke="#2E4ECC" stroke-miterlimit="10" stroke-linecap="round"/>
<path d="M263.098 251.502H291.274" stroke="#2E4ECC" stroke-miterlimit="10" stroke-linecap="round"/>
<path d="M261.005 253.166L263.229 274.327L250.47 275.811L248.698 253.166H261.005Z" fill="#A66957"/>
<path d="M288.567 289.493L247.834 289.295L246.319 264.785L265.905 265.735L268.502 275.589L288.567 289.493Z" fill="#160047"/>
<path d="M276.306 278.733C275.567 280.41 274.828 282.087 274.089 283.764C273.985 284.001 273.88 284.238 273.776 284.475C273.55 284.987 274.263 285.435 274.489 284.921C275.228 283.244 275.967 281.567 276.706 279.889C276.811 279.653 276.915 279.415 277.02 279.179C277.245 278.667 276.532 278.218 276.306 278.733Z" fill="white"/>
<path d="M272.567 276.607C271.828 278.284 271.089 279.962 270.35 281.639C270.245 281.875 270.141 282.113 270.036 282.349C269.811 282.861 270.524 283.309 270.75 282.795C271.489 281.118 272.228 279.441 272.967 277.764C273.071 277.527 273.176 277.29 273.28 277.053C273.506 276.542 272.794 276.092 272.567 276.607Z" fill="white"/>
<path d="M255.803 289.333C256.405 288.186 256.732 286.867 256.673 285.471C256.501 281.355 253.112 278.15 249.117 278.327C248.832 278.34 247.565 278.48 247.291 278.525L247.397 279.056C247.685 279.004 248.838 278.843 249.138 278.83C252.864 278.664 256.026 281.654 256.187 285.493C256.245 286.89 255.894 288.209 255.249 289.331L255.803 289.333Z" fill="#F0F0F0"/>
<path d="M265.905 265.735L268.502 275.589L288.941 289.493" stroke="white" stroke-width="0.75" stroke-miterlimit="10" stroke-linecap="round"/>
<path d="M270.493 198.194C267.132 181.622 255.688 181.566 255.688 181.566L199.287 178.052C199.287 178.052 197.789 201.195 209.139 209.663C218.492 216.64 240.037 213.995 240.037 213.995L239.035 200.723L243.532 260.279H270.493C270.493 260.279 273.854 214.765 270.493 198.194Z" fill="#16004D"/>
<path d="M255.688 181.566C255.688 181.566 267.132 181.622 270.493 198.194C273.854 214.765 270.493 260.278 270.493 260.278H243.532L239.21 203.038" stroke="#2E4ECC" stroke-miterlimit="10" stroke-linecap="round"/>
<path d="M242.87 251.502H271.046" stroke="#2E4ECC" stroke-miterlimit="10" stroke-linecap="round"/>
<path d="M159.327 175.255L163.703 142.656C163.881 141.326 162.915 140.135 161.657 140.135H126.246C125.234 140.135 124.371 140.919 124.207 141.986L119.589 172.101C119.392 173.388 120.275 174.576 121.493 174.661L157.146 177.145C158.224 177.219 159.173 176.396 159.327 175.255Z" fill="#16004D"/>
<path d="M156.584 172.407L160.198 145.488C160.37 144.201 159.436 143.049 158.218 143.049H128.878C127.898 143.049 127.063 143.807 126.904 144.839L123.092 169.701C122.901 170.945 123.756 172.095 124.935 172.177L154.474 174.235C155.517 174.307 156.436 173.511 156.584 172.407Z" fill="#6FBBEF"/>
<path d="M137.121 168.095C137.5 168.601 156.865 172.387 156.865 172.387C156.865 172.387 167.243 180.831 166.863 180.901C166.483 180.971 132.817 180.566 132.817 180.566L137.121 168.095Z" fill="#F6C8A6"/>
<path d="M154.84 175.496L161.622 176.298" stroke="#EF8576" stroke-miterlimit="10" stroke-linecap="round"/>
<path d="M154.84 178.639L165.034 179.171" stroke="#EF8576" stroke-miterlimit="10" stroke-linecap="round"/>
<path d="M84.3132 89.9588L79.2764 89.7546C75.928 89.619 73.0697 92.8404 72.9248 96.9125L72.6285 105.253C72.6199 105.488 72.6233 105.72 72.6332 105.951C72.5703 106.195 72.5293 106.448 72.5201 106.711L72.3395 111.788L72.3296 112.071L72.1491 117.148C72.0836 118.991 73.4413 120.555 75.1661 120.625L77.164 120.706C78.8888 120.776 80.353 119.326 80.4185 117.483L80.5779 112.99L83.4905 113.108C86.8388 113.244 89.6972 110.022 89.842 105.95L90.1383 97.6098C90.2831 93.5377 87.6616 90.0944 84.3132 89.9588Z" fill="#F6C8A6"/>
<path d="M86.7456 100.912C86.9909 101.484 86.7562 102.16 86.2211 102.422C85.6861 102.684 85.0532 102.433 84.8078 101.862C84.5625 101.29 84.7973 100.614 85.3323 100.352C85.8673 100.09 86.5002 100.341 86.7456 100.912Z" fill="#161522"/>
<path d="M89.8381 100.001C90.1833 101.3 90.5563 102.653 91.4226 103.636C91.4484 103.665 91.4762 103.698 91.4775 103.738C91.4795 103.794 91.4312 103.835 91.3869 103.866C90.8975 104.212 90.377 104.507 89.8347 104.746" fill="#F6C8A6"/>
<path d="M89.5993 100.072C89.8506 101.018 90.1118 101.978 90.5708 102.837C90.678 103.037 90.797 103.231 90.9279 103.415C90.9994 103.516 91.0721 103.614 91.1502 103.709C91.1654 103.727 91.2262 103.822 91.248 103.824C91.3076 103.652 91.3016 103.598 91.2295 103.662C91.207 103.678 91.1845 103.693 91.1621 103.709C90.7203 104.012 90.254 104.276 89.7699 104.492C89.4796 104.621 89.6072 105.134 89.9015 105.003C90.4141 104.774 90.9094 104.508 91.379 104.189C91.5701 104.059 91.8016 103.892 91.6991 103.613C91.6157 103.386 91.3823 103.194 91.25 102.993C90.6502 102.08 90.3598 100.992 90.0775 99.9319C89.9902 99.6034 89.5113 99.7425 89.5993 100.072Z" fill="#101010"/>
<path d="M85.9189 98.3784C85.2543 98.8256 84.5962 99.2833 83.9435 99.7503C83.8 99.8528 83.7239 100.066 83.8251 100.234C83.917 100.386 84.124 100.47 84.2775 100.36C84.9302 99.893 85.5882 99.4352 86.2529 98.9881C86.3991 98.8899 86.4705 98.6687 86.3713 98.5048C86.2767 98.3487 86.0757 98.2731 85.9189 98.3784Z" fill="#161522"/>
<path d="M92.8161 80.9789C89.8096 79.4536 85.2192 86.7274 85.2192 86.7274C85.2192 86.7274 88.1569 81.9651 84.7979 80.856C81.439 79.7468 77.4742 86.3897 77.4742 86.3897C77.4742 86.3897 64.375 88.4328 65.0198 101.406C65.0198 101.406 65.2089 108.797 72.3634 111.121L72.6034 103.163L73.6292 102.404L74.3375 104.995C74.3375 104.995 77.1627 105.652 79.0019 100.871C82.0196 100.134 86.3018 98.4695 90.4419 94.7019C97.9686 87.8542 95.8225 82.5042 92.8161 80.9789Z" fill="#16004D"/>
<path d="M68.0375 104.715C68.0845 106.998 69.8694 108.808 72.0234 108.757C74.1781 108.707 75.8863 106.815 75.8394 104.532C75.7924 102.25 74.0081 100.44 71.8535 100.491C69.6988 100.541 67.9905 102.433 68.0375 104.715Z" fill="#F6C8A6"/>
<path d="M74.272 105.13C74.311 104.132 73.8501 103.024 72.9626 102.612C72.4844 102.39 71.958 102.36 71.4454 102.428C71.3125 102.446 71.1974 102.537 71.1974 102.693C71.1974 102.823 71.3118 102.976 71.4454 102.958C71.8693 102.901 72.2655 102.902 72.6583 103.049C72.776 103.094 72.911 103.169 73.0472 103.27C73.0591 103.278 73.0703 103.288 73.0816 103.297C73.0373 103.261 73.0928 103.307 73.0981 103.312C73.1246 103.336 73.151 103.36 73.1762 103.386C73.2304 103.44 73.28 103.499 73.3283 103.56C73.3369 103.571 73.3448 103.582 73.3534 103.593C73.3164 103.543 73.3567 103.599 73.362 103.607C73.3805 103.635 73.399 103.663 73.4169 103.693C73.4533 103.753 73.4863 103.815 73.5174 103.878C73.5306 103.905 73.5425 103.932 73.5544 103.959C73.563 103.978 73.5981 104.065 73.5743 104.003C73.5994 104.067 73.6219 104.133 73.6424 104.2C73.6781 104.316 73.7066 104.436 73.7284 104.556C73.7376 104.606 73.7456 104.658 73.7529 104.709C73.7641 104.784 73.7476 104.651 73.7548 104.724C73.7575 104.75 73.7608 104.777 73.7628 104.803C73.7727 104.911 73.78 105.02 73.776 105.129C73.7628 105.471 74.2588 105.47 74.272 105.13Z" fill="#EF8576"/>
<path d="M81.6956 107.432C83.1475 107.432 84.3244 106.175 84.3244 104.624C84.3244 103.073 83.1475 101.816 81.6956 101.816C80.2437 101.816 79.0667 103.073 79.0667 104.624C79.0667 106.175 80.2437 107.432 81.6956 107.432Z" fill="#EF8576"/>
<path d="M85.3998 107.432C85.3998 107.432 86.6087 110.154 88.7528 109.86L85.3998 107.432Z" fill="#F6C8A6"/>
<path d="M85.3998 107.432C85.3998 107.432 86.6087 110.154 88.7528 109.86" stroke="#101010" stroke-width="0.75" stroke-miterlimit="10" stroke-linecap="round"/>
<path d="M64.9966 122.178L69.505 115.468H82.9521L85.4752 122.313L64.9966 122.178Z" fill="white"/>
<path d="M55.3615 140.615L54.8549 179.687L146.316 180.971V169.142L114.34 161.3C114.34 161.3 107.748 146.023 97.5513 131.827C87.3547 117.632 74.7475 118.734 66.6586 121.155C57.3561 123.938 49.0119 134.433 48.1469 150.618C47.1648 168.983 47.2528 179.686 47.2528 179.686H53.9687" fill="white"/>
<path d="M55.3615 140.615L54.8549 179.687L146.316 180.971V169.142L114.34 161.3C114.34 161.3 107.748 146.023 97.5513 131.827C87.3547 117.632 74.7475 118.734 66.6586 121.155C57.3561 123.938 49.0119 134.433 48.1469 150.618C47.1648 168.983 47.2528 179.686 47.2528 179.686H53.9687" stroke="#16004D" stroke-miterlimit="10" stroke-linecap="round"/>
<path d="M142.049 168.096L141.296 180.901" stroke="#16004D" stroke-miterlimit="10" stroke-linecap="round"/>
<path d="M65.1858 121.545L69.505 115.468H82.9521L85.3587 121.545" stroke="#16004D" stroke-miterlimit="10" stroke-linecap="round"/>
<path d="M86.1325 143.049C86.1325 143.049 85.7562 177.625 99.5948 180.566" stroke="#16004D" stroke-miterlimit="10" stroke-linecap="round"/>
<path d="M257.702 120.734C257.702 120.734 264.073 107.578 265.314 105.287C266.555 102.996 268.039 101.586 268.796 102.493C269.554 103.401 268.796 106.305 268.796 106.305C268.796 106.305 271.438 101.748 272.73 100.118C274.023 98.4885 276.057 98.1014 275.092 100.933C275.092 100.933 276.324 98.7655 277.307 99.0692C278.289 99.373 277.358 101.162 276.453 102.242C276.453 102.242 278.191 99.5687 279.061 100.058C279.931 100.546 279.078 102.2 278.032 103.61C278.032 103.61 279.246 101.584 280.228 102.094C281.211 102.604 280.008 104.522 278.638 106.98C277.268 109.438 274.932 113.113 273.707 115.627C272.78 117.526 270.157 123.374 270.157 123.374L269.654 124.81L257.702 120.734Z" fill="#A66957"/>
<path d="M268.503 102.242C268.503 102.242 269.09 102.339 269.09 103.957C269.09 105.575 268.47 107.893 268.796 109.274C269.124 110.655 268.503 112.809 268.503 112.809" stroke="#7F4040" stroke-width="0.75" stroke-miterlimit="10" stroke-linecap="round"/>
<path d="M271.688 106.191L275.727 100.058" stroke="#7F4040" stroke-width="0.75" stroke-miterlimit="10" stroke-linecap="round"/>
<path d="M273.056 106.98C273.183 106.804 277.247 101.057 277.247 101.057" stroke="#7F4040" stroke-width="0.75" stroke-miterlimit="10" stroke-linecap="round"/>
<path d="M274.769 108.012L278.81 102.562" stroke="#7F4040" stroke-width="0.75" stroke-miterlimit="10" stroke-linecap="round"/>
<path d="M258.167 117.284L242.61 137.649L244.845 134.723L225.852 116.106C225.852 116.106 227.084 150.648 227.911 155.055C228.738 159.463 241.16 169.6 255.178 161.944C269.196 154.288 272.217 124.501 272.217 124.501L258.167 117.284Z" fill="#5069FF"/>
<path d="M254.325 122.313L271.06 131.782C271.915 127.475 272.216 124.501 272.216 124.501L258.167 117.285L254.325 122.313Z" stroke="#16004D" stroke-miterlimit="10" stroke-linecap="round"/>
<path d="M270.675 123.802L268.872 130.394" stroke="#16004D" stroke-miterlimit="10" stroke-linecap="round"/>
<path d="M268.504 122.594C268.426 122.67 266.103 128.977 266.103 128.977" stroke="#16004D" stroke-miterlimit="10" stroke-linecap="round"/>
<path d="M266.01 121.313L263.039 127.098" stroke="#16004D" stroke-miterlimit="10" stroke-linecap="round"/>
<path d="M263.358 119.951L260.333 125.558" stroke="#16004D" stroke-miterlimit="10" stroke-linecap="round"/>
<path d="M257.431 124.071L260.547 118.736" stroke="#16004D" stroke-miterlimit="10" stroke-linecap="round"/>
<path d="M272.216 124.501L258.167 117.284L242.61 137.649" stroke="#16004D" stroke-miterlimit="10" stroke-linecap="round"/>
<path d="M244.845 134.723L225.852 116.106" stroke="#16004D" stroke-miterlimit="10" stroke-linecap="round"/>
<path d="M219.337 112.423C219.337 112.423 232.668 113.528 238.666 132.529C244.665 151.532 248.181 180.182 248.181 180.182L195.732 181.776C195.732 181.776 191.526 117.505 219.337 112.423Z" fill="#5069FF" stroke="#16004D" stroke-miterlimit="10"/>
<path d="M234.184 167.735L253.533 172.909L261.315 179.999H226.113L234.184 167.735Z" fill="#A66957"/>
<path d="M248.698 174.327L255.87 174.919" stroke="#7F4040" stroke-width="0.75" stroke-miterlimit="10" stroke-linecap="round"/>
<path d="M249.215 177.365L258.3 177.568" stroke="#7F4040" stroke-width="0.75" stroke-miterlimit="10" stroke-linecap="round"/>
<path d="M238.735 163.905L210.162 154.576L212.83 133.855L214.618 113.025C214.618 113.025 202.467 115.94 190.909 134.572C188.989 137.669 186.494 142.289 184.637 146.288C176.9 162.949 177.775 170.396 181.453 174.971C183.97 178.101 187.697 180 194.274 180C210.467 180 239.218 180 239.218 180L238.735 163.905Z" fill="#5069FF"/>
<path d="M202.193 151.974L238.736 163.905L239.219 180C239.219 180 210.467 180 194.275 180C182.555 180 177.284 173.638 179.594 161.159" stroke="#16004D" stroke-miterlimit="10" stroke-linecap="round"/>
<path d="M207.797 153.804L213.638 137.28" stroke="#16004D" stroke-miterlimit="10" stroke-linecap="round"/>
<path d="M232.729 161.944V179.999" stroke="#16004D" stroke-miterlimit="10" stroke-linecap="round"/>
<path d="M232.729 165.378L238.545 166.004" stroke="#16004D" stroke-miterlimit="10" stroke-linecap="round"/>
<path d="M232.892 169.135L238.838 169.43" stroke="#16004D" stroke-miterlimit="10" stroke-linecap="round"/>
<path d="M232.729 172.467L238.925 172.559" stroke="#16004D" stroke-miterlimit="10" stroke-linecap="round"/>
<path d="M232.729 175.45L239.011 175.524" stroke="#16004D" stroke-miterlimit="10" stroke-linecap="round"/>
<path d="M232.729 177.844H239.153" stroke="#16004D" stroke-miterlimit="10" stroke-linecap="round"/>
<path d="M224.987 112.863C224.053 112.173 221.832 110.189 221.115 110.256C220.395 110.293 217.282 108.998 215.267 111.507C212.834 114.538 211.711 119.456 213.886 122.341C215.615 124.636 219.267 123.702 221.826 121.918C224.586 123.318 227.54 122.986 228.857 120.95C230.384 118.588 228.062 115.132 224.987 112.863Z" fill="white" stroke="#16004D" stroke-miterlimit="10"/>
<path d="M226.132 88.8298H221.411C218.272 88.8298 215.704 91.9531 215.704 95.7701V98.1777C215.087 97.7079 214.333 97.4289 213.516 97.4289C211.44 97.4289 209.758 99.2113 209.758 101.411C209.758 103.61 211.44 105.394 213.516 105.394C214.317 105.394 215.058 105.126 215.667 104.674L215.726 104.718V107.758V108.053V113.339C215.726 115.257 217.196 116.827 218.991 116.827H221.072C222.867 116.827 224.337 115.257 224.337 113.339V110.527H226.132C229.271 110.527 231.839 107.404 231.839 103.587V95.7701C231.839 91.9531 229.271 88.8298 226.132 88.8298Z" fill="#A66957"/>
<path d="M215.549 101.937C215.549 101.937 215.714 99.2324 213.115 99.5334" stroke="#7F4040" stroke-miterlimit="10" stroke-linecap="round"/>
<path d="M222.391 98.3247C222.391 98.9527 222.867 99.4614 223.455 99.4614C224.043 99.4614 224.519 98.9527 224.519 98.3247C224.519 97.6966 224.043 97.188 223.455 97.188C222.868 97.188 222.391 97.6966 222.391 98.3247Z" fill="#010001"/>
<path d="M229.359 98.158C229.359 98.6935 229.765 99.1279 230.267 99.1279C230.768 99.1279 231.175 98.6935 231.175 98.158C231.175 97.6225 230.768 97.188 230.267 97.188C229.765 97.188 229.359 97.6225 229.359 98.158Z" fill="#010001"/>
<path d="M218.693 102.505C218.693 104.065 219.878 105.331 221.338 105.331C222.799 105.331 223.983 104.065 223.983 102.505C223.983 100.944 222.799 99.679 221.338 99.679C219.877 99.679 218.693 100.944 218.693 102.505Z" fill="#9E5656"/>
<path d="M231.354 100.354C231.515 100.354 231.671 100.377 231.821 100.415V103.346C231.821 103.784 231.806 104.207 231.722 104.619C231.612 104.639 231.47 104.655 231.354 104.655C230.242 104.655 229.341 103.692 229.341 102.505C229.341 101.317 230.242 100.354 231.354 100.354Z" fill="#9E5656"/>
<path d="M221.996 96.6913C222.52 96.3967 223.063 96.1643 223.633 95.9891C223.762 95.9495 223.842 95.8019 223.806 95.6634C223.771 95.5263 223.63 95.4387 223.501 95.4783C222.894 95.6648 222.305 95.9191 221.746 96.2342C221.628 96.3006 221.592 96.4772 221.658 96.5966C221.727 96.7245 221.877 96.7584 221.996 96.6913Z" fill="#7F4040"/>
<path d="M229.341 96.4765C229.926 96.4532 230.515 96.4779 231.097 96.5627C231.229 96.5818 231.363 96.5288 231.401 96.3776C231.433 96.254 231.362 96.071 231.228 96.0519C230.602 95.9608 229.973 95.9212 229.341 95.9467C229.207 95.9523 229.093 96.0646 229.093 96.2116C229.093 96.3508 229.206 96.4814 229.341 96.4765Z" fill="#7F4040"/>
<path d="M226.855 97.2692C227.193 98.3416 227.669 99.3589 228.275 100.286C228.305 100.166 228.335 100.045 228.365 99.9241C227.929 100.125 227.468 100.261 227 100.341C226.867 100.364 226.794 100.539 226.826 100.667C226.865 100.817 226.999 100.874 227.131 100.852C227.645 100.763 228.137 100.602 228.615 100.381C228.731 100.327 228.773 100.125 228.704 100.019C228.121 99.1286 227.658 98.1579 227.333 97.1279C227.232 96.8072 226.752 96.9449 226.855 97.2692Z" fill="#7F4040"/>
<path d="M215.799 82.0866C215.799 83.2834 214.891 84.254 213.771 84.254C212.65 84.254 211.742 83.2834 211.742 82.0866C211.742 80.8899 212.65 79.9192 213.771 79.9192C214.891 79.9199 215.799 80.8899 215.799 82.0866Z" fill="#2E4ECC"/>
<path d="M199.065 78.613C199.065 78.613 200.855 78.998 202.812 80.2392C204.768 81.4805 209.547 79.9517 210.386 73.8585C211.224 67.7652 205.104 63.7384 200.742 63.9779C196.38 64.2167 195.557 65.8317 193.229 69.3555C190.9 72.8793 189.246 71.3618 186.958 68.3502C183.63 63.9687 176.024 64.4562 172.11 71.1471C168.195 77.838 169.125 86.4999 177.356 91.0396C185.587 95.5793 193.862 91.614 194.45 85.3229C195.039 79.0312 198.195 78.3593 199.065 78.613Z" stroke="#161522" stroke-miterlimit="10"/>
<path d="M213.517 86.384C217.348 82.2562 222.902 81.9277 228.072 85.2431C233.241 88.5578 233.127 93.987 232.819 94.7613C232.637 95.2205 232.381 95.5659 231.837 95.6832C231.36 95.7475 230.557 95.6542 229.124 95.3285C225.001 94.3911 222.392 90.5748 222.392 90.5748C222.392 90.5748 222.742 91.2628 221.338 94.4525C220.286 96.8453 217.608 98.3246 216.241 98.9357C215.82 98.3246 214.798 97.4804 213.556 97.4296C212.666 97.3935 211.656 97.9184 211 98.4553C209.955 96.2865 209.99 90.1834 213.517 86.384Z" fill="#161522"/>
<path d="M228.544 104.229C228.534 105.039 227.921 105.715 227.154 105.714C226.388 105.714 225.775 105.04 225.764 104.229C225.759 103.889 225.263 103.887 225.268 104.229C225.279 105.071 225.763 105.819 226.501 106.118C227.224 106.412 228.093 106.172 228.588 105.536C228.878 105.165 229.034 104.713 229.04 104.229C229.044 103.888 228.548 103.888 228.544 104.229Z" fill="#7F4040"/>
<path d="M253.703 177.939H231.032V180.353H253.703V177.939Z" fill="#161522"/>
<path d="M295.494 180.353H253.771C252.101 180.353 250.747 178.906 250.747 177.123V149.321C250.747 147.537 252.101 146.091 253.771 146.091H295.494C297.164 146.091 298.517 147.537 298.517 149.321V177.123C298.517 178.907 297.164 180.353 295.494 180.353Z" fill="#161522"/>
<path d="M278.342 163.187C278.342 165.641 276.481 167.629 274.184 167.629C271.887 167.629 270.025 165.641 270.025 163.187C270.025 160.733 271.887 158.745 274.184 158.745C276.481 158.745 278.342 160.734 278.342 163.187Z" stroke="white" stroke-miterlimit="10"/>
<path d="M49.9034 184.715H44.0657V290.247H49.9034V184.715Z" fill="white" stroke="#16004D" stroke-miterlimit="10"/>
<path d="M309.241 184.715H303.403V290.247H309.241V184.715Z" fill="white" stroke="#16004D" stroke-miterlimit="10"/>
<path d="M329.444 179.999H23.863V187.029H329.444V179.999Z" fill="white" stroke="#16004D" stroke-miterlimit="10"/>
<path d="M102.199 247.161L96.6816 270.873L85.6034 264.212L90.4326 243.599L102.199 247.161Z" fill="#F6C8A6"/>
<path d="M111.444 290.138L79.1229 275.558L84.0519 260.247L100.392 268.048L99.9619 271.577L111.444 290.138Z" fill="#16004D"/>
<path d="M105.075 276.927C103.948 278.048 102.821 279.169 101.694 280.291C101.535 280.448 101.376 280.607 101.218 280.764C100.828 281.152 101.413 281.776 101.802 281.389C102.929 280.268 104.057 279.146 105.184 278.025C105.343 277.867 105.501 277.709 105.66 277.551C106.05 277.163 105.464 276.54 105.075 276.927Z" fill="white"/>
<path d="M102.786 273.851C101.659 274.973 100.531 276.094 99.4044 277.216C99.2456 277.374 99.0869 277.531 98.9282 277.689C98.538 278.077 99.1233 278.701 99.5128 278.313C100.64 277.192 101.767 276.071 102.894 274.949C103.053 274.791 103.212 274.634 103.37 274.476C103.761 274.087 103.175 273.464 102.786 273.851Z" fill="white"/>
<path d="M89.4366 202.671L89.4445 202.683L77.1071 249.176L109.403 267.837C109.403 267.837 125.531 218.921 126.9 202.67H89.4366V202.671Z" fill="#2E4ECC"/>
<path d="M109.404 267.837L77.1078 249.177L89.4452 202.683L76.0258 181.621L94.2942 166.031" stroke="#16004D" stroke-miterlimit="10" stroke-linecap="round"/>
<path d="M136.872 253.625L140.316 277.78L127.692 276.184L124.727 255.173L136.872 253.625Z" fill="#F6C8A6"/>
<path d="M160.88 289.497L125.795 289.319L124.832 273.161L142.724 273.648L143.598 277.082L160.88 289.497Z" fill="#16004D"/>
<path d="M150.27 279.865C149.634 281.36 148.999 282.855 148.363 284.35C148.272 284.564 148.181 284.778 148.091 284.992C147.999 285.209 148.032 285.467 148.239 285.596C148.416 285.707 148.712 285.656 148.804 285.437C149.44 283.943 150.075 282.447 150.711 280.952C150.802 280.738 150.893 280.524 150.983 280.311C151.076 280.094 151.041 279.835 150.835 279.707C150.658 279.596 150.362 279.647 150.27 279.865Z" fill="white"/>
<path d="M147.049 277.967C146.413 279.461 145.778 280.957 145.142 282.452C145.052 282.666 144.96 282.88 144.87 283.094C144.778 283.311 144.812 283.569 145.018 283.698C145.195 283.809 145.491 283.758 145.583 283.54C146.219 282.045 146.854 280.549 147.49 279.055C147.581 278.84 147.672 278.626 147.763 278.413C147.854 278.196 147.821 277.938 147.614 277.809C147.437 277.697 147.142 277.748 147.049 277.967Z" fill="white"/>
<path d="M95.8616 186.177C95.8616 186.177 133.831 189.151 139.653 201.319C145.474 213.486 152.309 269.778 152.309 269.778L115.605 268.672L106.999 221.229L86.1332 208.89L95.8616 186.177Z" fill="#2E4ECC"/>
<path d="M152.309 269.777L115.605 268.671L106.999 221.229L86.1325 208.889L95.8615 186.177" stroke="#16004D" stroke-miterlimit="10" stroke-linecap="round"/>
<path d="M75.9322 265.469H81.1039V229.603H75.9322V265.469Z" fill="white" stroke="#16004D" stroke-miterlimit="10"/>
<path d="M77.3717 276.92H79.6639C81.2313 276.92 82.5011 275.563 82.5011 273.89V249.319C82.5011 247.644 81.2307 246.288 79.6639 246.288H77.3717C75.805 246.288 74.5345 247.645 74.5345 249.319V273.89C74.5345 275.563 75.805 276.92 77.3717 276.92Z" fill="#6FBBEF"/>
<path d="M58.1114 274.355H59.3798H97.6565H100.666V278.042V282.19H97.6565V278.042H59.3798V282.19H56.3707V278.042V274.355H58.1114Z" fill="#6FBBEF"/>
<path d="M53.2313 284.308C53.2313 287.032 55.298 289.24 57.8475 289.24C60.397 289.24 62.463 287.032 62.463 284.308C62.463 281.585 60.3963 279.378 57.8475 279.378C55.298 279.377 53.2313 281.585 53.2313 284.308Z" fill="white" stroke="#16004D" stroke-miterlimit="10"/>
<path d="M56.0784 284.308C56.0784 285.352 56.87 286.197 57.8468 286.197C58.8236 286.197 59.6153 285.352 59.6153 284.308C59.6153 283.265 58.8236 282.419 57.8468 282.419C56.8707 282.419 56.0784 283.265 56.0784 284.308Z" fill="#16004D"/>
<path d="M94.7042 284.308C94.7042 287.032 96.7709 289.24 99.3204 289.24C101.87 289.24 103.937 287.032 103.937 284.308C103.937 281.585 101.87 279.378 99.3204 279.378C96.7709 279.377 94.7042 281.585 94.7042 284.308Z" fill="white" stroke="#16004D" stroke-miterlimit="10"/>
<path d="M97.5513 284.308C97.5513 285.352 98.3429 286.197 99.3197 286.197C100.297 286.197 101.088 285.352 101.088 284.308C101.088 283.265 100.297 282.419 99.3197 282.419C98.3429 282.419 97.5513 283.265 97.5513 284.308Z" fill="#16004D"/>
<path d="M81.849 233.577C72.6199 233.594 59.0657 232.789 45.2469 222.508C31.4281 212.228 37.9675 203.397 38.7075 191.008C39.4476 178.618 25.6288 160.429 40.9283 151.994C56.2279 143.559 90.5291 151.994 101.14 172.819C111.752 193.644 105.582 199.97 116.193 204.715C126.805 209.46 126.805 218.422 118.661 225.012C110.517 231.602 92.9788 233.556 81.849 233.577Z" fill="#6FBBEF"/>
<path d="M118.661 225.012C110.518 231.602 92.9781 233.556 81.849 233.577C72.62 233.594 59.0657 232.789 45.2469 222.508" stroke="#16004D" stroke-miterlimit="10" stroke-linecap="round"/>
<path d="M395.046 256.659L381.7 241.103L392.056 231.713L405.688 247.601L395.046 256.659Z" fill="#F6C8A6"/>
<path d="M391.96 290.224L424.097 258.954L406.072 239.345L391.912 255.093L398.212 263.481L391.96 290.224Z" fill="#16004D"/>
<path d="M393.956 272.706C395.706 273.52 397.456 274.333 399.206 275.147C399.452 275.261 399.698 275.376 399.944 275.49C400.234 275.625 400.487 275.169 400.194 275.033C398.444 274.219 396.694 273.406 394.945 272.592C394.698 272.477 394.452 272.363 394.206 272.248C393.917 272.113 393.663 272.57 393.956 272.706Z" fill="white"/>
<path d="M395.444 268.105C397.194 268.919 398.944 269.732 400.694 270.546C400.94 270.66 401.186 270.775 401.432 270.889C401.722 271.024 401.975 270.568 401.683 270.431C399.933 269.618 398.183 268.804 396.433 267.991C396.187 267.876 395.94 267.762 395.694 267.647C395.405 267.512 395.152 267.969 395.444 268.105Z" fill="white"/>
<path d="M397.136 264.741C395.743 265.288 394.31 265.742 392.871 266.128C391.676 266.448 390.461 266.722 389.233 266.85C388.269 266.951 387.164 267.028 386.247 266.627C385.453 266.28 385.157 265.473 385.266 264.588C385.369 263.766 385.975 263.328 386.682 263.136C388.617 262.609 390.879 263.246 392.757 263.766C394.237 264.175 395.709 264.662 397.136 265.252C397.434 265.375 397.563 264.862 397.267 264.741C395.922 264.185 394.535 263.723 393.142 263.326C391.11 262.747 388.687 262.065 386.586 262.614C385.87 262.802 385.186 263.219 384.903 263.983C384.614 264.763 384.707 265.89 385.243 266.529C385.841 267.243 386.844 267.4 387.692 267.438C388.928 267.494 390.176 267.286 391.384 267.03C393.377 266.607 395.359 266.001 397.268 265.252C397.565 265.135 397.437 264.623 397.136 264.741Z" fill="white"/>
<path d="M387.957 258.503C390.718 260.444 393.478 262.385 396.239 264.325C396.638 264.606 397.036 264.886 397.435 265.166C397.702 265.354 397.951 264.896 397.686 264.708C394.925 262.768 392.165 260.827 389.404 258.886C389.006 258.606 388.607 258.325 388.208 258.046C387.94 257.858 387.692 258.316 387.957 258.503Z" fill="white"/>
<path d="M416.448 250.633C413.013 254.285 412.847 260.208 416.15 264.063C416.57 264.553 417.027 264.985 417.51 265.363L424.097 258.954L416.448 250.633Z" fill="white"/>
<path d="M351.548 139.058C351.548 139.058 335.498 179.012 338.766 193.857C342.034 208.701 363.674 231.993 384.909 250.633L400.225 232.181L381.699 198.002L389.863 142.794L352.103 140.01" fill="#2E4ECC"/>
<path d="M394.918 222.389L376.574 243.088" stroke="#16004D" stroke-miterlimit="10" stroke-linecap="round"/>
<path d="M350.543 215.196C359.508 226.817 372.28 239.548 384.909 250.633L400.225 232.181L381.699 198.003" stroke="#16004D" stroke-miterlimit="10" stroke-linecap="round"/>
<path d="M364.793 267.856L364.976 246.756L378.231 247.44L378.044 268.991L364.793 267.856Z" fill="#F6C8A6"/>
<path d="M338.766 289.315L382.237 289.429L381.336 261.964L360.938 263.367L360.282 274.098L338.766 289.315Z" fill="#16004D"/>
<path d="M351.335 277.888C352.11 279.747 352.884 281.605 353.659 283.463C353.771 283.729 353.881 283.995 353.992 284.261C354.122 284.572 354.55 284.303 354.421 283.993C353.646 282.135 352.871 280.276 352.096 278.418C351.985 278.152 351.874 277.886 351.763 277.62C351.633 277.31 351.206 277.579 351.335 277.888Z" fill="white"/>
<path d="M355.341 275.567C356.116 277.426 356.89 279.284 357.665 281.143C357.776 281.408 357.887 281.675 357.998 281.94C358.127 282.251 358.555 281.982 358.426 281.673C357.651 279.814 356.877 277.955 356.102 276.097C355.991 275.831 355.88 275.565 355.769 275.3C355.639 274.989 355.212 275.259 355.341 275.567Z" fill="white"/>
<path d="M358.645 274.232C357.34 273.661 355.903 272.914 354.611 272.164C353.55 271.548 352.505 270.884 351.536 270.113C350.76 269.495 349.915 268.76 349.48 267.812C349.105 266.998 349.366 266.234 349.972 265.637C350.533 265.083 351.246 265.122 351.897 265.472C352.74 265.925 353.43 266.686 354.044 267.435C354.782 268.336 355.432 269.317 356.044 270.318C356.889 271.702 357.677 273.141 358.365 274.622C358.506 274.927 358.935 274.659 358.793 274.355C358.155 272.978 357.426 271.641 356.651 270.347C356.01 269.275 355.324 268.228 354.554 267.258C353.897 266.432 353.154 265.598 352.254 265.075C351.57 264.678 350.764 264.501 350.052 264.923C349.353 265.336 348.743 266.256 348.793 267.131C348.849 268.114 349.544 268.956 350.183 269.597C351.089 270.508 352.146 271.249 353.212 271.926C354.905 273.001 356.69 273.946 358.514 274.744C358.809 274.872 358.938 274.36 358.645 274.232Z" fill="white"/>
<path d="M355.862 263.022C356.674 266.456 357.487 269.89 358.299 273.324C358.413 273.807 358.527 274.29 358.641 274.773C358.719 275.103 359.198 274.963 359.119 274.632C358.307 271.198 357.495 267.764 356.683 264.33C356.569 263.847 356.455 263.364 356.341 262.881C356.262 262.551 355.784 262.691 355.862 263.022Z" fill="white"/>
<path d="M381.854 277.775C377.012 277.99 373.146 282.24 373.146 287.466C373.146 288.13 373.209 288.778 373.328 289.405L382.237 289.429L381.854 277.775Z" fill="white"/>
<path d="M394.718 144.401C394.435 145.04 384.139 254.957 384.139 254.957H359.651L359.433 243.586L357.491 142.259L394.718 144.401Z" fill="#2E4ECC" stroke="#16004D" stroke-miterlimit="10" stroke-linecap="round"/>
<path d="M371.512 144.459C371.512 144.459 371.841 157.547 382.927 157.396" stroke="#16004D" stroke-miterlimit="10" stroke-linecap="round"/>
<path d="M373.105 243.895L376 155.056" stroke="#16004D" stroke-miterlimit="10" stroke-linecap="round"/>
<path d="M385.004 244.202L359.432 243.587" stroke="#16004D" stroke-miterlimit="10" stroke-linecap="round"/>
<path d="M307.441 74.4865L298.271 61.169C298.271 61.169 296.552 61.1075 295.455 59.453C294.358 57.7991 294.026 55.9885 294.774 55.1987C295.522 54.4088 295.907 54.5932 295.907 54.5932C295.907 54.5932 296.332 54.5219 296.464 53.8253C296.597 53.1287 297.709 52.6038 297.709 52.6038L298.271 52.6575C298.271 52.6575 298.491 52.6406 298.663 51.9334C298.836 51.2262 300.052 50.7176 300.052 50.7176H300.555C300.555 50.7176 298.358 45.6508 298.271 43.9186C298.183 42.1856 299.606 40.8172 301.143 42.7918C302.68 44.7663 304.808 49.8154 304.808 49.8154C304.808 49.8154 306.719 49.1768 308.11 51.1287C309.502 53.0807 314.06 61.0524 314.06 61.0524L316.503 67.3484L307.441 74.4865Z" fill="#F6C8A6"/>
<path d="M306.224 53.4015C306.224 53.4015 304.09 55.1895 302.301 55.2701C300.512 55.3506 299.942 53.5385 301.041 52.435C302.139 51.3308 305.088 48.9939 306.78 49.7851C308.472 50.5763 315.19 61.9617 315.984 65.9737" stroke="#EF8576" stroke-width="0.75" stroke-miterlimit="10" stroke-linecap="round"/>
<path d="M304.056 55.0575C304.056 55.0575 304.875 56.4061 303.818 57.4467C302.76 58.4866 301.464 57.5781 300.195 55.9843C298.925 54.3906 298.105 52.2189 299.124 51.1861C300.142 50.1525 301.384 50.9437 301.782 51.5089" stroke="#EF8576" stroke-width="0.75" stroke-miterlimit="10" stroke-linecap="round"/>
<path d="M301.78 57.6784C301.78 57.6784 302.208 59.3195 300.601 59.9348C298.994 60.5502 297.315 58.2316 296.771 56.6498C296.227 55.068 296.037 53.4298 297.27 52.7749C298.272 52.2422 298.701 52.8943 298.701 52.8943" stroke="#EF8576" stroke-width="0.75" stroke-miterlimit="10" stroke-linecap="round"/>
<path d="M299.205 60.0366C299.205 60.0366 299.225 61.198 297.832 61.222C296.439 61.2454 294.159 58.4584 294.312 56.6124C294.465 54.7664 295.734 54.3234 296.21 54.5919" stroke="#EF8576" stroke-width="0.75" stroke-miterlimit="10" stroke-linecap="round"/>
<path d="M306.003 73.7143L316.276 64.9373L320.903 70.974L307.732 81.2064L306.003 73.7143Z" fill="white" stroke="#6FBBEF" stroke-miterlimit="10"/>
<path d="M320.186 67.3004L304.366 80.5508C304.366 80.5508 307.97 110.284 326.025 118.471C344.079 126.657 357.76 119.095 360.3 106.98C362.84 94.8651 367.262 79.6783 367.262 79.6783C367.262 79.6783 353.919 88.5699 342.37 85.7659C330.821 82.962 320.186 67.3004 320.186 67.3004Z" fill="#EB3341"/>
<path d="M320.186 67.3004L304.366 80.5515C304.366 80.5515 304.695 83.2551 305.647 87.2544L324.572 72.8808C321.851 69.749 320.186 67.3004 320.186 67.3004Z" fill="white"/>
<path d="M317.706 69.3775C318.833 70.8243 320.449 72.931 321.937 74.8815L322.467 74.4788C321.229 72.8554 319.469 70.5558 318.217 68.9493L317.706 69.3775Z" fill="#16004D"/>
<path d="M309.089 76.5953L308.566 77.0333L311.276 82.9782L311.812 82.5713L309.089 76.5953Z" fill="#16004D"/>
<path d="M308.413 85.1528L306.219 78.9988L305.684 79.4474L307.866 85.5682L308.413 85.1528Z" fill="#16004D"/>
<path d="M315.255 71.4312L314.743 71.8593L318.649 77.3781L319.178 76.9762L315.255 71.4312Z" fill="#16004D"/>
<path d="M311.552 74.5318L314.692 80.3835L315.224 79.9794L312.068 74.0995L311.552 74.5318Z" fill="#16004D"/>
<path d="M367.262 79.6791C367.262 79.6791 353.919 88.5706 342.37 85.7666C330.82 82.9627 320.186 67.3011 320.186 67.3011L304.366 80.5515" stroke="#16004D" stroke-miterlimit="10" stroke-linecap="round"/>
<path d="M367.9 77.8196C367.9 77.8196 360.904 81.2064 355.212 90.8912C351.029 98.0102 343.092 126.493 345.737 150.928L398.208 151.971L394.142 102.419L377.607 77.8196H367.9Z" fill="#EB3341"/>
<path d="M345.737 150.928L398.209 151.971L397.507 143.421L345.228 142.352C345.274 145.239 345.433 148.11 345.737 150.928Z" fill="white"/>
<path d="M361.293 142.681L360.643 142.668V151.224L361.293 151.237V142.681Z" fill="#16004D"/>
<path d="M366.153 142.781L365.503 142.767L365.319 151.318L365.968 151.33L366.153 142.781Z" fill="#16004D"/>
<path d="M370.217 142.864L369.567 142.85V151.402L370.217 151.415V142.864Z" fill="#16004D"/>
<path d="M352.316 142.498L351.665 142.484L352.137 151.056L352.788 151.068L352.316 142.498Z" fill="#16004D"/>
<path d="M348.125 150.976L348.775 150.989C348.617 147.772 348.453 144.402 348.359 142.417L347.709 142.404C347.806 144.465 347.978 147.988 348.125 150.976Z" fill="#16004D"/>
<path d="M356.725 142.588L356.076 142.575L355.966 151.131L356.616 151.145L356.725 142.588Z" fill="#16004D"/>
<path d="M388.029 143.227L387.379 143.215V151.756L388.029 151.769V143.227Z" fill="#16004D"/>
<path d="M391.455 143.298L390.806 143.285L390.844 151.825L391.494 151.838L391.455 143.298Z" fill="#16004D"/>
<path d="M395.698 143.384L395.045 143.371L395.746 151.923L396.399 151.935L395.698 143.384Z" fill="#16004D"/>
<path d="M384.189 143.149L383.54 143.136V151.679L384.189 151.693V143.149Z" fill="#16004D"/>
<path d="M379.353 143.05L378.703 143.037V151.583L379.353 151.597V143.05Z" fill="#16004D"/>
<path d="M374.429 142.95L373.779 142.936L374.029 151.491L374.679 151.504L374.429 142.95Z" fill="#16004D"/>
<path d="M367.9 77.8196C367.9 77.8196 360.904 81.2064 355.212 90.8912C351.029 98.0102 343.092 126.493 345.737 150.928L398.208 151.971L394.142 102.419L377.607 77.8196H367.9Z" stroke="#16004D" stroke-miterlimit="10"/>
<path d="M384.285 139.205C384.285 139.205 370.487 139.193 363.058 134.479C355.628 129.766 362.049 127.58 363.705 127.627C365.361 127.675 383.536 128.75 383.536 128.75L384.285 139.205Z" fill="#F6C8A6"/>
<path d="M364.568 129.201C364.568 129.201 365.595 132.678 371.521 132.776" stroke="#EF8576" stroke-width="0.75" stroke-miterlimit="10" stroke-linecap="round"/>
<path d="M360.968 129.925C360.968 129.925 361.235 132.808 368.482 134.479" stroke="#EF8576" stroke-width="0.75" stroke-miterlimit="10" stroke-linecap="round"/>
<path d="M386.414 126.808L382.472 127.778L383.116 140.257L389.752 140.994L386.414 126.808Z" fill="white" stroke="#6FBBEF" stroke-miterlimit="10"/>
<path d="M377.608 77.8196L386.414 105.459C386.414 105.459 396.541 113.81 400.284 118.878L385.682 125.456L387.15 141.462C387.15 141.462 425.369 158.236 427.129 123.631C428.887 89.0269 377.608 77.8196 377.608 77.8196Z" fill="#EB3341"/>
<path d="M387.149 141.462L393.428 143.621L391.557 122.81L385.682 125.456L387.149 141.462Z" fill="white"/>
<path d="M386.447 130.24L392.176 129.698L392.114 129.007L386.06 129.579L386.444 133.761L392.491 133.196L392.429 132.505L386.706 133.04L386.447 130.24Z" fill="#16004D"/>
<path d="M392.789 136.509L386.736 136.948L387.071 140.607L393.211 141.198L393.147 140.495L387.336 139.936L387.123 137.614L392.851 137.2L392.789 136.509Z" fill="#16004D"/>
<path d="M385.835 127.126L391.813 125.665L391.751 124.969L385.772 126.43L385.835 127.126Z" fill="#16004D"/>
<path d="M410.07 114.469L385.682 125.456L387.15 141.462C387.15 141.462 425.369 158.236 427.129 123.632C427.709 112.226 422.526 103.361 415.317 96.6023" stroke="#16004D" stroke-miterlimit="10" stroke-linecap="round"/>
<path d="M386.414 105.458C386.414 105.458 396.541 113.809 400.284 118.877" stroke="#16004D" stroke-miterlimit="10" stroke-linecap="round"/>
<path d="M331.356 130.68L360.187 130.736C363.18 130.742 364.727 128.261 363.643 125.195L356.086 103.819C355.002 100.753 351.697 98.2631 348.704 98.2568L319.873 98.2009C316.881 98.1953 315.333 100.676 316.417 103.742L323.974 125.118C325.058 128.184 328.364 130.674 331.356 130.68Z" fill="#161522"/>
<path d="M334.233 112.772C334.788 115 336.928 116.81 339.013 116.813C341.098 116.818 342.338 115.014 341.783 112.787C341.228 110.558 339.088 108.748 337.003 108.745C334.918 108.74 333.678 110.543 334.233 112.772Z" stroke="white" stroke-miterlimit="10"/>
<path d="M352.333 130.721L379.406 130.774C380.332 130.776 381.085 129.975 381.086 128.986L381.088 127.961C381.09 126.972 380.341 126.168 379.414 126.167L352.341 126.114C351.415 126.112 350.663 126.913 350.661 127.902L350.659 128.926C350.658 129.915 351.408 130.719 352.333 130.721Z" fill="#161522"/>
<path d="M377.912 67.6225C377.941 67.3957 377.965 67.1668 377.978 66.9337L378.421 58.6674C378.637 54.6314 376.099 51.1626 372.78 50.9599L367.788 50.6547C364.469 50.4519 361.576 53.5886 361.36 57.6246L360.917 65.8909C360.701 69.9277 363.239 73.3957 366.558 73.5984L369.083 73.7532L369.04 77.0333C369.022 78.4412 370.075 79.5984 371.393 79.6182L375.436 79.679C376.754 79.6987 377.837 78.5733 377.855 77.1654C377.855 77.1654 377.952 67.869 377.912 67.6225Z" fill="#F6C8A6"/>
<path d="M377.608 62.7549C377.608 62.7549 376.852 55.7214 376.493 56.7316C375.981 58.1728 375.597 66.3006 374.083 66.9244C372.08 67.7503 371.553 64.1374 367.628 63.7538C363.704 63.3702 360.919 64.9802 360.524 66.6616C360.28 67.6994 359.638 70.5874 362.762 72.8757C365.433 74.8311 369.508 74.5245 369.508 74.5245C369.508 74.5245 373.323 74.2653 375.082 71.9113C376.913 69.462 377.608 62.7549 377.608 62.7549Z" fill="#A66957"/>
<path d="M371.205 60.9358C371.169 61.5999 370.637 62.1071 370.015 62.0689C369.393 62.0308 368.919 61.4621 368.954 60.798C368.99 60.1346 369.522 59.6267 370.144 59.6649C370.765 59.703 371.24 60.2717 371.205 60.9358Z" fill="#020202"/>
<path d="M363.847 60.3091C363.817 60.8757 363.363 61.3088 362.832 61.2763C362.302 61.2438 361.896 60.7584 361.927 60.1912C361.957 59.6246 362.412 59.1915 362.942 59.224C363.472 59.2572 363.877 59.7426 363.847 60.3091Z" fill="#020202"/>
<path d="M364.658 65.2932C364.658 65.2932 365.129 67.0876 366.318 67.2819C367.507 67.4755 368.52 66.1177 368.644 65.0177L364.658 65.2932Z" fill="white"/>
<path d="M365.706 59.4189C365.312 60.4073 364.819 61.3461 364.234 62.22C364.148 62.3493 364.232 62.5846 364.382 62.6093C364.794 62.6771 365.207 62.7456 365.619 62.8135C365.751 62.8354 365.885 62.7774 365.923 62.6284C365.956 62.5026 365.883 62.3246 365.75 62.3027C365.338 62.2349 364.926 62.1671 364.514 62.0985C364.564 62.2285 364.613 62.3578 364.662 62.4878C365.247 61.6139 365.74 60.675 366.134 59.6867C366.186 59.5553 366.171 59.4027 366.045 59.3242C365.941 59.2585 365.759 59.2861 365.706 59.4189Z" fill="#EF8576"/>
<path d="M371.732 59.2085C371.36 58.9781 370.964 58.7931 370.554 58.6567C370.431 58.6157 370.278 58.7055 370.249 58.8418C370.219 58.9859 370.29 59.1237 370.423 59.1675C370.52 59.2 370.616 59.2353 370.712 59.2735C370.757 59.2911 370.802 59.3095 370.845 59.3286C370.855 59.3328 370.937 59.3681 370.88 59.3434C370.902 59.3533 370.924 59.3632 370.946 59.3738C371.13 59.4607 371.308 59.5582 371.482 59.6655C371.594 59.7355 371.758 59.6973 371.821 59.5709C371.884 59.4444 371.852 59.2826 371.732 59.2085Z" fill="#7F4040"/>
<path d="M363.541 58.141C363.147 58.1381 362.754 58.1622 362.363 58.213C362.234 58.23 362.108 58.3225 362.115 58.478C362.12 58.6072 362.225 58.7605 362.363 58.7429C362.754 58.692 363.146 58.668 363.541 58.6708C363.67 58.6715 363.795 58.5486 363.789 58.4059C363.783 58.2618 363.679 58.1417 363.541 58.141Z" fill="#7F4040"/>
<path d="M376.812 64.1792L376.238 57.6479C376.238 57.6479 358.36 60.9464 357.635 50.4971C357.175 43.8592 364.975 41.1111 370.635 44.7649C370.635 44.7649 381.747 44.3396 385.101 51.7129C388.455 59.0863 385.137 64.2646 377.908 71.2289L377.976 66.9337L376.812 64.1792Z" fill="#A66957"/>
<path d="M384.206 65.1739C384.046 67.3173 382.278 68.916 380.255 68.7444C378.232 68.5727 376.721 66.6963 376.88 64.5529C377.039 62.4095 378.808 60.8108 380.831 60.9825C382.854 61.1541 384.365 63.0305 384.206 65.1739Z" fill="#F6C8A6"/>
<path d="M378.805 65.2199C378.805 65.1973 378.807 65.1739 378.808 65.1513C378.81 65.128 378.812 65.1047 378.814 65.0807C378.817 65.0447 378.832 64.9443 378.818 65.0376C378.849 64.8391 378.886 64.6441 378.948 64.4534C378.957 64.4279 378.965 64.4018 378.974 64.3763C378.98 64.3622 379.017 64.2661 378.989 64.3361C379.013 64.2767 379.039 64.2188 379.067 64.1616C379.095 64.1058 379.125 64.0514 379.157 63.9977C379.172 63.9723 379.189 63.9468 379.205 63.9221C379.214 63.908 379.224 63.8945 379.234 63.8804C379.244 63.8656 379.208 63.9115 379.243 63.8684C379.285 63.8175 379.325 63.7667 379.37 63.72C379.394 63.6946 379.419 63.6699 379.445 63.6466C379.455 63.6367 379.466 63.6275 379.476 63.6183C379.528 63.571 379.435 63.6487 379.491 63.6049C379.546 63.5618 379.603 63.5222 379.662 63.4869C379.691 63.4692 379.721 63.453 379.751 63.4375C379.768 63.429 379.785 63.4205 379.802 63.412C379.818 63.4043 379.816 63.4057 379.796 63.4149C379.811 63.4085 379.826 63.4028 379.84 63.3972C380.23 63.2524 380.615 63.2502 381.038 63.3336C381.169 63.3598 381.305 63.2948 381.343 63.1485C381.376 63.0199 381.302 62.849 381.169 62.8228C380.4 62.6717 379.563 62.7472 378.99 63.376C378.636 63.7646 378.43 64.2937 378.349 64.8242C378.33 64.9542 378.311 65.0885 378.309 65.2206C378.304 65.5611 378.8 65.5611 378.805 65.2199Z" fill="#EF8576"/>
<path d="M375.746 78.8482C375.746 79.7885 374.191 80.5507 372.272 80.5507C370.354 80.5507 368.799 79.7885 368.799 78.8482C368.799 77.9079 370.354 77.1449 372.272 77.1449C374.191 77.1449 375.746 77.9079 375.746 78.8482Z" fill="#EB3341" stroke="#16004D" stroke-miterlimit="10"/>
<path d="M368.954 75.9178C368.954 75.9178 370.28 76.7655 372.555 76.8786C374.829 76.9916 377.014 76.0287 377.879 74.7867L379.83 78.9315L373.524 82.3974L371.241 77.8196L368.217 81.7376L366.802 78.6878C366.802 78.6878 367.636 77.6267 368.954 75.9178Z" fill="white" stroke="#6FBBEF" stroke-miterlimit="10"/>
<path d="M4.25944 290.857C8.20767 290.857 12.1566 290.857 16.1048 290.857C26.7537 290.857 37.4027 290.857 48.0517 290.857C63.8399 290.857 79.6282 290.857 95.4158 290.857C114.678 290.857 133.94 290.857 153.202 290.857C174.226 290.857 195.25 290.857 216.274 290.857C237.64 290.857 259.006 290.857 280.373 290.857C300.159 290.857 319.945 290.857 339.731 290.857C356.511 290.857 373.292 290.857 390.072 290.857C402.137 290.857 414.202 290.857 426.266 290.857C431.966 290.857 437.673 290.945 443.373 290.857C443.622 290.854 443.871 290.857 444.121 290.857C445.185 290.857 445.186 289.091 444.121 289.091C440.173 289.091 436.224 289.091 432.275 289.091C421.626 289.091 410.978 289.091 400.329 289.091C384.54 289.091 368.752 289.091 352.964 289.091C333.702 289.091 314.44 289.091 295.178 289.091C274.154 289.091 253.131 289.091 232.106 289.091C210.74 289.091 189.374 289.091 168.008 289.091C148.222 289.091 128.435 289.091 108.649 289.091C91.869 289.091 75.0887 289.091 58.3078 289.091C46.2436 289.091 34.1787 289.091 22.1144 289.091C16.4143 289.091 10.7069 289.003 5.00676 289.091C4.75744 289.095 4.50811 289.091 4.25878 289.091C3.19534 289.091 3.19336 290.857 4.25944 290.857Z" fill="#161522"/>
</svg>
