<svg width="100" height="100" viewBox="0 0 100 100" fill="none" xmlns="http://www.w3.org/2000/svg">
<g clip-path="url(#clip0_911_613)">
<path d="M100 50C100.007 55.0883 99.2313 60.1475 97.7 65L97.1333 66.6666C94.4431 74.3082 89.9225 81.1749 83.9667 86.6666C83.35 87.25 82.7333 87.8 82.0833 88.3333C73.0911 95.8697 61.7328 100 50 100C38.2672 100 26.9089 95.8697 17.9167 88.3333C17.2667 87.8 16.65 87.25 16.0333 86.6666C10.0775 81.1749 5.55695 74.3082 2.86667 66.6666C2.65011 66.1166 2.46667 65.5666 2.30001 65C0.271657 58.5404 -0.425729 51.7367 0.250006 45C0.300006 44.4333 0.36659 43.8833 0.450006 43.3333C1.30274 36.8671 3.43295 30.6352 6.71667 25C7.36667 23.85 8.06667 22.75 8.81659 21.6666H91.1833C91.9333 22.75 92.6333 23.85 93.2833 25C96.567 30.6352 98.6972 36.8671 99.5499 43.3333L99.7499 45C99.9176 46.6613 100.001 48.3301 100 50Z" fill="#E9EAF0"/>
<path d="M93.2833 25H6.71667C7.36667 23.85 8.06667 22.75 8.81659 21.6666H91.1833C91.9333 22.75 92.6333 23.85 93.2833 25Z" fill="#DFE0E6"/>
<path d="M0.45 43.3334H99.55L99.75 45H0.25L0.45 43.3334Z" fill="#C4CBD6"/>
<path d="M2.29999 65H97.7L97.1333 66.6667H2.86665L2.29999 65Z" fill="#C4CBD6"/>
<path d="M83.9667 86.6666C83.35 87.25 82.7333 87.8 82.0833 88.3333H17.9167C17.2667 87.8 16.65 87.25 16.0333 86.6666H83.9667Z" fill="#C4CBD6"/>
<path d="M50 4.32028e-05C41.8908 -0.010632 33.9015 1.95718 26.7249 5.7328C19.5483 9.50842 13.4012 14.9778 8.81668 21.6667H91.1833C86.5988 14.9778 80.4517 9.50842 73.2751 5.7328C66.0985 1.95718 58.1092 -0.010632 50 4.32028e-05Z" fill="#F1A101"/>
</g>
<defs>
<clipPath id="clip0_911_613">
<rect width="100" height="100" fill="white"/>
</clipPath>
</defs>
</svg>
