<svg width="100" height="100" viewBox="0 0 100 100" fill="none" xmlns="http://www.w3.org/2000/svg">
<g clip-path="url(#clip0_911_277)">
<path d="M50 100C77.6142 100 100 77.6142 100 50C100 22.3858 77.6142 0 50 0C22.3858 0 0 22.3858 0 50C0 77.6142 22.3858 100 50 100Z" fill="#F94867"/>
<path d="M84.4278 31.2043C88.2888 37.9049 89.3332 45.8639 87.3316 53.3338C85.33 60.8037 80.4461 67.1742 73.7521 71.0466L47.0496 86.4633L47.033 86.4344C46.796 86.5905 46.5733 86.7383 46.328 86.88C43.8398 88.3159 40.8831 88.7048 38.1082 87.961C35.3333 87.2172 32.9675 85.4017 31.5311 82.9137C30.0947 80.4258 29.7053 77.4692 30.4486 74.6941C31.1919 71.9191 33.007 69.553 35.4946 68.1161C35.74 67.9744 35.9793 67.8555 36.233 67.7282L36.2163 67.6994L39.1031 66.0328C39.4825 65.8141 39.8152 65.5228 40.082 65.1755C40.3489 64.8282 40.5447 64.4317 40.6582 64.0087C40.7717 63.5857 40.8008 63.1445 40.7437 62.7102C40.6866 62.276 40.5445 61.8573 40.3256 61.478C40.1066 61.0987 39.815 60.7662 39.4675 60.4997C39.1199 60.2331 38.7233 60.0377 38.3002 59.9245C37.8771 59.8113 37.4358 59.7826 37.0016 59.8401C36.5674 59.8975 36.1488 60.04 35.7697 60.2593L29.2745 64.0093C26.0201 65.8853 22.1541 66.393 18.5256 65.4208C14.8971 64.4485 11.8029 62.0759 9.9225 58.824L9.08917 57.3806C7.21308 54.1262 6.70541 50.2601 7.67765 46.6317C8.64989 43.0032 11.0226 39.9089 14.2745 38.0285L44.5854 20.5285C51.2852 16.6637 59.2454 15.6172 66.7165 17.619C74.1876 19.6209 80.5581 24.5073 84.4278 31.2043Z" fill="#F0F0F0" stroke="white" stroke-width="0.5" stroke-miterlimit="10"/>
<path d="M29.3263 52.4324C33.3121 50.1312 34.6777 45.0346 32.3765 41.0488C30.0754 37.0631 24.9788 35.6974 20.993 37.9986C17.0072 40.2998 15.6416 45.3964 17.9428 49.3822C20.244 53.3679 25.3406 54.7336 29.3263 52.4324Z" fill="#F2562F"/>
<path d="M35.0998 49.099C36.6942 48.1785 37.2404 46.1399 36.3199 44.5456C35.3995 42.9513 33.3608 42.405 31.7665 43.3255C30.1722 44.246 29.626 46.2846 30.5464 47.8789C31.4669 49.4732 33.5055 50.0195 35.0998 49.099Z" fill="#F2562F"/>
<path d="M23.8877 61.3459C25.0835 60.6555 25.4931 59.1265 24.8028 57.9308C24.1124 56.7351 22.5835 56.3254 21.3877 57.0157C20.192 57.7061 19.7823 59.2351 20.4727 60.4308C21.163 61.6265 22.692 62.0362 23.8877 61.3459Z" fill="#F2562F"/>
<path d="M38.4332 54.8725C39.2303 54.4123 39.5034 53.393 39.0432 52.5958C38.583 51.7986 37.5636 51.5255 36.7665 51.9858C35.9693 52.446 35.6962 53.4653 36.1565 54.2625C36.6167 55.0596 37.636 55.3327 38.4332 54.8725Z" fill="#F2562F"/>
<path d="M50.3669 42.2091C54.3526 39.9079 55.7183 34.8113 53.4171 30.8256C51.1159 26.8398 46.0193 25.4742 42.0335 27.7753C38.0478 30.0765 36.6821 35.1731 38.9833 39.1589C41.2845 43.1447 46.3811 44.5103 50.3669 42.2091Z" fill="#FDD303"/>
<path d="M53.6404 34.5457C55.2347 33.6252 55.7809 31.5866 54.8605 29.9923C53.94 28.398 51.9013 27.8517 50.307 28.7722C48.7127 29.6927 48.1665 31.7313 49.087 33.3256C50.0074 34.9199 52.0461 35.4662 53.6404 34.5457Z" fill="#FDD303"/>
<path d="M74.2424 41.8961C78.6268 39.3648 80.129 33.7585 77.5977 29.3742C75.0664 24.9898 69.4601 23.4877 65.0758 26.019C60.6914 28.5503 59.1892 34.1565 61.7205 38.5409C64.2518 42.9252 69.8581 44.4274 74.2424 41.8961Z" fill="#1891FF"/>
<path d="M66.1922 44.6193C68.9822 43.0085 69.9381 39.4409 68.3273 36.6509C66.7165 33.8608 63.1489 32.9049 60.3588 34.5157C57.5688 36.1265 56.6128 39.6941 58.2237 42.4842C59.8345 45.2742 63.4021 46.2302 66.1922 44.6193Z" fill="#1891FF"/>
<path d="M78.9075 44.9762C81.299 43.5955 82.1184 40.5375 80.7376 38.146C79.3569 35.7546 76.299 34.9352 73.9075 36.3159C71.5161 37.6966 70.6967 40.7546 72.0774 43.146C73.4581 45.5375 76.5161 46.3569 78.9075 44.9762Z" fill="#1891FF"/>
<path d="M65.3669 68.1898C69.3526 65.8886 70.7183 60.792 68.4171 56.8063C66.1159 52.8205 61.0193 51.4549 57.0335 53.7561C53.0478 56.0573 51.6821 61.1538 53.9833 65.1396C56.2845 69.1254 61.3811 70.491 65.3669 68.1898Z" fill="#6B6FDE"/>
<path d="M53.15 63.6963C54.7443 62.7758 55.2906 60.7372 54.3701 59.1429C53.4496 57.5486 51.411 57.0023 49.8167 57.9228C48.2224 58.8433 47.6761 60.8819 48.5966 62.4762C49.5171 64.0705 51.5557 64.6168 53.15 63.6963Z" fill="#6B6FDE"/>
<path d="M52.5918 54.396C53.7876 53.7057 54.1972 52.1767 53.5069 50.981C52.8165 49.7853 51.2876 49.3756 50.0918 50.0659C48.8961 50.7563 48.4864 52.2852 49.1768 53.481C49.8671 54.6767 51.3961 55.0864 52.5918 54.396Z" fill="#6B6FDE"/>
<path d="M69.3102 71.6866C70.1074 71.2264 70.3805 70.207 69.9203 69.4099C69.46 68.6127 68.4407 68.3396 67.6436 68.7998C66.8464 69.2601 66.5733 70.2794 67.0335 71.0766C67.4938 71.8737 68.5131 72.1468 69.3102 71.6866Z" fill="#6B6FDE"/>
<path d="M44.6612 83.9933C48.2484 81.9222 49.4775 77.3353 47.4064 73.7481C45.3353 70.1609 40.7484 68.9319 37.1612 71.0029C33.574 73.074 32.3449 77.6609 34.416 81.2481C36.4871 84.8353 41.074 86.0644 44.6612 83.9933Z" fill="#CBCBCB"/>
<path d="M43.8279 82.5499C46.6179 80.939 47.5739 77.3714 45.963 74.5814C44.3522 71.7914 40.7846 70.8354 37.9946 72.4462C35.2045 74.0571 34.2486 77.6247 35.8594 80.4147C37.4702 83.2048 41.0379 84.1607 43.8279 82.5499Z" fill="#1891FF"/>
<path d="M63.2456 32.849C64.4414 32.1587 64.851 30.6297 64.1607 29.434C63.4703 28.2383 61.9414 27.8286 60.7456 28.5189C59.5499 29.2093 59.1402 30.7383 59.8306 31.934C60.5209 33.1297 62.0499 33.5394 63.2456 32.849Z" fill="#FDD303"/>
<path d="M86.8166 58.5667C86.8213 60.6632 86.3804 62.7367 85.5233 64.65H77.0227C76.8314 64.5843 76.6467 64.5006 76.4712 64.4C75.5363 63.9663 74.7445 63.2749 74.1887 62.407C73.6328 61.5391 73.3361 60.5306 73.3333 59.5C73.3306 58.8079 73.4664 58.1222 73.7327 57.4833C73.9863 56.8548 74.3538 56.2785 74.8167 55.7833C75.0213 55.565 75.244 55.3643 75.4823 55.1833C75.8056 54.9167 76.1859 54.7333 76.5282 54.4833C76.8725 54.251 77.1913 53.9829 77.4791 53.6833C77.4981 53.6667 77.5171 53.6333 77.5362 53.6167C78.0224 53.1372 78.4328 52.5864 78.7532 51.9833C79.0811 51.3827 79.3182 50.7368 79.4568 50.0667C79.5639 49.5796 79.6149 49.082 79.609 48.5833C79.6107 47.3263 79.2829 46.0908 78.6581 45C81.1074 46.3246 83.1563 48.2822 84.5914 50.6684C86.0264 53.0547 86.7948 55.7822 86.8166 58.5667Z" fill="#AEAEAE"/>
<path d="M84.7437 58.9167C84.7419 60.8176 84.3061 62.6931 83.4696 64.4H76.4713C75.5363 63.9663 74.7445 63.2749 74.1887 62.407C73.6329 61.5391 73.3361 60.5307 73.3333 59.5C73.3306 58.8079 73.4664 58.1222 73.7327 57.4834C73.9863 56.8548 74.3538 56.2785 74.8167 55.7834C75.0213 55.5651 75.244 55.3644 75.4823 55.1834C75.8056 54.9167 76.1859 54.7334 76.5282 54.4834C76.8725 54.2511 77.1913 53.9829 77.4791 53.6834C77.4981 53.6668 77.5171 53.6334 77.5362 53.6167C78.0224 53.1372 78.4328 52.5865 78.7532 51.9834C79.0811 51.3827 79.3182 50.7368 79.4568 50.0667C79.5639 49.5797 79.6149 49.082 79.609 48.5834C81.1843 49.8111 82.4637 51.3771 83.3524 53.1656C84.2412 54.9542 84.7167 56.9197 84.7437 58.9167Z" fill="#CBCBCB"/>
<path d="M75 66.7709H86.6667V94.1667C86.6667 95.7138 86.0521 97.1975 84.9581 98.2915C83.8642 99.3855 82.3804 100 80.8333 100C79.2862 100 77.8025 99.3855 76.7085 98.2915C75.6146 97.1975 75 95.7138 75 94.1667V66.7709Z" fill="#4F5564"/>
<path d="M86.6667 67.7343H75C74.558 67.7343 74.1341 67.5587 73.8215 67.2462C73.509 66.9336 73.3334 66.5097 73.3334 66.0677C73.3334 65.6256 73.509 65.2017 73.8215 64.8892C74.1341 64.5766 74.558 64.401 75 64.401H86.6667C87.1087 64.401 87.5327 64.5766 87.8452 64.8892C88.1578 65.2017 88.3334 65.6256 88.3334 66.0677C88.3334 66.5097 88.1578 66.9336 87.8452 67.2462C87.5327 67.5587 87.1087 67.7343 86.6667 67.7343Z" fill="white"/>
</g>
<defs>
<clipPath id="clip0_911_277">
<rect width="100" height="100" fill="white"/>
</clipPath>
</defs>
</svg>
