<svg width="100" height="100" viewBox="0 0 100 100" fill="none" xmlns="http://www.w3.org/2000/svg">
<g clip-path="url(#clip0_911_9)">
<path d="M100 50C100.005 62.829 95.0754 75.1684 86.2333 84.4635C77.3912 93.7586 65.3132 99.2975 52.5 99.9333C51.6833 99.9833 50.8333 100 50 100C49.1667 100 48.3167 99.9833 47.5 99.9333C34.691 99.2856 22.6199 93.7431 13.7803 84.4506C4.94059 75.158 0.00751486 62.8254 0 50C0 36.7392 5.26784 24.0215 14.6447 14.6447C24.0215 5.26784 36.7392 0 50 0C63.2608 0 75.9785 5.26784 85.3553 14.6447C94.7322 24.0215 100 36.7392 100 50Z" fill="#494CB4"/>
<path d="M93.7625 12.7777C94.0148 13.1402 94.1133 13.5878 94.0366 14.0227C93.9599 14.4576 93.7142 14.8445 93.3532 15.0989L51.0304 44.7337C48.4958 46.5084 45.3599 47.2036 42.3128 46.6663C39.2656 46.129 36.5566 44.4032 34.7819 41.8686C33.0071 39.334 32.3119 36.1982 32.8492 33.151C33.3865 30.1038 35.1123 27.3949 37.6469 25.6201L69.0478 3.63302C69.227 3.5069 69.4294 3.41738 69.6433 3.36958C69.8572 3.32178 70.0785 3.31665 70.2944 3.35447C70.5102 3.39229 70.7166 3.47232 70.9015 3.58998C71.0864 3.70765 71.2463 3.86063 71.372 4.04017C71.4977 4.21972 71.5868 4.4223 71.6341 4.63631C71.6814 4.85033 71.6861 5.07157 71.6478 5.28738C71.6095 5.50319 71.529 5.70933 71.4109 5.89399C71.2928 6.07865 71.1395 6.2382 70.9597 6.36352L58.6724 14.9672C58.4926 15.0925 58.3392 15.252 58.2212 15.4367C58.1031 15.6214 58.0226 15.8275 57.9843 16.0433C57.946 16.2591 57.9506 16.4804 57.9979 16.6944C58.0453 16.9084 58.1343 17.111 58.26 17.2905C58.3858 17.4701 58.5457 17.623 58.7306 17.7407C58.9155 17.8584 59.1218 17.9384 59.3377 17.9762C59.5536 18.014 59.7749 18.0089 59.9888 17.9611C60.2027 17.9133 60.405 17.8238 60.5843 17.6977L79.6979 4.31424C79.8771 4.18812 80.0795 4.0986 80.2934 4.0508C80.5073 4.003 80.7285 3.99786 80.9444 4.03568C81.1603 4.0735 81.3667 4.15354 81.5516 4.2712C81.7365 4.38886 81.8964 4.54185 82.0221 4.72139C82.1478 4.90094 82.2369 5.10351 82.2842 5.31753C82.3316 5.53154 82.3362 5.75279 82.2979 5.9686C82.2596 6.18441 82.1791 6.39055 82.061 6.57521C81.9429 6.75987 81.7896 6.91942 81.6098 7.04474L67.9573 16.6044C67.5963 16.8583 67.3508 17.2451 67.2746 17.6799C67.1984 18.1147 67.2979 18.5619 67.551 18.9234C67.8042 19.285 68.1904 19.5314 68.625 19.6085C69.0596 19.6856 69.5071 19.5872 69.8692 19.3349L80.7912 11.6872C80.9705 11.5611 81.1729 11.4715 81.3868 11.4237C81.6007 11.3759 81.8219 11.3708 82.0378 11.4086C82.2537 11.4464 82.46 11.5265 82.6449 11.6441C82.8299 11.7618 82.9898 11.9148 83.1155 12.0943C83.2412 12.2739 83.3303 12.4764 83.3776 12.6905C83.4249 12.9045 83.4295 13.1257 83.3912 13.3415C83.3529 13.5573 83.2724 13.7635 83.1544 13.9481C83.0363 14.1328 82.8829 14.2924 82.7031 14.4177L67.6853 24.9333C67.3243 25.1873 67.0788 25.5741 67.0027 26.0088C66.9265 26.4436 67.0259 26.8908 67.2791 27.2524C67.5322 27.6139 67.9185 27.8603 68.3531 27.9374C68.7877 28.0146 69.2351 27.9161 69.5972 27.6638L91.4413 12.3684C91.8038 12.1162 92.2514 12.0176 92.6863 12.0943C93.1212 12.171 93.5081 12.4167 93.7625 12.7777Z" fill="#F2562F"/>
<path d="M63.3432 23.0908L53.0624 30.2895C52.9004 30.0012 52.7238 29.7178 52.5302 29.4412C52.3365 29.1645 52.1306 28.9017 51.9151 28.6509L56.7349 25.276C56.8245 25.2132 56.9009 25.1334 56.9597 25.0411C57.0185 24.9488 57.0586 24.8459 57.0776 24.7381C57.0966 24.6303 57.0942 24.5199 57.0705 24.413C57.0468 24.3062 57.0023 24.205 56.9395 24.1154C56.8767 24.0258 56.7969 23.9494 56.7046 23.8906C56.6123 23.8318 56.5094 23.7917 56.4016 23.7727C56.2938 23.7537 56.1834 23.7561 56.0765 23.7798C55.9697 23.8035 55.8686 23.848 55.7789 23.9108L50.6969 27.4692C50.1441 27.0102 49.5431 26.6126 48.9045 26.2833L57.3625 20.3609C57.4522 20.2982 57.5286 20.2183 57.5874 20.1261C57.6462 20.0338 57.6862 19.9308 57.7052 19.823C57.7242 19.7152 57.7218 19.6048 57.6981 19.4979C57.6745 19.3911 57.63 19.29 57.5672 19.2003C57.5044 19.1107 57.4246 19.0343 57.3323 18.9755C57.24 18.9167 57.137 18.8766 57.0293 18.8576C56.9215 18.8386 56.811 18.841 56.7042 18.8647C56.5973 18.8884 56.4962 18.9329 56.4066 18.9957L47.0443 25.5512C46.0811 25.2817 45.0831 25.1575 44.0832 25.1826L48.433 22.1369C48.614 22.0102 48.7373 21.8167 48.7757 21.599C48.814 21.3814 48.7644 21.1574 48.6376 20.9763C48.5108 20.7953 48.3174 20.672 48.0997 20.6336C47.882 20.5953 47.6581 20.6449 47.477 20.7717L39.9681 26.0295L39.2855 26.5074L38.6028 26.9854C36.4321 28.5074 34.9545 30.829 34.4949 33.44C34.0353 36.051 34.6313 38.7376 36.152 40.9093C37.6726 43.081 39.9934 44.56 42.6041 45.0211C45.2148 45.4822 47.9018 44.8878 50.0744 43.3685L60.3138 36.1988C60.4034 36.136 60.4798 36.0562 60.5386 35.9639C60.5974 35.8716 60.6375 35.7686 60.6565 35.6608C60.6755 35.5531 60.6731 35.4426 60.6494 35.3358C60.6257 35.2289 60.5812 35.1278 60.5184 35.0382C60.4556 34.9485 60.3758 34.8721 60.2835 34.8133C60.1912 34.7545 60.0883 34.7145 59.9805 34.6955C59.8727 34.6765 59.7623 34.6789 59.6554 34.7026C59.5486 34.7262 59.4475 34.7707 59.3578 34.8335L53.6428 38.8352C54.0084 37.9042 54.233 36.9239 54.3092 35.9266L62.3062 30.327C62.3959 30.2643 62.4723 30.1845 62.5311 30.0922C62.5899 29.9999 62.6299 29.8969 62.6489 29.7891C62.6679 29.6814 62.6655 29.5709 62.6418 29.4641C62.6181 29.3572 62.5736 29.2561 62.5109 29.1664C62.4481 29.0768 62.3683 29.0004 62.276 28.9416C62.1837 28.8828 62.0807 28.8427 61.9729 28.8237C61.8652 28.8047 61.7547 28.8072 61.6479 28.8308C61.541 28.8545 61.4399 28.899 61.3503 28.9618L54.2575 33.9282C54.1665 33.2155 53.9984 32.5148 53.7561 31.8383L64.2991 24.456C64.3888 24.3932 64.4652 24.3134 64.524 24.2211C64.5828 24.1288 64.6228 24.0259 64.6418 23.9181C64.6608 23.8103 64.6584 23.6999 64.6347 23.593C64.6111 23.4862 64.5666 23.385 64.5038 23.2954C64.441 23.2058 64.3612 23.1294 64.2689 23.0706C64.1766 23.0118 64.0736 22.9717 63.9659 22.9527C63.8581 22.9337 63.7476 22.9361 63.6408 22.9598C63.5339 22.9835 63.4329 23.028 63.3432 23.0908Z" fill="#FCE001"/>
<path d="M60.6754 55.6025C60.7608 55.7253 60.7942 55.877 60.7682 56.0243C60.7423 56.1717 60.659 56.3028 60.5367 56.389L46.1965 66.43C45.7713 66.729 45.2914 66.9411 44.7841 67.0543C44.2769 67.1675 43.7522 67.1796 43.2403 67.0898C42.7284 67 42.2392 66.8102 41.8007 66.5311C41.3622 66.2521 40.9831 65.8893 40.685 65.4636C40.3869 65.0378 40.1756 64.5575 40.0634 64.05C39.9511 63.5425 39.9401 63.0179 40.0308 62.5061C40.1215 61.9944 40.3123 61.5055 40.5922 61.0676C40.872 60.6296 41.2355 60.2512 41.6618 59.9539L52.3013 52.504C52.362 52.4612 52.4306 52.4307 52.5032 52.4144C52.5757 52.3981 52.6507 52.3963 52.724 52.409C52.7972 52.4218 52.8672 52.4489 52.93 52.4888C52.9927 52.5287 53.047 52.5805 53.0896 52.6414C53.1323 52.7023 53.1625 52.7711 53.1785 52.8437C53.1945 52.9163 53.196 52.9913 53.183 53.0645C53.1699 53.1377 53.1425 53.2076 53.1024 53.2702C53.0623 53.3328 53.0102 53.3868 52.9491 53.4292L48.7858 56.3444C48.6637 56.4305 48.5808 56.5615 48.5552 56.7087C48.5295 56.8559 48.5632 57.0072 48.6489 57.1296C48.7346 57.252 48.8653 57.3354 49.0124 57.3616C49.1594 57.3878 49.3109 57.3547 49.4336 57.2695L55.9098 52.7348C55.9705 52.692 56.0391 52.6615 56.1117 52.6452C56.1842 52.6289 56.2592 52.6271 56.3325 52.6398C56.4057 52.6526 56.4757 52.6797 56.5385 52.7196C56.6012 52.7595 56.6555 52.8113 56.6981 52.8722C56.7408 52.9331 56.771 53.0019 56.787 53.0745C56.803 53.1471 56.8045 53.2221 56.7915 53.2953C56.7784 53.3685 56.751 53.4384 56.7109 53.501C56.6708 53.5636 56.6187 53.6176 56.5576 53.66L51.9317 56.8991C51.8707 56.9415 51.8186 56.9955 51.7784 57.0581C51.7383 57.1207 51.7109 57.1906 51.6979 57.2638C51.6848 57.337 51.6864 57.412 51.7024 57.4846C51.7184 57.5572 51.7486 57.6259 51.7912 57.6869C51.8339 57.7478 51.8881 57.7996 51.9509 57.8395C52.0136 57.8794 52.0836 57.9065 52.1569 57.9193C52.2301 57.932 52.3052 57.9302 52.3777 57.9139C52.4502 57.8976 52.5188 57.8671 52.5796 57.8242L56.2802 55.233C56.403 55.1478 56.5544 55.1147 56.7015 55.1409C56.8485 55.1671 56.9792 55.2506 57.0649 55.3729C57.1506 55.4953 57.1843 55.6467 57.1587 55.7938C57.133 55.941 57.0501 56.072 56.9281 56.1582L51.8396 59.7211C51.7785 59.7635 51.7264 59.8176 51.6863 59.8802C51.6462 59.9427 51.6188 60.0126 51.6057 60.0858C51.5927 60.159 51.5942 60.2341 51.6102 60.3067C51.6263 60.3793 51.6565 60.448 51.6991 60.5089C51.7418 60.5698 51.796 60.6217 51.8587 60.6616C51.9215 60.7015 51.9915 60.7286 52.0647 60.7413C52.138 60.7541 52.213 60.7523 52.2856 60.736C52.3581 60.7197 52.4267 60.6892 52.4874 60.6463L59.8888 55.4638C60.0116 55.3783 60.1633 55.3449 60.3107 55.3709C60.4581 55.3969 60.5892 55.4801 60.6754 55.6025Z" fill="#F2562F"/>
<path d="M50.3684 59.0968L46.885 61.5359C46.8301 61.4382 46.7702 61.3422 46.7046 61.2485C46.639 61.1548 46.5692 61.0657 46.4963 60.9807L48.1294 59.8372C48.1907 59.7943 48.2325 59.7287 48.2455 59.655C48.2585 59.5812 48.2417 59.5053 48.1987 59.444C48.1558 59.3826 48.0902 59.3409 48.0165 59.3279C47.9427 59.3149 47.8668 59.3317 47.8055 59.3746L46.0835 60.5803C45.8963 60.4248 45.6926 60.2901 45.4762 60.1785L48.342 58.1718C48.3724 58.1506 48.3983 58.1235 48.4182 58.0923C48.4382 58.061 48.4517 58.0261 48.4582 57.9896C48.4646 57.9531 48.4638 57.9156 48.4558 57.8794C48.4477 57.8432 48.4327 57.809 48.4114 57.7786C48.3901 57.7482 48.3631 57.7223 48.3318 57.7024C48.3005 57.6825 48.2656 57.6689 48.2291 57.6625C48.1926 57.6561 48.1552 57.6569 48.119 57.6649C48.0828 57.6729 48.0485 57.688 48.0181 57.7093L44.8459 59.9305C44.5196 59.8391 44.1814 59.7971 43.8426 59.8056L45.3164 58.7736C45.3778 58.7306 45.4195 58.6651 45.4325 58.5913C45.4455 58.5176 45.4287 58.4417 45.3858 58.3804C45.3428 58.319 45.2773 58.2772 45.2035 58.2642C45.1298 58.2512 45.0539 58.2681 44.9925 58.311L42.4483 60.0925L42.217 60.2544L41.9857 60.4164C41.2553 60.9341 40.7595 61.7198 40.6065 62.602C40.4536 63.4841 40.656 64.3909 41.1695 65.1242C41.683 65.8576 42.4659 66.3579 43.3471 66.5159C44.2283 66.6739 45.1363 66.4767 45.8726 65.9674L49.342 63.5381C49.3724 63.5169 49.3982 63.4898 49.4182 63.4585C49.4381 63.4273 49.4517 63.3924 49.4581 63.3559C49.4645 63.3194 49.4637 63.2819 49.4557 63.2457C49.4477 63.2095 49.4326 63.1753 49.4113 63.1449C49.3901 63.1145 49.363 63.0886 49.3317 63.0687C49.3005 63.0488 49.2656 63.0352 49.2291 63.0288C49.1925 63.0223 49.1551 63.0232 49.1189 63.0312C49.0827 63.0392 49.0485 63.0543 49.0181 63.0755L47.0817 64.4314C47.2056 64.116 47.2817 63.7838 47.3075 63.4459L50.0171 61.5486C50.0784 61.5057 50.1202 61.4401 50.1332 61.3664C50.1462 61.2926 50.1294 61.2167 50.0864 61.1554C50.0435 61.094 49.9779 61.0523 49.9042 61.0393C49.8304 61.0263 49.7545 61.0431 49.6932 61.086L47.29 62.7688C47.2591 62.5273 47.2022 62.2899 47.1201 62.0607L50.6924 59.5594C50.7227 59.5381 50.7486 59.5111 50.7685 59.4798C50.7885 59.4485 50.802 59.4136 50.8085 59.3771C50.8149 59.3406 50.8141 59.3032 50.8061 59.267C50.798 59.2308 50.783 59.1965 50.7617 59.1661C50.7404 59.1357 50.7134 59.1099 50.6821 59.0899C50.6509 59.07 50.616 59.0564 50.5794 59.05C50.5429 59.0436 50.5055 59.0444 50.4693 59.0524C50.4331 59.0604 50.3988 59.0755 50.3684 59.0968Z" fill="#FCE001"/>
<path d="M95.8129 52.858C95.9631 53.0738 96.0217 53.3402 95.9761 53.5991C95.9304 53.858 95.7842 54.0882 95.5693 54.2397L70.3771 71.8794C69.6301 72.4038 68.7871 72.7758 67.8963 72.9742C67.0054 73.1726 66.0842 73.1934 65.1853 73.0354C64.2864 72.8775 63.4274 72.5439 62.6575 72.0538C61.8876 71.5636 61.2219 70.9265 60.6984 70.1789C60.1749 69.4313 59.8039 68.5878 59.6067 67.6967C59.4094 66.8056 59.3897 65.8844 59.5488 64.9856C59.7078 64.0869 60.0424 63.2284 60.5335 62.4591C61.0246 61.6898 61.6625 61.0249 62.4108 60.5023L81.1018 47.4147C81.3173 47.2646 81.5836 47.2062 81.8422 47.2521C82.1008 47.2981 82.3306 47.4447 82.4813 47.6599C82.632 47.875 82.6911 48.1411 82.6459 48.3999C82.6006 48.6586 82.4546 48.8888 82.2398 49.04L74.926 54.1613C74.7112 54.3125 74.5652 54.5427 74.5199 54.8014C74.4746 55.0602 74.5338 55.3263 74.6845 55.5414C74.8351 55.7566 75.065 55.9032 75.3236 55.9492C75.5822 55.9951 75.8485 55.9366 76.064 55.7866L87.4411 47.8202C87.6567 47.6701 87.923 47.6117 88.1816 47.6576C88.4402 47.7036 88.67 47.8502 88.8207 48.0653C88.9713 48.2805 89.0305 48.5466 88.9852 48.8054C88.94 49.0641 88.7939 49.2943 88.5792 49.4455L80.4527 55.1358C80.3456 55.2103 80.2542 55.3053 80.1839 55.4152C80.1136 55.5252 80.0656 55.6479 80.0428 55.7764C80.02 55.9049 80.0227 56.0366 80.0509 56.164C80.079 56.2914 80.132 56.412 80.2069 56.5189C80.2817 56.6258 80.377 56.7169 80.4871 56.787C80.5972 56.857 80.72 56.9047 80.8486 56.9271C80.9771 56.9496 81.1088 56.9465 81.2362 56.918C81.3635 56.8895 81.484 56.8362 81.5907 56.7611L88.0919 52.2089C88.3075 52.0588 88.5737 52.0003 88.8323 52.0463C89.091 52.0922 89.3208 52.2388 89.4715 52.454C89.6221 52.6692 89.6813 52.9353 89.636 53.194C89.5907 53.4527 89.4447 53.683 89.23 53.8342L80.2908 60.0934C80.1837 60.168 80.0924 60.263 80.022 60.3729C79.9517 60.4828 79.9037 60.6055 79.8809 60.734C79.8581 60.8625 79.8608 60.9943 79.889 61.1217C79.9172 61.2491 79.9702 61.3697 80.045 61.4766C80.1199 61.5835 80.2151 61.6746 80.3252 61.7446C80.4353 61.8147 80.5582 61.8623 80.6867 61.8848C80.8152 61.9073 80.947 61.9042 81.0743 61.8757C81.2017 61.8472 81.3221 61.7939 81.4288 61.7187L94.4313 52.6144C94.647 52.4642 94.9135 52.4056 95.1724 52.4512C95.4312 52.4969 95.6615 52.6431 95.8129 52.858Z" fill="#F2562F"/>
<path d="M77.7062 58.9967L71.5867 63.2817C71.4903 63.11 71.3851 62.9414 71.2699 62.7767C71.1546 62.612 71.032 62.4556 70.9038 62.3063L73.7727 60.2975C73.8263 60.2603 73.8721 60.2128 73.9074 60.1578C73.9426 60.1029 73.9667 60.0415 73.9782 59.9772C73.9896 59.9129 73.9883 59.847 73.9742 59.7832C73.9602 59.7194 73.9336 59.659 73.8962 59.6055C73.8587 59.552 73.8111 59.5065 73.7559 59.4714C73.7008 59.4364 73.6393 59.4126 73.575 59.4014C73.5106 59.3902 73.4447 59.3918 73.381 59.4061C73.3173 59.4204 73.257 59.4472 73.2037 59.4849L70.1787 61.603C69.8496 61.3298 69.4919 61.0931 69.1118 60.8971L74.1463 57.3719C74.2 57.3347 74.2458 57.2872 74.281 57.2322C74.3163 57.1772 74.3403 57.1158 74.3518 57.0515C74.3633 56.9873 74.3619 56.9213 74.3479 56.8575C74.3338 56.7938 74.3073 56.7334 74.2698 56.6799C74.2324 56.6264 74.1847 56.5808 74.1296 56.5458C74.0745 56.5108 74.013 56.487 73.9486 56.4757C73.8843 56.4645 73.8184 56.4661 73.7547 56.4805C73.6909 56.4948 73.6307 56.5216 73.5773 56.5593L68.0045 60.4614C67.4312 60.3009 66.8372 60.227 66.242 60.242L68.8311 58.429C68.9383 58.3533 69.0111 58.2383 69.0337 58.109C69.0562 57.9797 69.0266 57.8468 68.9513 57.7394C68.8761 57.6319 68.7613 57.5586 68.6321 57.5355C68.503 57.5125 68.3699 57.5416 68.2621 57.6164L63.7925 60.746L63.3862 61.0305L62.9799 61.315C61.6867 62.2205 60.8062 63.6027 60.5321 65.1573C60.3963 65.9272 60.4136 66.7162 60.5827 67.4793C60.7519 68.2425 61.0698 68.9648 61.5181 69.6051C61.9665 70.2454 62.5366 70.7912 63.1958 71.2112C63.8551 71.6312 64.5906 71.9172 65.3604 72.0529C66.9151 72.3271 68.515 71.9724 69.8082 71.0669L75.9031 66.7992C75.9567 66.7619 76.0025 66.7145 76.0378 66.6595C76.073 66.6045 76.0971 66.5431 76.1086 66.4788C76.12 66.4145 76.1187 66.3486 76.1046 66.2848C76.0906 66.2211 76.064 66.1607 76.0266 66.1072C75.9891 66.0537 75.9415 66.0081 75.8863 65.9731C75.8312 65.938 75.7697 65.9142 75.7054 65.903C75.641 65.8918 75.5751 65.8934 75.5114 65.9078C75.4477 65.9221 75.3874 65.9489 75.3341 65.9865L71.9322 68.3685C72.1498 67.8143 72.2835 67.2308 72.3289 66.6372L77.089 63.3041C77.1962 63.2284 77.269 63.1133 77.2915 62.9841C77.314 62.8548 77.2844 62.7219 77.2092 62.6144C77.1339 62.5069 77.0191 62.4337 76.89 62.4106C76.7608 62.3876 76.6278 62.4166 76.52 62.4914L72.2981 65.4476C72.2439 65.0234 72.1438 64.6063 71.9996 64.2037L78.2752 59.8094C78.3289 59.7722 78.3747 59.7247 78.4099 59.6697C78.4452 59.6148 78.4692 59.5534 78.4807 59.4891C78.4922 59.4248 78.4908 59.3589 78.4768 59.2951C78.4627 59.2313 78.4362 59.1709 78.3987 59.1174C78.3613 59.0639 78.3136 59.0184 78.2585 58.9833C78.2034 58.9483 78.1419 58.9245 78.0775 58.9133C78.0132 58.9021 77.9473 58.9037 77.8836 58.918C77.8198 58.9323 77.7596 58.959 77.7062 58.9967Z" fill="#FCE001"/>
<path d="M9.75966 47.1816L11.7377 48.266C11.7969 48.2985 11.8632 48.3161 11.9307 48.3173C11.9983 48.3184 12.0651 48.3032 12.1254 48.2728L14.1401 47.2581L13.7201 49.4744C13.7075 49.5408 13.7113 49.6092 13.731 49.6738C13.7507 49.7384 13.7859 49.7972 13.8334 49.8452L15.421 51.4477L13.1833 51.7331C13.1163 51.7417 13.0524 51.7664 12.997 51.8051C12.9417 51.8439 12.8966 51.8955 12.8657 51.9555L11.8322 53.9606L10.8693 51.9206C10.8405 51.8596 10.7972 51.8064 10.7433 51.7658C10.6893 51.7251 10.6263 51.6982 10.5596 51.6873L8.33331 51.324L9.97588 49.7779C10.0251 49.7316 10.0623 49.674 10.0843 49.6102C10.1063 49.5463 10.1124 49.478 10.1021 49.4112L9.75966 47.1816Z" fill="white"/>
<path d="M85.015 29.7891L86.6056 29.8296C86.6532 29.8308 86.7005 29.8204 86.7432 29.7993C86.7859 29.7782 86.8229 29.747 86.8509 29.7085L87.7859 28.4211L88.2389 29.9464C88.2525 29.9921 88.2769 30.0337 88.3102 30.0679C88.3435 30.102 88.3845 30.1275 88.4298 30.1422L89.9432 30.6337L88.6326 31.5359C88.5934 31.5629 88.5613 31.5991 88.5391 31.6412C88.5169 31.6834 88.5053 31.7303 88.5053 31.778L88.5056 33.3691L87.2425 32.4014C87.2047 32.3724 87.1604 32.3531 87.1134 32.3451C87.0665 32.337 87.0183 32.3405 86.973 32.3552L85.4598 32.8471L85.9898 31.3469C86.0057 31.3019 86.0104 31.2538 86.0035 31.2067C85.9967 31.1595 85.9784 31.1148 85.9504 31.0762L85.015 29.7891Z" fill="white"/>
<path d="M31.8206 86.6693L33.7987 87.7537C33.8579 87.7862 33.9242 87.8038 33.9917 87.8049C34.0592 87.8061 34.1261 87.7909 34.1864 87.7605L36.2011 86.7458L35.7811 88.9621C35.7685 89.0284 35.7722 89.0969 35.792 89.1615C35.8117 89.2261 35.8469 89.2849 35.8944 89.3329L37.482 90.9354L35.2444 91.2208C35.1773 91.2293 35.1134 91.254 35.0581 91.2928C35.0027 91.3315 34.9577 91.3831 34.9267 91.4432L33.8932 93.4484L32.9303 91.4084C32.9015 91.3473 32.8582 91.2941 32.8043 91.2535C32.7503 91.2128 32.6873 91.1859 32.6206 91.175L30.3943 90.8117L32.0369 89.2656C32.086 89.2193 32.1232 89.1617 32.1452 89.0978C32.1672 89.034 32.1734 88.9657 32.1631 88.8989L31.8206 86.6693Z" fill="white"/>
<path d="M27.6617 48.9434L30.595 50.5234L31.8667 47.4434L32.825 50.635L35.9017 49.3567L34.3217 52.29L37.4 53.5634L34.21 54.52L35.4883 57.5967L32.555 56.0167L31.2817 59.0967L30.325 55.905L27.2484 57.1834L28.8284 54.25L25.7484 52.9784L28.94 52.02L27.6617 48.9434Z" fill="white"/>
<path d="M18.8116 71.3633L20.5916 72.2449L22.5666 72.0249L21.685 73.8066L21.905 75.7816L20.1233 74.8999L18.1483 75.1183L19.03 73.3383L18.8116 71.3633Z" fill="white"/>
<path d="M18.58 30.3517L20.7817 31.4417L23.2217 31.1717L22.1333 33.3717L22.4033 35.8134L20.2017 34.725L17.7617 34.995L18.85 32.7934L18.58 30.3517Z" fill="white"/>
<path d="M39.3533 6.17505L41.0033 6.99172L42.835 6.79005L42.0183 8.44005L42.2217 10.2717L40.57 9.45505L38.7383 9.65672L39.5567 8.00672L39.3533 6.17505Z" fill="white"/>
<path d="M68.4083 83.7367L69.6067 85.1367L71.3717 85.6667L69.9717 86.865L69.44 88.63L68.2417 87.23L66.4783 86.6984L67.8783 85.5L68.4083 83.7367Z" fill="white"/>
<path d="M58.705 73.3334L59.9034 74.7317L61.6667 75.2634L60.2684 76.4617L59.7367 78.225L58.5384 76.8267L56.775 76.295L58.1734 75.0967L58.705 73.3334Z" fill="white"/>
<path d="M74.245 44.1183L75 45L76.1117 45.335L75.23 46.09L74.895 47.2L74.14 46.32L73.03 45.985L73.91 45.23L74.245 44.1183Z" fill="white"/>
<path d="M88.135 71.9183L88.8883 72.8L90 73.135L89.1183 73.8883L88.7833 75L88.03 74.1183L86.9183 73.7833L87.8 73.03L88.135 71.9183Z" fill="white"/>
</g>
<defs>
<clipPath id="clip0_911_9">
<rect width="100" height="100" fill="white"/>
</clipPath>
</defs>
</svg>
